<?xml version="1.0" encoding="utf-8" standalone="no"?>
<!DOCTYPE svg PUBLIC "-//W3C//DTD SVG 1.1//EN"
  "http://www.w3.org/Graphics/SVG/1.1/DTD/svg11.dtd">
<!-- Created with matplotlib (https://matplotlib.org/) -->
<svg height="345.6pt" version="1.1" viewBox="0 0 460.8 345.6" width="460.8pt" xmlns="http://www.w3.org/2000/svg" xmlns:xlink="http://www.w3.org/1999/xlink">
 <defs>
  <style type="text/css">
*{stroke-linecap:butt;stroke-linejoin:round;}
  </style>
 </defs>
 <g id="figure_1">
  <g id="patch_1">
   <path d="M 0 345.6 
L 460.8 345.6 
L 460.8 0 
L 0 0 
z
" style="fill:#ffffff;"/>
  </g>
  <g id="axes_1">
   <g id="patch_2">
    <path d="M 57.6 307.584 
L 414.72 307.584 
L 414.72 41.472 
L 57.6 41.472 
z
" style="fill:#ffffff;"/>
   </g>
   <g id="patch_3">
    <path clip-path="url(#pd04a6f0540)" d="M 57.6 307.584 
L 59.90144 307.584 
L 59.90144 54.144 
L 57.6 54.144 
z
" style="fill:#1f77b4;"/>
   </g>
   <g id="patch_4">
    <path clip-path="url(#pd04a6f0540)" d="M 69.1072 307.584 
L 71.40864 307.584 
L 71.40864 307.584 
L 69.1072 307.584 
z
" style="fill:#1f77b4;"/>
   </g>
   <g id="patch_5">
    <path clip-path="url(#pd04a6f0540)" d="M 80.6144 307.584 
L 82.91584 307.584 
L 82.91584 282.093582 
L 80.6144 282.093582 
z
" style="fill:#1f77b4;"/>
   </g>
   <g id="patch_6">
    <path clip-path="url(#pd04a6f0540)" d="M 92.1216 307.584 
L 94.42304 307.584 
L 94.42304 307.584 
L 92.1216 307.584 
z
" style="fill:#1f77b4;"/>
   </g>
   <g id="patch_7">
    <path clip-path="url(#pd04a6f0540)" d="M 103.6288 307.584 
L 105.93024 307.584 
L 105.93024 295.377428 
L 103.6288 295.377428 
z
" style="fill:#1f77b4;"/>
   </g>
   <g id="patch_8">
    <path clip-path="url(#pd04a6f0540)" d="M 115.136 307.584 
L 117.43744 307.584 
L 117.43744 307.584 
L 115.136 307.584 
z
" style="fill:#1f77b4;"/>
   </g>
   <g id="patch_9">
    <path clip-path="url(#pd04a6f0540)" d="M 126.6432 307.584 
L 128.94464 307.584 
L 128.94464 301.39347 
L 126.6432 301.39347 
z
" style="fill:#1f77b4;"/>
   </g>
   <g id="patch_10">
    <path clip-path="url(#pd04a6f0540)" d="M 138.1504 307.584 
L 140.45184 307.584 
L 140.45184 307.584 
L 138.1504 307.584 
z
" style="fill:#1f77b4;"/>
   </g>
   <g id="patch_11">
    <path clip-path="url(#pd04a6f0540)" d="M 149.6576 307.584 
L 151.95904 307.584 
L 151.95904 304.868057 
L 149.6576 304.868057 
z
" style="fill:#1f77b4;"/>
   </g>
   <g id="patch_12">
    <path clip-path="url(#pd04a6f0540)" d="M 161.1648 307.584 
L 163.46624 307.584 
L 163.46624 307.584 
L 161.1648 307.584 
z
" style="fill:#1f77b4;"/>
   </g>
   <g id="patch_13">
    <path clip-path="url(#pd04a6f0540)" d="M 172.672 307.584 
L 174.97344 307.584 
L 174.97344 306.028781 
L 172.672 306.028781 
z
" style="fill:#1f77b4;"/>
   </g>
   <g id="patch_14">
    <path clip-path="url(#pd04a6f0540)" d="M 184.1792 307.584 
L 186.48064 307.584 
L 186.48064 307.584 
L 184.1792 307.584 
z
" style="fill:#1f77b4;"/>
   </g>
   <g id="patch_15">
    <path clip-path="url(#pd04a6f0540)" d="M 195.6864 307.584 
L 197.98784 307.584 
L 197.98784 306.832943 
L 195.6864 306.832943 
z
" style="fill:#1f77b4;"/>
   </g>
   <g id="patch_16">
    <path clip-path="url(#pd04a6f0540)" d="M 207.1936 307.584 
L 209.49504 307.584 
L 209.49504 307.584 
L 207.1936 307.584 
z
" style="fill:#1f77b4;"/>
   </g>
   <g id="patch_17">
    <path clip-path="url(#pd04a6f0540)" d="M 218.7008 307.584 
L 221.00224 307.584 
L 221.00224 307.1364 
L 218.7008 307.1364 
z
" style="fill:#1f77b4;"/>
   </g>
   <g id="patch_18">
    <path clip-path="url(#pd04a6f0540)" d="M 230.208 307.584 
L 232.50944 307.584 
L 232.50944 307.584 
L 230.208 307.584 
z
" style="fill:#1f77b4;"/>
   </g>
   <g id="patch_19">
    <path clip-path="url(#pd04a6f0540)" d="M 241.7152 307.584 
L 244.01664 307.584 
L 244.01664 307.333648 
L 241.7152 307.333648 
z
" style="fill:#1f77b4;"/>
   </g>
   <g id="patch_20">
    <path clip-path="url(#pd04a6f0540)" d="M 253.2224 307.584 
L 255.52384 307.584 
L 255.52384 307.584 
L 253.2224 307.584 
z
" style="fill:#1f77b4;"/>
   </g>
   <g id="patch_21">
    <path clip-path="url(#pd04a6f0540)" d="M 264.7296 307.584 
L 267.03104 307.584 
L 267.03104 307.515722 
L 264.7296 307.515722 
z
" style="fill:#1f77b4;"/>
   </g>
   <g id="patch_22">
    <path clip-path="url(#pd04a6f0540)" d="M 276.2368 307.584 
L 278.53824 307.584 
L 278.53824 307.584 
L 276.2368 307.584 
z
" style="fill:#1f77b4;"/>
   </g>
   <g id="patch_23">
    <path clip-path="url(#pd04a6f0540)" d="M 287.744 307.584 
L 290.04544 307.584 
L 290.04544 307.500549 
L 287.744 307.500549 
z
" style="fill:#1f77b4;"/>
   </g>
   <g id="patch_24">
    <path clip-path="url(#pd04a6f0540)" d="M 299.2512 307.584 
L 301.55264 307.584 
L 301.55264 307.584 
L 299.2512 307.584 
z
" style="fill:#1f77b4;"/>
   </g>
   <g id="patch_25">
    <path clip-path="url(#pd04a6f0540)" d="M 310.7584 307.584 
L 313.05984 307.584 
L 313.05984 307.546068 
L 310.7584 307.546068 
z
" style="fill:#1f77b4;"/>
   </g>
   <g id="patch_26">
    <path clip-path="url(#pd04a6f0540)" d="M 322.2656 307.584 
L 324.56704 307.584 
L 324.56704 307.584 
L 322.2656 307.584 
z
" style="fill:#1f77b4;"/>
   </g>
   <g id="patch_27">
    <path clip-path="url(#pd04a6f0540)" d="M 333.7728 307.584 
L 336.07424 307.584 
L 336.07424 307.538481 
L 333.7728 307.538481 
z
" style="fill:#1f77b4;"/>
   </g>
   <g id="patch_28">
    <path clip-path="url(#pd04a6f0540)" d="M 345.28 307.584 
L 347.58144 307.584 
L 347.58144 307.584 
L 345.28 307.584 
z
" style="fill:#1f77b4;"/>
   </g>
   <g id="patch_29">
    <path clip-path="url(#pd04a6f0540)" d="M 356.7872 307.584 
L 359.08864 307.584 
L 359.08864 307.584 
L 356.7872 307.584 
z
" style="fill:#1f77b4;"/>
   </g>
   <g id="patch_30">
    <path clip-path="url(#pd04a6f0540)" d="M 368.2944 307.584 
L 370.59584 307.584 
L 370.59584 307.584 
L 368.2944 307.584 
z
" style="fill:#1f77b4;"/>
   </g>
   <g id="patch_31">
    <path clip-path="url(#pd04a6f0540)" d="M 379.8016 307.584 
L 382.10304 307.584 
L 382.10304 307.584 
L 379.8016 307.584 
z
" style="fill:#1f77b4;"/>
   </g>
   <g id="patch_32">
    <path clip-path="url(#pd04a6f0540)" d="M 391.3088 307.584 
L 393.61024 307.584 
L 393.61024 307.584 
L 391.3088 307.584 
z
" style="fill:#1f77b4;"/>
   </g>
   <g id="patch_33">
    <path clip-path="url(#pd04a6f0540)" d="M 402.816 307.584 
L 405.11744 307.584 
L 405.11744 307.584 
L 402.816 307.584 
z
" style="fill:#1f77b4;"/>
   </g>
   <g id="patch_34">
    <path clip-path="url(#pd04a6f0540)" d="M 414.3232 307.584 
L 416.62464 307.584 
L 416.62464 307.584 
L 414.3232 307.584 
z
" style="fill:#1f77b4;"/>
   </g>
   <g id="patch_35">
    <path clip-path="url(#pd04a6f0540)" d="M 425.8304 307.584 
L 428.13184 307.584 
L 428.13184 307.584 
L 425.8304 307.584 
z
" style="fill:#1f77b4;"/>
   </g>
   <g id="patch_36">
    <path clip-path="url(#pd04a6f0540)" d="M 437.3376 307.584 
L 439.63904 307.584 
L 439.63904 307.576414 
L 437.3376 307.576414 
z
" style="fill:#1f77b4;"/>
   </g>
   <g id="patch_37">
    <path clip-path="url(#pd04a6f0540)" d="M 448.8448 307.584 
L 451.14624 307.584 
L 451.14624 307.584 
L 448.8448 307.584 
z
" style="fill:#1f77b4;"/>
   </g>
   <g id="patch_38">
    <path clip-path="url(#pd04a6f0540)" d="M 460.352 307.584 
L 462.65344 307.584 
L 462.65344 307.584 
L 460.352 307.584 
z
" style="fill:#1f77b4;"/>
   </g>
   <g id="patch_39">
    <path clip-path="url(#pd04a6f0540)" d="M 471.8592 307.584 
L 474.16064 307.584 
L 474.16064 307.584 
L 471.8592 307.584 
z
" style="fill:#1f77b4;"/>
   </g>
   <g id="patch_40">
    <path clip-path="url(#pd04a6f0540)" d="M 483.3664 307.584 
L 485.66784 307.584 
L 485.66784 307.576414 
L 483.3664 307.576414 
z
" style="fill:#1f77b4;"/>
   </g>
   <g id="patch_41">
    <path clip-path="url(#pd04a6f0540)" d="M 494.8736 307.584 
L 497.17504 307.584 
L 497.17504 307.584 
L 494.8736 307.584 
z
" style="fill:#1f77b4;"/>
   </g>
   <g id="patch_42">
    <path clip-path="url(#pd04a6f0540)" d="M 506.3808 307.584 
L 508.68224 307.584 
L 508.68224 307.584 
L 506.3808 307.584 
z
" style="fill:#1f77b4;"/>
   </g>
   <g id="patch_43">
    <path clip-path="url(#pd04a6f0540)" d="M 517.888 307.584 
L 520.18944 307.584 
L 520.18944 307.584 
L 517.888 307.584 
z
" style="fill:#1f77b4;"/>
   </g>
   <g id="patch_44">
    <path clip-path="url(#pd04a6f0540)" d="M 529.3952 307.584 
L 531.69664 307.584 
L 531.69664 307.584 
L 529.3952 307.584 
z
" style="fill:#1f77b4;"/>
   </g>
   <g id="patch_45">
    <path clip-path="url(#pd04a6f0540)" d="M 540.9024 307.584 
L 543.20384 307.584 
L 543.20384 307.584 
L 540.9024 307.584 
z
" style="fill:#1f77b4;"/>
   </g>
   <g id="patch_46">
    <path clip-path="url(#pd04a6f0540)" d="M 552.4096 307.584 
L 554.71104 307.584 
L 554.71104 307.584 
L 552.4096 307.584 
z
" style="fill:#1f77b4;"/>
   </g>
   <g id="patch_47">
    <path clip-path="url(#pd04a6f0540)" d="M 563.9168 307.584 
L 566.21824 307.584 
L 566.21824 307.584 
L 563.9168 307.584 
z
" style="fill:#1f77b4;"/>
   </g>
   <g id="patch_48">
    <path clip-path="url(#pd04a6f0540)" d="M 575.424 307.584 
L 577.72544 307.584 
L 577.72544 307.584 
L 575.424 307.584 
z
" style="fill:#1f77b4;"/>
   </g>
   <g id="patch_49">
    <path clip-path="url(#pd04a6f0540)" d="M 586.9312 307.584 
L 589.23264 307.584 
L 589.23264 307.584 
L 586.9312 307.584 
z
" style="fill:#1f77b4;"/>
   </g>
   <g id="patch_50">
    <path clip-path="url(#pd04a6f0540)" d="M 598.4384 307.584 
L 600.73984 307.584 
L 600.73984 307.584 
L 598.4384 307.584 
z
" style="fill:#1f77b4;"/>
   </g>
   <g id="patch_51">
    <path clip-path="url(#pd04a6f0540)" d="M 609.9456 307.584 
L 612.24704 307.584 
L 612.24704 307.584 
L 609.9456 307.584 
z
" style="fill:#1f77b4;"/>
   </g>
   <g id="patch_52">
    <path clip-path="url(#pd04a6f0540)" d="M 621.4528 307.584 
L 623.75424 307.584 
L 623.75424 307.584 
L 621.4528 307.584 
z
" style="fill:#1f77b4;"/>
   </g>
   <g id="patch_53">
    <path clip-path="url(#pd04a6f0540)" d="M 632.96 307.584 
L 635.26144 307.584 
L 635.26144 307.584 
L 632.96 307.584 
z
" style="fill:#1f77b4;"/>
   </g>
   <g id="patch_54">
    <path clip-path="url(#pd04a6f0540)" d="M 644.4672 307.584 
L 646.76864 307.584 
L 646.76864 307.584 
L 644.4672 307.584 
z
" style="fill:#1f77b4;"/>
   </g>
   <g id="patch_55">
    <path clip-path="url(#pd04a6f0540)" d="M 655.9744 307.584 
L 658.27584 307.584 
L 658.27584 307.584 
L 655.9744 307.584 
z
" style="fill:#1f77b4;"/>
   </g>
   <g id="patch_56">
    <path clip-path="url(#pd04a6f0540)" d="M 667.4816 307.584 
L 669.78304 307.584 
L 669.78304 307.584 
L 667.4816 307.584 
z
" style="fill:#1f77b4;"/>
   </g>
   <g id="patch_57">
    <path clip-path="url(#pd04a6f0540)" d="M 678.9888 307.584 
L 681.29024 307.584 
L 681.29024 307.584 
L 678.9888 307.584 
z
" style="fill:#1f77b4;"/>
   </g>
   <g id="patch_58">
    <path clip-path="url(#pd04a6f0540)" d="M 690.496 307.584 
L 692.79744 307.584 
L 692.79744 307.584 
L 690.496 307.584 
z
" style="fill:#1f77b4;"/>
   </g>
   <g id="patch_59">
    <path clip-path="url(#pd04a6f0540)" d="M 702.0032 307.584 
L 704.30464 307.584 
L 704.30464 307.584 
L 702.0032 307.584 
z
" style="fill:#1f77b4;"/>
   </g>
   <g id="patch_60">
    <path clip-path="url(#pd04a6f0540)" d="M 713.5104 307.584 
L 715.81184 307.584 
L 715.81184 307.584 
L 713.5104 307.584 
z
" style="fill:#1f77b4;"/>
   </g>
   <g id="patch_61">
    <path clip-path="url(#pd04a6f0540)" d="M 725.0176 307.584 
L 727.31904 307.584 
L 727.31904 307.584 
L 725.0176 307.584 
z
" style="fill:#1f77b4;"/>
   </g>
   <g id="patch_62">
    <path clip-path="url(#pd04a6f0540)" d="M 736.5248 307.584 
L 738.82624 307.584 
L 738.82624 307.584 
L 736.5248 307.584 
z
" style="fill:#1f77b4;"/>
   </g>
   <g id="patch_63">
    <path clip-path="url(#pd04a6f0540)" d="M 59.90144 307.584 
L 62.20288 307.584 
L 62.20288 131.252515 
L 59.90144 131.252515 
z
" style="fill:#ff7f0e;"/>
   </g>
   <g id="patch_64">
    <path clip-path="url(#pd04a6f0540)" d="M 71.40864 307.584 
L 73.71008 307.584 
L 73.71008 307.584 
L 71.40864 307.584 
z
" style="fill:#ff7f0e;"/>
   </g>
   <g id="patch_65">
    <path clip-path="url(#pd04a6f0540)" d="M 82.91584 307.584 
L 85.21728 307.584 
L 85.21728 261.375031 
L 82.91584 261.375031 
z
" style="fill:#ff7f0e;"/>
   </g>
   <g id="patch_66">
    <path clip-path="url(#pd04a6f0540)" d="M 94.42304 307.584 
L 96.72448 307.584 
L 96.72448 307.584 
L 94.42304 307.584 
z
" style="fill:#ff7f0e;"/>
   </g>
   <g id="patch_67">
    <path clip-path="url(#pd04a6f0540)" d="M 105.93024 307.584 
L 108.23168 307.584 
L 108.23168 278.110704 
L 105.93024 278.110704 
z
" style="fill:#ff7f0e;"/>
   </g>
   <g id="patch_68">
    <path clip-path="url(#pd04a6f0540)" d="M 117.43744 307.584 
L 119.73888 307.584 
L 119.73888 307.584 
L 117.43744 307.584 
z
" style="fill:#ff7f0e;"/>
   </g>
   <g id="patch_69">
    <path clip-path="url(#pd04a6f0540)" d="M 128.94464 307.584 
L 131.24608 307.584 
L 131.24608 288.557224 
L 128.94464 288.557224 
z
" style="fill:#ff7f0e;"/>
   </g>
   <g id="patch_70">
    <path clip-path="url(#pd04a6f0540)" d="M 140.45184 307.584 
L 142.75328 307.584 
L 142.75328 307.584 
L 140.45184 307.584 
z
" style="fill:#ff7f0e;"/>
   </g>
   <g id="patch_71">
    <path clip-path="url(#pd04a6f0540)" d="M 151.95904 307.584 
L 154.26048 307.584 
L 154.26048 295.688472 
L 151.95904 295.688472 
z
" style="fill:#ff7f0e;"/>
   </g>
   <g id="patch_72">
    <path clip-path="url(#pd04a6f0540)" d="M 163.46624 307.584 
L 165.76768 307.584 
L 165.76768 307.584 
L 163.46624 307.584 
z
" style="fill:#ff7f0e;"/>
   </g>
   <g id="patch_73">
    <path clip-path="url(#pd04a6f0540)" d="M 174.97344 307.584 
L 177.27488 307.584 
L 177.27488 299.876183 
L 174.97344 299.876183 
z
" style="fill:#ff7f0e;"/>
   </g>
   <g id="patch_74">
    <path clip-path="url(#pd04a6f0540)" d="M 186.48064 307.584 
L 188.78208 307.584 
L 188.78208 307.584 
L 186.48064 307.584 
z
" style="fill:#ff7f0e;"/>
   </g>
   <g id="patch_75">
    <path clip-path="url(#pd04a6f0540)" d="M 197.98784 307.584 
L 200.28928 307.584 
L 200.28928 302.971448 
L 197.98784 302.971448 
z
" style="fill:#ff7f0e;"/>
   </g>
   <g id="patch_76">
    <path clip-path="url(#pd04a6f0540)" d="M 209.49504 307.584 
L 211.79648 307.584 
L 211.79648 307.584 
L 209.49504 307.584 
z
" style="fill:#ff7f0e;"/>
   </g>
   <g id="patch_77">
    <path clip-path="url(#pd04a6f0540)" d="M 221.00224 307.584 
L 223.30368 307.584 
L 223.30368 304.549426 
L 221.00224 304.549426 
z
" style="fill:#ff7f0e;"/>
   </g>
   <g id="patch_78">
    <path clip-path="url(#pd04a6f0540)" d="M 232.50944 307.584 
L 234.81088 307.584 
L 234.81088 307.584 
L 232.50944 307.584 
z
" style="fill:#ff7f0e;"/>
   </g>
   <g id="patch_79">
    <path clip-path="url(#pd04a6f0540)" d="M 244.01664 307.584 
L 246.31808 307.584 
L 246.31808 305.672219 
L 244.01664 305.672219 
z
" style="fill:#ff7f0e;"/>
   </g>
   <g id="patch_80">
    <path clip-path="url(#pd04a6f0540)" d="M 255.52384 307.584 
L 257.82528 307.584 
L 257.82528 307.584 
L 255.52384 307.584 
z
" style="fill:#ff7f0e;"/>
   </g>
   <g id="patch_81">
    <path clip-path="url(#pd04a6f0540)" d="M 267.03104 307.584 
L 269.33248 307.584 
L 269.33248 306.597764 
L 267.03104 306.597764 
z
" style="fill:#ff7f0e;"/>
   </g>
   <g id="patch_82">
    <path clip-path="url(#pd04a6f0540)" d="M 278.53824 307.584 
L 280.83968 307.584 
L 280.83968 307.584 
L 278.53824 307.584 
z
" style="fill:#ff7f0e;"/>
   </g>
   <g id="patch_83">
    <path clip-path="url(#pd04a6f0540)" d="M 290.04544 307.584 
L 292.34688 307.584 
L 292.34688 306.848116 
L 290.04544 306.848116 
z
" style="fill:#ff7f0e;"/>
   </g>
   <g id="patch_84">
    <path clip-path="url(#pd04a6f0540)" d="M 301.55264 307.584 
L 303.85408 307.584 
L 303.85408 307.584 
L 301.55264 307.584 
z
" style="fill:#ff7f0e;"/>
   </g>
   <g id="patch_85">
    <path clip-path="url(#pd04a6f0540)" d="M 313.05984 307.584 
L 315.36128 307.584 
L 315.36128 307.227438 
L 313.05984 307.227438 
z
" style="fill:#ff7f0e;"/>
   </g>
   <g id="patch_86">
    <path clip-path="url(#pd04a6f0540)" d="M 324.56704 307.584 
L 326.86848 307.584 
L 326.86848 307.584 
L 324.56704 307.584 
z
" style="fill:#ff7f0e;"/>
   </g>
   <g id="patch_87">
    <path clip-path="url(#pd04a6f0540)" d="M 336.07424 307.584 
L 338.37568 307.584 
L 338.37568 307.24261 
L 336.07424 307.24261 
z
" style="fill:#ff7f0e;"/>
   </g>
   <g id="patch_88">
    <path clip-path="url(#pd04a6f0540)" d="M 347.58144 307.584 
L 349.88288 307.584 
L 349.88288 307.584 
L 347.58144 307.584 
z
" style="fill:#ff7f0e;"/>
   </g>
   <g id="patch_89">
    <path clip-path="url(#pd04a6f0540)" d="M 359.08864 307.584 
L 361.39008 307.584 
L 361.39008 307.326061 
L 359.08864 307.326061 
z
" style="fill:#ff7f0e;"/>
   </g>
   <g id="patch_90">
    <path clip-path="url(#pd04a6f0540)" d="M 370.59584 307.584 
L 372.89728 307.584 
L 372.89728 307.584 
L 370.59584 307.584 
z
" style="fill:#ff7f0e;"/>
   </g>
   <g id="patch_91">
    <path clip-path="url(#pd04a6f0540)" d="M 382.10304 307.584 
L 384.40448 307.584 
L 384.40448 307.432271 
L 382.10304 307.432271 
z
" style="fill:#ff7f0e;"/>
   </g>
   <g id="patch_92">
    <path clip-path="url(#pd04a6f0540)" d="M 393.61024 307.584 
L 395.91168 307.584 
L 395.91168 307.584 
L 393.61024 307.584 
z
" style="fill:#ff7f0e;"/>
   </g>
   <g id="patch_93">
    <path clip-path="url(#pd04a6f0540)" d="M 405.11744 307.584 
L 407.41888 307.584 
L 407.41888 307.584 
L 405.11744 307.584 
z
" style="fill:#ff7f0e;"/>
   </g>
   <g id="patch_94">
    <path clip-path="url(#pd04a6f0540)" d="M 416.62464 307.584 
L 418.92608 307.584 
L 418.92608 307.47779 
L 416.62464 307.47779 
z
" style="fill:#ff7f0e;"/>
   </g>
   <g id="patch_95">
    <path clip-path="url(#pd04a6f0540)" d="M 428.13184 307.584 
L 430.43328 307.584 
L 430.43328 307.584 
L 428.13184 307.584 
z
" style="fill:#ff7f0e;"/>
   </g>
   <g id="patch_96">
    <path clip-path="url(#pd04a6f0540)" d="M 439.63904 307.584 
L 441.94048 307.584 
L 441.94048 307.523309 
L 439.63904 307.523309 
z
" style="fill:#ff7f0e;"/>
   </g>
   <g id="patch_97">
    <path clip-path="url(#pd04a6f0540)" d="M 451.14624 307.584 
L 453.44768 307.584 
L 453.44768 307.584 
L 451.14624 307.584 
z
" style="fill:#ff7f0e;"/>
   </g>
   <g id="patch_98">
    <path clip-path="url(#pd04a6f0540)" d="M 462.65344 307.584 
L 464.95488 307.584 
L 464.95488 307.568827 
L 462.65344 307.568827 
z
" style="fill:#ff7f0e;"/>
   </g>
   <g id="patch_99">
    <path clip-path="url(#pd04a6f0540)" d="M 474.16064 307.584 
L 476.46208 307.584 
L 476.46208 307.584 
L 474.16064 307.584 
z
" style="fill:#ff7f0e;"/>
   </g>
   <g id="patch_100">
    <path clip-path="url(#pd04a6f0540)" d="M 485.66784 307.584 
L 487.96928 307.584 
L 487.96928 307.568827 
L 485.66784 307.568827 
z
" style="fill:#ff7f0e;"/>
   </g>
   <g id="patch_101">
    <path clip-path="url(#pd04a6f0540)" d="M 497.17504 307.584 
L 499.47648 307.584 
L 499.47648 307.584 
L 497.17504 307.584 
z
" style="fill:#ff7f0e;"/>
   </g>
   <g id="patch_102">
    <path clip-path="url(#pd04a6f0540)" d="M 508.68224 307.584 
L 510.98368 307.584 
L 510.98368 307.568827 
L 508.68224 307.568827 
z
" style="fill:#ff7f0e;"/>
   </g>
   <g id="patch_103">
    <path clip-path="url(#pd04a6f0540)" d="M 520.18944 307.584 
L 522.49088 307.584 
L 522.49088 307.584 
L 520.18944 307.584 
z
" style="fill:#ff7f0e;"/>
   </g>
   <g id="patch_104">
    <path clip-path="url(#pd04a6f0540)" d="M 531.69664 307.584 
L 533.99808 307.584 
L 533.99808 307.576414 
L 531.69664 307.576414 
z
" style="fill:#ff7f0e;"/>
   </g>
   <g id="patch_105">
    <path clip-path="url(#pd04a6f0540)" d="M 543.20384 307.584 
L 545.50528 307.584 
L 545.50528 307.584 
L 543.20384 307.584 
z
" style="fill:#ff7f0e;"/>
   </g>
   <g id="patch_106">
    <path clip-path="url(#pd04a6f0540)" d="M 554.71104 307.584 
L 557.01248 307.584 
L 557.01248 307.568827 
L 554.71104 307.568827 
z
" style="fill:#ff7f0e;"/>
   </g>
   <g id="patch_107">
    <path clip-path="url(#pd04a6f0540)" d="M 566.21824 307.584 
L 568.51968 307.584 
L 568.51968 307.584 
L 566.21824 307.584 
z
" style="fill:#ff7f0e;"/>
   </g>
   <g id="patch_108">
    <path clip-path="url(#pd04a6f0540)" d="M 577.72544 307.584 
L 580.02688 307.584 
L 580.02688 307.576414 
L 577.72544 307.576414 
z
" style="fill:#ff7f0e;"/>
   </g>
   <g id="patch_109">
    <path clip-path="url(#pd04a6f0540)" d="M 589.23264 307.584 
L 591.53408 307.584 
L 591.53408 307.584 
L 589.23264 307.584 
z
" style="fill:#ff7f0e;"/>
   </g>
   <g id="patch_110">
    <path clip-path="url(#pd04a6f0540)" d="M 600.73984 307.584 
L 603.04128 307.584 
L 603.04128 307.584 
L 600.73984 307.584 
z
" style="fill:#ff7f0e;"/>
   </g>
   <g id="patch_111">
    <path clip-path="url(#pd04a6f0540)" d="M 612.24704 307.584 
L 614.54848 307.584 
L 614.54848 307.584 
L 612.24704 307.584 
z
" style="fill:#ff7f0e;"/>
   </g>
   <g id="patch_112">
    <path clip-path="url(#pd04a6f0540)" d="M 623.75424 307.584 
L 626.05568 307.584 
L 626.05568 307.584 
L 623.75424 307.584 
z
" style="fill:#ff7f0e;"/>
   </g>
   <g id="patch_113">
    <path clip-path="url(#pd04a6f0540)" d="M 635.26144 307.584 
L 637.56288 307.584 
L 637.56288 307.584 
L 635.26144 307.584 
z
" style="fill:#ff7f0e;"/>
   </g>
   <g id="patch_114">
    <path clip-path="url(#pd04a6f0540)" d="M 646.76864 307.584 
L 649.07008 307.584 
L 649.07008 307.584 
L 646.76864 307.584 
z
" style="fill:#ff7f0e;"/>
   </g>
   <g id="patch_115">
    <path clip-path="url(#pd04a6f0540)" d="M 658.27584 307.584 
L 660.57728 307.584 
L 660.57728 307.584 
L 658.27584 307.584 
z
" style="fill:#ff7f0e;"/>
   </g>
   <g id="patch_116">
    <path clip-path="url(#pd04a6f0540)" d="M 669.78304 307.584 
L 672.08448 307.584 
L 672.08448 307.584 
L 669.78304 307.584 
z
" style="fill:#ff7f0e;"/>
   </g>
   <g id="patch_117">
    <path clip-path="url(#pd04a6f0540)" d="M 681.29024 307.584 
L 683.59168 307.584 
L 683.59168 307.584 
L 681.29024 307.584 
z
" style="fill:#ff7f0e;"/>
   </g>
   <g id="patch_118">
    <path clip-path="url(#pd04a6f0540)" d="M 692.79744 307.584 
L 695.09888 307.584 
L 695.09888 307.584 
L 692.79744 307.584 
z
" style="fill:#ff7f0e;"/>
   </g>
   <g id="patch_119">
    <path clip-path="url(#pd04a6f0540)" d="M 704.30464 307.584 
L 706.60608 307.584 
L 706.60608 307.584 
L 704.30464 307.584 
z
" style="fill:#ff7f0e;"/>
   </g>
   <g id="patch_120">
    <path clip-path="url(#pd04a6f0540)" d="M 715.81184 307.584 
L 718.11328 307.584 
L 718.11328 307.576414 
L 715.81184 307.576414 
z
" style="fill:#ff7f0e;"/>
   </g>
   <g id="patch_121">
    <path clip-path="url(#pd04a6f0540)" d="M 727.31904 307.584 
L 729.62048 307.584 
L 729.62048 307.584 
L 727.31904 307.584 
z
" style="fill:#ff7f0e;"/>
   </g>
   <g id="patch_122">
    <path clip-path="url(#pd04a6f0540)" d="M 738.82624 307.584 
L 741.12768 307.584 
L 741.12768 307.568827 
L 738.82624 307.568827 
z
" style="fill:#ff7f0e;"/>
   </g>
   <g id="patch_123">
    <path clip-path="url(#pd04a6f0540)" d="M 62.20288 307.584 
L 64.50432 307.584 
L 64.50432 203.89262 
L 62.20288 203.89262 
z
" style="fill:#2ca02c;"/>
   </g>
   <g id="patch_124">
    <path clip-path="url(#pd04a6f0540)" d="M 73.71008 307.584 
L 76.01152 307.584 
L 76.01152 307.584 
L 73.71008 307.584 
z
" style="fill:#2ca02c;"/>
   </g>
   <g id="patch_125">
    <path clip-path="url(#pd04a6f0540)" d="M 85.21728 307.584 
L 87.51872 307.584 
L 87.51872 250.685745 
L 85.21728 250.685745 
z
" style="fill:#2ca02c;"/>
   </g>
   <g id="patch_126">
    <path clip-path="url(#pd04a6f0540)" d="M 96.72448 307.584 
L 99.02592 307.584 
L 99.02592 307.584 
L 96.72448 307.584 
z
" style="fill:#2ca02c;"/>
   </g>
   <g id="patch_127">
    <path clip-path="url(#pd04a6f0540)" d="M 108.23168 307.584 
L 110.53312 307.584 
L 110.53312 264.591679 
L 108.23168 264.591679 
z
" style="fill:#2ca02c;"/>
   </g>
   <g id="patch_128">
    <path clip-path="url(#pd04a6f0540)" d="M 119.73888 307.584 
L 122.04032 307.584 
L 122.04032 307.584 
L 119.73888 307.584 
z
" style="fill:#2ca02c;"/>
   </g>
   <g id="patch_129">
    <path clip-path="url(#pd04a6f0540)" d="M 131.24608 307.584 
L 133.54752 307.584 
L 133.54752 275.425106 
L 131.24608 275.425106 
z
" style="fill:#2ca02c;"/>
   </g>
   <g id="patch_130">
    <path clip-path="url(#pd04a6f0540)" d="M 142.75328 307.584 
L 145.05472 307.584 
L 145.05472 307.584 
L 142.75328 307.584 
z
" style="fill:#2ca02c;"/>
   </g>
   <g id="patch_131">
    <path clip-path="url(#pd04a6f0540)" d="M 154.26048 307.584 
L 156.56192 307.584 
L 156.56192 285.62886 
L 154.26048 285.62886 
z
" style="fill:#2ca02c;"/>
   </g>
   <g id="patch_132">
    <path clip-path="url(#pd04a6f0540)" d="M 165.76768 307.584 
L 168.06912 307.584 
L 168.06912 307.584 
L 165.76768 307.584 
z
" style="fill:#2ca02c;"/>
   </g>
   <g id="patch_133">
    <path clip-path="url(#pd04a6f0540)" d="M 177.27488 307.584 
L 179.57632 307.584 
L 179.57632 292.555274 
L 177.27488 292.555274 
z
" style="fill:#2ca02c;"/>
   </g>
   <g id="patch_134">
    <path clip-path="url(#pd04a6f0540)" d="M 188.78208 307.584 
L 191.08352 307.584 
L 191.08352 307.584 
L 188.78208 307.584 
z
" style="fill:#2ca02c;"/>
   </g>
   <g id="patch_135">
    <path clip-path="url(#pd04a6f0540)" d="M 200.28928 307.584 
L 202.59072 307.584 
L 202.59072 297.319555 
L 200.28928 297.319555 
z
" style="fill:#2ca02c;"/>
   </g>
   <g id="patch_136">
    <path clip-path="url(#pd04a6f0540)" d="M 211.79648 307.584 
L 214.09792 307.584 
L 214.09792 307.584 
L 211.79648 307.584 
z
" style="fill:#2ca02c;"/>
   </g>
   <g id="patch_137">
    <path clip-path="url(#pd04a6f0540)" d="M 223.30368 307.584 
L 225.60512 307.584 
L 225.60512 300.551376 
L 223.30368 300.551376 
z
" style="fill:#2ca02c;"/>
   </g>
   <g id="patch_138">
    <path clip-path="url(#pd04a6f0540)" d="M 234.81088 307.584 
L 237.11232 307.584 
L 237.11232 307.584 
L 234.81088 307.584 
z
" style="fill:#2ca02c;"/>
   </g>
   <g id="patch_139">
    <path clip-path="url(#pd04a6f0540)" d="M 246.31808 307.584 
L 248.61952 307.584 
L 248.61952 302.743855 
L 246.31808 302.743855 
z
" style="fill:#2ca02c;"/>
   </g>
   <g id="patch_140">
    <path clip-path="url(#pd04a6f0540)" d="M 257.82528 307.584 
L 260.12672 307.584 
L 260.12672 307.584 
L 257.82528 307.584 
z
" style="fill:#2ca02c;"/>
   </g>
   <g id="patch_141">
    <path clip-path="url(#pd04a6f0540)" d="M 269.33248 307.584 
L 271.63392 307.584 
L 271.63392 304.807365 
L 269.33248 304.807365 
z
" style="fill:#2ca02c;"/>
   </g>
   <g id="patch_142">
    <path clip-path="url(#pd04a6f0540)" d="M 280.83968 307.584 
L 283.14112 307.584 
L 283.14112 307.584 
L 280.83968 307.584 
z
" style="fill:#2ca02c;"/>
   </g>
   <g id="patch_143">
    <path clip-path="url(#pd04a6f0540)" d="M 292.34688 307.584 
L 294.64832 307.584 
L 294.64832 305.755669 
L 292.34688 305.755669 
z
" style="fill:#2ca02c;"/>
   </g>
   <g id="patch_144">
    <path clip-path="url(#pd04a6f0540)" d="M 303.85408 307.584 
L 306.15552 307.584 
L 306.15552 307.584 
L 303.85408 307.584 
z
" style="fill:#2ca02c;"/>
   </g>
   <g id="patch_145">
    <path clip-path="url(#pd04a6f0540)" d="M 315.36128 307.584 
L 317.66272 307.584 
L 317.66272 306.377757 
L 315.36128 306.377757 
z
" style="fill:#2ca02c;"/>
   </g>
   <g id="patch_146">
    <path clip-path="url(#pd04a6f0540)" d="M 326.86848 307.584 
L 329.16992 307.584 
L 329.16992 307.584 
L 326.86848 307.584 
z
" style="fill:#2ca02c;"/>
   </g>
   <g id="patch_147">
    <path clip-path="url(#pd04a6f0540)" d="M 338.37568 307.584 
L 340.67712 307.584 
L 340.67712 306.779838 
L 338.37568 306.779838 
z
" style="fill:#2ca02c;"/>
   </g>
   <g id="patch_148">
    <path clip-path="url(#pd04a6f0540)" d="M 349.88288 307.584 
L 352.18432 307.584 
L 352.18432 307.584 
L 349.88288 307.584 
z
" style="fill:#2ca02c;"/>
   </g>
   <g id="patch_149">
    <path clip-path="url(#pd04a6f0540)" d="M 361.39008 307.584 
L 363.69152 307.584 
L 363.69152 307.068122 
L 361.39008 307.068122 
z
" style="fill:#2ca02c;"/>
   </g>
   <g id="patch_150">
    <path clip-path="url(#pd04a6f0540)" d="M 372.89728 307.584 
L 375.19872 307.584 
L 375.19872 307.584 
L 372.89728 307.584 
z
" style="fill:#2ca02c;"/>
   </g>
   <g id="patch_151">
    <path clip-path="url(#pd04a6f0540)" d="M 384.40448 307.584 
L 386.70592 307.584 
L 386.70592 307.106055 
L 384.40448 307.106055 
z
" style="fill:#2ca02c;"/>
   </g>
   <g id="patch_152">
    <path clip-path="url(#pd04a6f0540)" d="M 395.91168 307.584 
L 398.21312 307.584 
L 398.21312 307.584 
L 395.91168 307.584 
z
" style="fill:#2ca02c;"/>
   </g>
   <g id="patch_153">
    <path clip-path="url(#pd04a6f0540)" d="M 407.41888 307.584 
L 409.72032 307.584 
L 409.72032 307.584 
L 407.41888 307.584 
z
" style="fill:#2ca02c;"/>
   </g>
   <g id="patch_154">
    <path clip-path="url(#pd04a6f0540)" d="M 418.92608 307.584 
L 421.22752 307.584 
L 421.22752 307.341234 
L 418.92608 307.341234 
z
" style="fill:#2ca02c;"/>
   </g>
   <g id="patch_155">
    <path clip-path="url(#pd04a6f0540)" d="M 430.43328 307.584 
L 432.73472 307.584 
L 432.73472 307.584 
L 430.43328 307.584 
z
" style="fill:#2ca02c;"/>
   </g>
   <g id="patch_156">
    <path clip-path="url(#pd04a6f0540)" d="M 441.94048 307.584 
L 444.24192 307.584 
L 444.24192 307.470203 
L 441.94048 307.470203 
z
" style="fill:#2ca02c;"/>
   </g>
   <g id="patch_157">
    <path clip-path="url(#pd04a6f0540)" d="M 453.44768 307.584 
L 455.74912 307.584 
L 455.74912 307.584 
L 453.44768 307.584 
z
" style="fill:#2ca02c;"/>
   </g>
   <g id="patch_158">
    <path clip-path="url(#pd04a6f0540)" d="M 464.95488 307.584 
L 467.25632 307.584 
L 467.25632 307.432271 
L 464.95488 307.432271 
z
" style="fill:#2ca02c;"/>
   </g>
   <g id="patch_159">
    <path clip-path="url(#pd04a6f0540)" d="M 476.46208 307.584 
L 478.76352 307.584 
L 478.76352 307.584 
L 476.46208 307.584 
z
" style="fill:#2ca02c;"/>
   </g>
   <g id="patch_160">
    <path clip-path="url(#pd04a6f0540)" d="M 487.96928 307.584 
L 490.27072 307.584 
L 490.27072 307.470203 
L 487.96928 307.470203 
z
" style="fill:#2ca02c;"/>
   </g>
   <g id="patch_161">
    <path clip-path="url(#pd04a6f0540)" d="M 499.47648 307.584 
L 501.77792 307.584 
L 501.77792 307.584 
L 499.47648 307.584 
z
" style="fill:#2ca02c;"/>
   </g>
   <g id="patch_162">
    <path clip-path="url(#pd04a6f0540)" d="M 510.98368 307.584 
L 513.28512 307.584 
L 513.28512 307.47779 
L 510.98368 307.47779 
z
" style="fill:#2ca02c;"/>
   </g>
   <g id="patch_163">
    <path clip-path="url(#pd04a6f0540)" d="M 522.49088 307.584 
L 524.79232 307.584 
L 524.79232 307.584 
L 522.49088 307.584 
z
" style="fill:#2ca02c;"/>
   </g>
   <g id="patch_164">
    <path clip-path="url(#pd04a6f0540)" d="M 533.99808 307.584 
L 536.29952 307.584 
L 536.29952 307.568827 
L 533.99808 307.568827 
z
" style="fill:#2ca02c;"/>
   </g>
   <g id="patch_165">
    <path clip-path="url(#pd04a6f0540)" d="M 545.50528 307.584 
L 547.80672 307.584 
L 547.80672 307.584 
L 545.50528 307.584 
z
" style="fill:#2ca02c;"/>
   </g>
   <g id="patch_166">
    <path clip-path="url(#pd04a6f0540)" d="M 557.01248 307.584 
L 559.31392 307.584 
L 559.31392 307.561241 
L 557.01248 307.561241 
z
" style="fill:#2ca02c;"/>
   </g>
   <g id="patch_167">
    <path clip-path="url(#pd04a6f0540)" d="M 568.51968 307.584 
L 570.82112 307.584 
L 570.82112 307.584 
L 568.51968 307.584 
z
" style="fill:#2ca02c;"/>
   </g>
   <g id="patch_168">
    <path clip-path="url(#pd04a6f0540)" d="M 580.02688 307.584 
L 582.32832 307.584 
L 582.32832 307.576414 
L 580.02688 307.576414 
z
" style="fill:#2ca02c;"/>
   </g>
   <g id="patch_169">
    <path clip-path="url(#pd04a6f0540)" d="M 591.53408 307.584 
L 593.83552 307.584 
L 593.83552 307.584 
L 591.53408 307.584 
z
" style="fill:#2ca02c;"/>
   </g>
   <g id="patch_170">
    <path clip-path="url(#pd04a6f0540)" d="M 603.04128 307.584 
L 605.34272 307.584 
L 605.34272 307.568827 
L 603.04128 307.568827 
z
" style="fill:#2ca02c;"/>
   </g>
   <g id="patch_171">
    <path clip-path="url(#pd04a6f0540)" d="M 614.54848 307.584 
L 616.84992 307.584 
L 616.84992 307.584 
L 614.54848 307.584 
z
" style="fill:#2ca02c;"/>
   </g>
   <g id="patch_172">
    <path clip-path="url(#pd04a6f0540)" d="M 626.05568 307.584 
L 628.35712 307.584 
L 628.35712 307.584 
L 626.05568 307.584 
z
" style="fill:#2ca02c;"/>
   </g>
   <g id="patch_173">
    <path clip-path="url(#pd04a6f0540)" d="M 637.56288 307.584 
L 639.86432 307.584 
L 639.86432 307.584 
L 637.56288 307.584 
z
" style="fill:#2ca02c;"/>
   </g>
   <g id="patch_174">
    <path clip-path="url(#pd04a6f0540)" d="M 649.07008 307.584 
L 651.37152 307.584 
L 651.37152 307.576414 
L 649.07008 307.576414 
z
" style="fill:#2ca02c;"/>
   </g>
   <g id="patch_175">
    <path clip-path="url(#pd04a6f0540)" d="M 660.57728 307.584 
L 662.87872 307.584 
L 662.87872 307.584 
L 660.57728 307.584 
z
" style="fill:#2ca02c;"/>
   </g>
   <g id="patch_176">
    <path clip-path="url(#pd04a6f0540)" d="M 672.08448 307.584 
L 674.38592 307.584 
L 674.38592 307.576414 
L 672.08448 307.576414 
z
" style="fill:#2ca02c;"/>
   </g>
   <g id="patch_177">
    <path clip-path="url(#pd04a6f0540)" d="M 683.59168 307.584 
L 685.89312 307.584 
L 685.89312 307.584 
L 683.59168 307.584 
z
" style="fill:#2ca02c;"/>
   </g>
   <g id="patch_178">
    <path clip-path="url(#pd04a6f0540)" d="M 695.09888 307.584 
L 697.40032 307.584 
L 697.40032 307.584 
L 695.09888 307.584 
z
" style="fill:#2ca02c;"/>
   </g>
   <g id="patch_179">
    <path clip-path="url(#pd04a6f0540)" d="M 706.60608 307.584 
L 708.90752 307.584 
L 708.90752 307.584 
L 706.60608 307.584 
z
" style="fill:#2ca02c;"/>
   </g>
   <g id="patch_180">
    <path clip-path="url(#pd04a6f0540)" d="M 718.11328 307.584 
L 720.41472 307.584 
L 720.41472 307.576414 
L 718.11328 307.576414 
z
" style="fill:#2ca02c;"/>
   </g>
   <g id="patch_181">
    <path clip-path="url(#pd04a6f0540)" d="M 729.62048 307.584 
L 731.92192 307.584 
L 731.92192 307.584 
L 729.62048 307.584 
z
" style="fill:#2ca02c;"/>
   </g>
   <g id="patch_182">
    <path clip-path="url(#pd04a6f0540)" d="M 741.12768 307.584 
L 743.42912 307.584 
L 743.42912 307.568827 
L 741.12768 307.568827 
z
" style="fill:#2ca02c;"/>
   </g>
   <g id="patch_183">
    <path clip-path="url(#pd04a6f0540)" d="M 64.50432 307.584 
L 66.80576 307.584 
L 66.80576 203.89262 
L 64.50432 203.89262 
z
" style="fill:#d62728;"/>
   </g>
   <g id="patch_184">
    <path clip-path="url(#pd04a6f0540)" d="M 76.01152 307.584 
L 78.31296 307.584 
L 78.31296 307.584 
L 76.01152 307.584 
z
" style="fill:#d62728;"/>
   </g>
   <g id="patch_185">
    <path clip-path="url(#pd04a6f0540)" d="M 87.51872 307.584 
L 89.82016 307.584 
L 89.82016 250.685745 
L 87.51872 250.685745 
z
" style="fill:#d62728;"/>
   </g>
   <g id="patch_186">
    <path clip-path="url(#pd04a6f0540)" d="M 99.02592 307.584 
L 101.32736 307.584 
L 101.32736 307.584 
L 99.02592 307.584 
z
" style="fill:#d62728;"/>
   </g>
   <g id="patch_187">
    <path clip-path="url(#pd04a6f0540)" d="M 110.53312 307.584 
L 112.83456 307.584 
L 112.83456 264.591679 
L 110.53312 264.591679 
z
" style="fill:#d62728;"/>
   </g>
   <g id="patch_188">
    <path clip-path="url(#pd04a6f0540)" d="M 122.04032 307.584 
L 124.34176 307.584 
L 124.34176 307.584 
L 122.04032 307.584 
z
" style="fill:#d62728;"/>
   </g>
   <g id="patch_189">
    <path clip-path="url(#pd04a6f0540)" d="M 133.54752 307.584 
L 135.84896 307.584 
L 135.84896 275.425106 
L 133.54752 275.425106 
z
" style="fill:#d62728;"/>
   </g>
   <g id="patch_190">
    <path clip-path="url(#pd04a6f0540)" d="M 145.05472 307.584 
L 147.35616 307.584 
L 147.35616 307.584 
L 145.05472 307.584 
z
" style="fill:#d62728;"/>
   </g>
   <g id="patch_191">
    <path clip-path="url(#pd04a6f0540)" d="M 156.56192 307.584 
L 158.86336 307.584 
L 158.86336 285.62886 
L 156.56192 285.62886 
z
" style="fill:#d62728;"/>
   </g>
   <g id="patch_192">
    <path clip-path="url(#pd04a6f0540)" d="M 168.06912 307.584 
L 170.37056 307.584 
L 170.37056 307.584 
L 168.06912 307.584 
z
" style="fill:#d62728;"/>
   </g>
   <g id="patch_193">
    <path clip-path="url(#pd04a6f0540)" d="M 179.57632 307.584 
L 181.87776 307.584 
L 181.87776 292.555274 
L 179.57632 292.555274 
z
" style="fill:#d62728;"/>
   </g>
   <g id="patch_194">
    <path clip-path="url(#pd04a6f0540)" d="M 191.08352 307.584 
L 193.38496 307.584 
L 193.38496 307.584 
L 191.08352 307.584 
z
" style="fill:#d62728;"/>
   </g>
   <g id="patch_195">
    <path clip-path="url(#pd04a6f0540)" d="M 202.59072 307.584 
L 204.89216 307.584 
L 204.89216 297.319555 
L 202.59072 297.319555 
z
" style="fill:#d62728;"/>
   </g>
   <g id="patch_196">
    <path clip-path="url(#pd04a6f0540)" d="M 214.09792 307.584 
L 216.39936 307.584 
L 216.39936 307.584 
L 214.09792 307.584 
z
" style="fill:#d62728;"/>
   </g>
   <g id="patch_197">
    <path clip-path="url(#pd04a6f0540)" d="M 225.60512 307.584 
L 227.90656 307.584 
L 227.90656 300.551376 
L 225.60512 300.551376 
z
" style="fill:#d62728;"/>
   </g>
   <g id="patch_198">
    <path clip-path="url(#pd04a6f0540)" d="M 237.11232 307.584 
L 239.41376 307.584 
L 239.41376 307.584 
L 237.11232 307.584 
z
" style="fill:#d62728;"/>
   </g>
   <g id="patch_199">
    <path clip-path="url(#pd04a6f0540)" d="M 248.61952 307.584 
L 250.92096 307.584 
L 250.92096 302.743855 
L 248.61952 302.743855 
z
" style="fill:#d62728;"/>
   </g>
   <g id="patch_200">
    <path clip-path="url(#pd04a6f0540)" d="M 260.12672 307.584 
L 262.42816 307.584 
L 262.42816 307.584 
L 260.12672 307.584 
z
" style="fill:#d62728;"/>
   </g>
   <g id="patch_201">
    <path clip-path="url(#pd04a6f0540)" d="M 271.63392 307.584 
L 273.93536 307.584 
L 273.93536 304.807365 
L 271.63392 304.807365 
z
" style="fill:#d62728;"/>
   </g>
   <g id="patch_202">
    <path clip-path="url(#pd04a6f0540)" d="M 283.14112 307.584 
L 285.44256 307.584 
L 285.44256 307.584 
L 283.14112 307.584 
z
" style="fill:#d62728;"/>
   </g>
   <g id="patch_203">
    <path clip-path="url(#pd04a6f0540)" d="M 294.64832 307.584 
L 296.94976 307.584 
L 296.94976 305.755669 
L 294.64832 305.755669 
z
" style="fill:#d62728;"/>
   </g>
   <g id="patch_204">
    <path clip-path="url(#pd04a6f0540)" d="M 306.15552 307.584 
L 308.45696 307.584 
L 308.45696 307.584 
L 306.15552 307.584 
z
" style="fill:#d62728;"/>
   </g>
   <g id="patch_205">
    <path clip-path="url(#pd04a6f0540)" d="M 317.66272 307.584 
L 319.96416 307.584 
L 319.96416 306.377757 
L 317.66272 306.377757 
z
" style="fill:#d62728;"/>
   </g>
   <g id="patch_206">
    <path clip-path="url(#pd04a6f0540)" d="M 329.16992 307.584 
L 331.47136 307.584 
L 331.47136 307.584 
L 329.16992 307.584 
z
" style="fill:#d62728;"/>
   </g>
   <g id="patch_207">
    <path clip-path="url(#pd04a6f0540)" d="M 340.67712 307.584 
L 342.97856 307.584 
L 342.97856 306.779838 
L 340.67712 306.779838 
z
" style="fill:#d62728;"/>
   </g>
   <g id="patch_208">
    <path clip-path="url(#pd04a6f0540)" d="M 352.18432 307.584 
L 354.48576 307.584 
L 354.48576 307.584 
L 352.18432 307.584 
z
" style="fill:#d62728;"/>
   </g>
   <g id="patch_209">
    <path clip-path="url(#pd04a6f0540)" d="M 363.69152 307.584 
L 365.99296 307.584 
L 365.99296 307.068122 
L 363.69152 307.068122 
z
" style="fill:#d62728;"/>
   </g>
   <g id="patch_210">
    <path clip-path="url(#pd04a6f0540)" d="M 375.19872 307.584 
L 377.50016 307.584 
L 377.50016 307.584 
L 375.19872 307.584 
z
" style="fill:#d62728;"/>
   </g>
   <g id="patch_211">
    <path clip-path="url(#pd04a6f0540)" d="M 386.70592 307.584 
L 389.00736 307.584 
L 389.00736 307.106055 
L 386.70592 307.106055 
z
" style="fill:#d62728;"/>
   </g>
   <g id="patch_212">
    <path clip-path="url(#pd04a6f0540)" d="M 398.21312 307.584 
L 400.51456 307.584 
L 400.51456 307.584 
L 398.21312 307.584 
z
" style="fill:#d62728;"/>
   </g>
   <g id="patch_213">
    <path clip-path="url(#pd04a6f0540)" d="M 409.72032 307.584 
L 412.02176 307.584 
L 412.02176 307.584 
L 409.72032 307.584 
z
" style="fill:#d62728;"/>
   </g>
   <g id="patch_214">
    <path clip-path="url(#pd04a6f0540)" d="M 421.22752 307.584 
L 423.52896 307.584 
L 423.52896 307.341234 
L 421.22752 307.341234 
z
" style="fill:#d62728;"/>
   </g>
   <g id="patch_215">
    <path clip-path="url(#pd04a6f0540)" d="M 432.73472 307.584 
L 435.03616 307.584 
L 435.03616 307.584 
L 432.73472 307.584 
z
" style="fill:#d62728;"/>
   </g>
   <g id="patch_216">
    <path clip-path="url(#pd04a6f0540)" d="M 444.24192 307.584 
L 446.54336 307.584 
L 446.54336 307.470203 
L 444.24192 307.470203 
z
" style="fill:#d62728;"/>
   </g>
   <g id="patch_217">
    <path clip-path="url(#pd04a6f0540)" d="M 455.74912 307.584 
L 458.05056 307.584 
L 458.05056 307.584 
L 455.74912 307.584 
z
" style="fill:#d62728;"/>
   </g>
   <g id="patch_218">
    <path clip-path="url(#pd04a6f0540)" d="M 467.25632 307.584 
L 469.55776 307.584 
L 469.55776 307.432271 
L 467.25632 307.432271 
z
" style="fill:#d62728;"/>
   </g>
   <g id="patch_219">
    <path clip-path="url(#pd04a6f0540)" d="M 478.76352 307.584 
L 481.06496 307.584 
L 481.06496 307.584 
L 478.76352 307.584 
z
" style="fill:#d62728;"/>
   </g>
   <g id="patch_220">
    <path clip-path="url(#pd04a6f0540)" d="M 490.27072 307.584 
L 492.57216 307.584 
L 492.57216 307.470203 
L 490.27072 307.470203 
z
" style="fill:#d62728;"/>
   </g>
   <g id="patch_221">
    <path clip-path="url(#pd04a6f0540)" d="M 501.77792 307.584 
L 504.07936 307.584 
L 504.07936 307.584 
L 501.77792 307.584 
z
" style="fill:#d62728;"/>
   </g>
   <g id="patch_222">
    <path clip-path="url(#pd04a6f0540)" d="M 513.28512 307.584 
L 515.58656 307.584 
L 515.58656 307.47779 
L 513.28512 307.47779 
z
" style="fill:#d62728;"/>
   </g>
   <g id="patch_223">
    <path clip-path="url(#pd04a6f0540)" d="M 524.79232 307.584 
L 527.09376 307.584 
L 527.09376 307.584 
L 524.79232 307.584 
z
" style="fill:#d62728;"/>
   </g>
   <g id="patch_224">
    <path clip-path="url(#pd04a6f0540)" d="M 536.29952 307.584 
L 538.60096 307.584 
L 538.60096 307.568827 
L 536.29952 307.568827 
z
" style="fill:#d62728;"/>
   </g>
   <g id="patch_225">
    <path clip-path="url(#pd04a6f0540)" d="M 547.80672 307.584 
L 550.10816 307.584 
L 550.10816 307.584 
L 547.80672 307.584 
z
" style="fill:#d62728;"/>
   </g>
   <g id="patch_226">
    <path clip-path="url(#pd04a6f0540)" d="M 559.31392 307.584 
L 561.61536 307.584 
L 561.61536 307.561241 
L 559.31392 307.561241 
z
" style="fill:#d62728;"/>
   </g>
   <g id="patch_227">
    <path clip-path="url(#pd04a6f0540)" d="M 570.82112 307.584 
L 573.12256 307.584 
L 573.12256 307.584 
L 570.82112 307.584 
z
" style="fill:#d62728;"/>
   </g>
   <g id="patch_228">
    <path clip-path="url(#pd04a6f0540)" d="M 582.32832 307.584 
L 584.62976 307.584 
L 584.62976 307.576414 
L 582.32832 307.576414 
z
" style="fill:#d62728;"/>
   </g>
   <g id="patch_229">
    <path clip-path="url(#pd04a6f0540)" d="M 593.83552 307.584 
L 596.13696 307.584 
L 596.13696 307.584 
L 593.83552 307.584 
z
" style="fill:#d62728;"/>
   </g>
   <g id="patch_230">
    <path clip-path="url(#pd04a6f0540)" d="M 605.34272 307.584 
L 607.64416 307.584 
L 607.64416 307.568827 
L 605.34272 307.568827 
z
" style="fill:#d62728;"/>
   </g>
   <g id="patch_231">
    <path clip-path="url(#pd04a6f0540)" d="M 616.84992 307.584 
L 619.15136 307.584 
L 619.15136 307.584 
L 616.84992 307.584 
z
" style="fill:#d62728;"/>
   </g>
   <g id="patch_232">
    <path clip-path="url(#pd04a6f0540)" d="M 628.35712 307.584 
L 630.65856 307.584 
L 630.65856 307.584 
L 628.35712 307.584 
z
" style="fill:#d62728;"/>
   </g>
   <g id="patch_233">
    <path clip-path="url(#pd04a6f0540)" d="M 639.86432 307.584 
L 642.16576 307.584 
L 642.16576 307.584 
L 639.86432 307.584 
z
" style="fill:#d62728;"/>
   </g>
   <g id="patch_234">
    <path clip-path="url(#pd04a6f0540)" d="M 651.37152 307.584 
L 653.67296 307.584 
L 653.67296 307.576414 
L 651.37152 307.576414 
z
" style="fill:#d62728;"/>
   </g>
   <g id="patch_235">
    <path clip-path="url(#pd04a6f0540)" d="M 662.87872 307.584 
L 665.18016 307.584 
L 665.18016 307.584 
L 662.87872 307.584 
z
" style="fill:#d62728;"/>
   </g>
   <g id="patch_236">
    <path clip-path="url(#pd04a6f0540)" d="M 674.38592 307.584 
L 676.68736 307.584 
L 676.68736 307.576414 
L 674.38592 307.576414 
z
" style="fill:#d62728;"/>
   </g>
   <g id="patch_237">
    <path clip-path="url(#pd04a6f0540)" d="M 685.89312 307.584 
L 688.19456 307.584 
L 688.19456 307.584 
L 685.89312 307.584 
z
" style="fill:#d62728;"/>
   </g>
   <g id="patch_238">
    <path clip-path="url(#pd04a6f0540)" d="M 697.40032 307.584 
L 699.70176 307.584 
L 699.70176 307.584 
L 697.40032 307.584 
z
" style="fill:#d62728;"/>
   </g>
   <g id="patch_239">
    <path clip-path="url(#pd04a6f0540)" d="M 708.90752 307.584 
L 711.20896 307.584 
L 711.20896 307.584 
L 708.90752 307.584 
z
" style="fill:#d62728;"/>
   </g>
   <g id="patch_240">
    <path clip-path="url(#pd04a6f0540)" d="M 720.41472 307.584 
L 722.71616 307.584 
L 722.71616 307.576414 
L 720.41472 307.576414 
z
" style="fill:#d62728;"/>
   </g>
   <g id="patch_241">
    <path clip-path="url(#pd04a6f0540)" d="M 731.92192 307.584 
L 734.22336 307.584 
L 734.22336 307.584 
L 731.92192 307.584 
z
" style="fill:#d62728;"/>
   </g>
   <g id="patch_242">
    <path clip-path="url(#pd04a6f0540)" d="M 743.42912 307.584 
L 745.73056 307.584 
L 745.73056 307.568827 
L 743.42912 307.568827 
z
" style="fill:#d62728;"/>
   </g>
   <g id="patch_243">
    <path clip-path="url(#pd04a6f0540)" d="M 66.80576 307.584 
L 69.1072 307.584 
L 69.1072 209.696242 
L 66.80576 209.696242 
z
" style="fill:#9467bd;"/>
   </g>
   <g id="patch_244">
    <path clip-path="url(#pd04a6f0540)" d="M 78.31296 307.584 
L 80.6144 307.584 
L 80.6144 307.584 
L 78.31296 307.584 
z
" style="fill:#9467bd;"/>
   </g>
   <g id="patch_245">
    <path clip-path="url(#pd04a6f0540)" d="M 89.82016 307.584 
L 92.1216 307.584 
L 92.1216 251.376111 
L 89.82016 251.376111 
z
" style="fill:#9467bd;"/>
   </g>
   <g id="patch_246">
    <path clip-path="url(#pd04a6f0540)" d="M 101.32736 307.584 
L 103.6288 307.584 
L 103.6288 307.584 
L 101.32736 307.584 
z
" style="fill:#9467bd;"/>
   </g>
   <g id="patch_247">
    <path clip-path="url(#pd04a6f0540)" d="M 112.83456 307.584 
L 115.136 307.584 
L 115.136 264.295808 
L 112.83456 264.295808 
z
" style="fill:#9467bd;"/>
   </g>
   <g id="patch_248">
    <path clip-path="url(#pd04a6f0540)" d="M 124.34176 307.584 
L 126.6432 307.584 
L 126.6432 307.584 
L 124.34176 307.584 
z
" style="fill:#9467bd;"/>
   </g>
   <g id="patch_249">
    <path clip-path="url(#pd04a6f0540)" d="M 135.84896 307.584 
L 138.1504 307.584 
L 138.1504 274.681636 
L 135.84896 274.681636 
z
" style="fill:#9467bd;"/>
   </g>
   <g id="patch_250">
    <path clip-path="url(#pd04a6f0540)" d="M 147.35616 307.584 
L 149.6576 307.584 
L 149.6576 307.584 
L 147.35616 307.584 
z
" style="fill:#9467bd;"/>
   </g>
   <g id="patch_251">
    <path clip-path="url(#pd04a6f0540)" d="M 158.86336 307.584 
L 161.1648 307.584 
L 161.1648 284.210197 
L 158.86336 284.210197 
z
" style="fill:#9467bd;"/>
   </g>
   <g id="patch_252">
    <path clip-path="url(#pd04a6f0540)" d="M 170.37056 307.584 
L 172.672 307.584 
L 172.672 307.584 
L 170.37056 307.584 
z
" style="fill:#9467bd;"/>
   </g>
   <g id="patch_253">
    <path clip-path="url(#pd04a6f0540)" d="M 181.87776 307.584 
L 184.1792 307.584 
L 184.1792 291.652489 
L 181.87776 291.652489 
z
" style="fill:#9467bd;"/>
   </g>
   <g id="patch_254">
    <path clip-path="url(#pd04a6f0540)" d="M 193.38496 307.584 
L 195.6864 307.584 
L 195.6864 307.584 
L 193.38496 307.584 
z
" style="fill:#9467bd;"/>
   </g>
   <g id="patch_255">
    <path clip-path="url(#pd04a6f0540)" d="M 204.89216 307.584 
L 207.1936 307.584 
L 207.1936 296.401596 
L 204.89216 296.401596 
z
" style="fill:#9467bd;"/>
   </g>
   <g id="patch_256">
    <path clip-path="url(#pd04a6f0540)" d="M 216.39936 307.584 
L 218.7008 307.584 
L 218.7008 307.584 
L 216.39936 307.584 
z
" style="fill:#9467bd;"/>
   </g>
   <g id="patch_257">
    <path clip-path="url(#pd04a6f0540)" d="M 227.90656 307.584 
L 230.208 307.584 
L 230.208 299.96722 
L 227.90656 299.96722 
z
" style="fill:#9467bd;"/>
   </g>
   <g id="patch_258">
    <path clip-path="url(#pd04a6f0540)" d="M 239.41376 307.584 
L 241.7152 307.584 
L 241.7152 307.584 
L 239.41376 307.584 
z
" style="fill:#9467bd;"/>
   </g>
   <g id="patch_259">
    <path clip-path="url(#pd04a6f0540)" d="M 250.92096 307.584 
L 253.2224 307.584 
L 253.2224 302.311428 
L 250.92096 302.311428 
z
" style="fill:#9467bd;"/>
   </g>
   <g id="patch_260">
    <path clip-path="url(#pd04a6f0540)" d="M 262.42816 307.584 
L 264.7296 307.584 
L 264.7296 307.584 
L 262.42816 307.584 
z
" style="fill:#9467bd;"/>
   </g>
   <g id="patch_261">
    <path clip-path="url(#pd04a6f0540)" d="M 273.93536 307.584 
L 276.2368 307.584 
L 276.2368 304.465976 
L 273.93536 304.465976 
z
" style="fill:#9467bd;"/>
   </g>
   <g id="patch_262">
    <path clip-path="url(#pd04a6f0540)" d="M 285.44256 307.584 
L 287.744 307.584 
L 287.744 307.584 
L 285.44256 307.584 
z
" style="fill:#9467bd;"/>
   </g>
   <g id="patch_263">
    <path clip-path="url(#pd04a6f0540)" d="M 296.94976 307.584 
L 299.2512 307.584 
L 299.2512 305.558422 
L 296.94976 305.558422 
z
" style="fill:#9467bd;"/>
   </g>
   <g id="patch_264">
    <path clip-path="url(#pd04a6f0540)" d="M 308.45696 307.584 
L 310.7584 307.584 
L 310.7584 307.584 
L 308.45696 307.584 
z
" style="fill:#9467bd;"/>
   </g>
   <g id="patch_265">
    <path clip-path="url(#pd04a6f0540)" d="M 319.96416 307.584 
L 322.2656 307.584 
L 322.2656 306.127405 
L 319.96416 306.127405 
z
" style="fill:#9467bd;"/>
   </g>
   <g id="patch_266">
    <path clip-path="url(#pd04a6f0540)" d="M 331.47136 307.584 
L 333.7728 307.584 
L 333.7728 307.584 
L 331.47136 307.584 
z
" style="fill:#9467bd;"/>
   </g>
   <g id="patch_267">
    <path clip-path="url(#pd04a6f0540)" d="M 342.97856 307.584 
L 345.28 307.584 
L 345.28 306.666041 
L 342.97856 306.666041 
z
" style="fill:#9467bd;"/>
   </g>
   <g id="patch_268">
    <path clip-path="url(#pd04a6f0540)" d="M 354.48576 307.584 
L 356.7872 307.584 
L 356.7872 307.584 
L 354.48576 307.584 
z
" style="fill:#9467bd;"/>
   </g>
   <g id="patch_269">
    <path clip-path="url(#pd04a6f0540)" d="M 365.99296 307.584 
L 368.2944 307.584 
L 368.2944 306.961912 
L 365.99296 306.961912 
z
" style="fill:#9467bd;"/>
   </g>
   <g id="patch_270">
    <path clip-path="url(#pd04a6f0540)" d="M 377.50016 307.584 
L 379.8016 307.584 
L 379.8016 307.584 
L 377.50016 307.584 
z
" style="fill:#9467bd;"/>
   </g>
   <g id="patch_271">
    <path clip-path="url(#pd04a6f0540)" d="M 389.00736 307.584 
L 391.3088 307.584 
L 391.3088 307.075709 
L 389.00736 307.075709 
z
" style="fill:#9467bd;"/>
   </g>
   <g id="patch_272">
    <path clip-path="url(#pd04a6f0540)" d="M 400.51456 307.584 
L 402.816 307.584 
L 402.816 307.584 
L 400.51456 307.584 
z
" style="fill:#9467bd;"/>
   </g>
   <g id="patch_273">
    <path clip-path="url(#pd04a6f0540)" d="M 412.02176 307.584 
L 414.3232 307.584 
L 414.3232 307.584 
L 412.02176 307.584 
z
" style="fill:#9467bd;"/>
   </g>
   <g id="patch_274">
    <path clip-path="url(#pd04a6f0540)" d="M 423.52896 307.584 
L 425.8304 307.584 
L 425.8304 307.303302 
L 423.52896 307.303302 
z
" style="fill:#9467bd;"/>
   </g>
   <g id="patch_275">
    <path clip-path="url(#pd04a6f0540)" d="M 435.03616 307.584 
L 437.3376 307.584 
L 437.3376 307.584 
L 435.03616 307.584 
z
" style="fill:#9467bd;"/>
   </g>
   <g id="patch_276">
    <path clip-path="url(#pd04a6f0540)" d="M 446.54336 307.584 
L 448.8448 307.584 
L 448.8448 307.394339 
L 446.54336 307.394339 
z
" style="fill:#9467bd;"/>
   </g>
   <g id="patch_277">
    <path clip-path="url(#pd04a6f0540)" d="M 458.05056 307.584 
L 460.352 307.584 
L 460.352 307.584 
L 458.05056 307.584 
z
" style="fill:#9467bd;"/>
   </g>
   <g id="patch_278">
    <path clip-path="url(#pd04a6f0540)" d="M 469.55776 307.584 
L 471.8592 307.584 
L 471.8592 307.424685 
L 469.55776 307.424685 
z
" style="fill:#9467bd;"/>
   </g>
   <g id="patch_279">
    <path clip-path="url(#pd04a6f0540)" d="M 481.06496 307.584 
L 483.3664 307.584 
L 483.3664 307.584 
L 481.06496 307.584 
z
" style="fill:#9467bd;"/>
   </g>
   <g id="patch_280">
    <path clip-path="url(#pd04a6f0540)" d="M 492.57216 307.584 
L 494.8736 307.584 
L 494.8736 307.462617 
L 492.57216 307.462617 
z
" style="fill:#9467bd;"/>
   </g>
   <g id="patch_281">
    <path clip-path="url(#pd04a6f0540)" d="M 504.07936 307.584 
L 506.3808 307.584 
L 506.3808 307.584 
L 504.07936 307.584 
z
" style="fill:#9467bd;"/>
   </g>
   <g id="patch_282">
    <path clip-path="url(#pd04a6f0540)" d="M 515.58656 307.584 
L 517.888 307.584 
L 517.888 307.47779 
L 515.58656 307.47779 
z
" style="fill:#9467bd;"/>
   </g>
   <g id="patch_283">
    <path clip-path="url(#pd04a6f0540)" d="M 527.09376 307.584 
L 529.3952 307.584 
L 529.3952 307.584 
L 527.09376 307.584 
z
" style="fill:#9467bd;"/>
   </g>
   <g id="patch_284">
    <path clip-path="url(#pd04a6f0540)" d="M 538.60096 307.584 
L 540.9024 307.584 
L 540.9024 307.561241 
L 538.60096 307.561241 
z
" style="fill:#9467bd;"/>
   </g>
   <g id="patch_285">
    <path clip-path="url(#pd04a6f0540)" d="M 550.10816 307.584 
L 552.4096 307.584 
L 552.4096 307.584 
L 550.10816 307.584 
z
" style="fill:#9467bd;"/>
   </g>
   <g id="patch_286">
    <path clip-path="url(#pd04a6f0540)" d="M 561.61536 307.584 
L 563.9168 307.584 
L 563.9168 307.553654 
L 561.61536 307.553654 
z
" style="fill:#9467bd;"/>
   </g>
   <g id="patch_287">
    <path clip-path="url(#pd04a6f0540)" d="M 573.12256 307.584 
L 575.424 307.584 
L 575.424 307.584 
L 573.12256 307.584 
z
" style="fill:#9467bd;"/>
   </g>
   <g id="patch_288">
    <path clip-path="url(#pd04a6f0540)" d="M 584.62976 307.584 
L 586.9312 307.584 
L 586.9312 307.568827 
L 584.62976 307.568827 
z
" style="fill:#9467bd;"/>
   </g>
   <g id="patch_289">
    <path clip-path="url(#pd04a6f0540)" d="M 596.13696 307.584 
L 598.4384 307.584 
L 598.4384 307.584 
L 596.13696 307.584 
z
" style="fill:#9467bd;"/>
   </g>
   <g id="patch_290">
    <path clip-path="url(#pd04a6f0540)" d="M 607.64416 307.584 
L 609.9456 307.584 
L 609.9456 307.584 
L 607.64416 307.584 
z
" style="fill:#9467bd;"/>
   </g>
   <g id="patch_291">
    <path clip-path="url(#pd04a6f0540)" d="M 619.15136 307.584 
L 621.4528 307.584 
L 621.4528 307.584 
L 619.15136 307.584 
z
" style="fill:#9467bd;"/>
   </g>
   <g id="patch_292">
    <path clip-path="url(#pd04a6f0540)" d="M 630.65856 307.584 
L 632.96 307.584 
L 632.96 307.576414 
L 630.65856 307.576414 
z
" style="fill:#9467bd;"/>
   </g>
   <g id="patch_293">
    <path clip-path="url(#pd04a6f0540)" d="M 642.16576 307.584 
L 644.4672 307.584 
L 644.4672 307.584 
L 642.16576 307.584 
z
" style="fill:#9467bd;"/>
   </g>
   <g id="patch_294">
    <path clip-path="url(#pd04a6f0540)" d="M 653.67296 307.584 
L 655.9744 307.584 
L 655.9744 307.576414 
L 653.67296 307.576414 
z
" style="fill:#9467bd;"/>
   </g>
   <g id="patch_295">
    <path clip-path="url(#pd04a6f0540)" d="M 665.18016 307.584 
L 667.4816 307.584 
L 667.4816 307.584 
L 665.18016 307.584 
z
" style="fill:#9467bd;"/>
   </g>
   <g id="patch_296">
    <path clip-path="url(#pd04a6f0540)" d="M 676.68736 307.584 
L 678.9888 307.584 
L 678.9888 307.568827 
L 676.68736 307.568827 
z
" style="fill:#9467bd;"/>
   </g>
   <g id="patch_297">
    <path clip-path="url(#pd04a6f0540)" d="M 688.19456 307.584 
L 690.496 307.584 
L 690.496 307.584 
L 688.19456 307.584 
z
" style="fill:#9467bd;"/>
   </g>
   <g id="patch_298">
    <path clip-path="url(#pd04a6f0540)" d="M 699.70176 307.584 
L 702.0032 307.584 
L 702.0032 307.584 
L 699.70176 307.584 
z
" style="fill:#9467bd;"/>
   </g>
   <g id="patch_299">
    <path clip-path="url(#pd04a6f0540)" d="M 711.20896 307.584 
L 713.5104 307.584 
L 713.5104 307.584 
L 711.20896 307.584 
z
" style="fill:#9467bd;"/>
   </g>
   <g id="patch_300">
    <path clip-path="url(#pd04a6f0540)" d="M 722.71616 307.584 
L 725.0176 307.584 
L 725.0176 307.568827 
L 722.71616 307.568827 
z
" style="fill:#9467bd;"/>
   </g>
   <g id="patch_301">
    <path clip-path="url(#pd04a6f0540)" d="M 734.22336 307.584 
L 736.5248 307.584 
L 736.5248 307.584 
L 734.22336 307.584 
z
" style="fill:#9467bd;"/>
   </g>
   <g id="patch_302">
    <path clip-path="url(#pd04a6f0540)" d="M 745.73056 307.584 
L 748.032 307.584 
L 748.032 307.568827 
L 745.73056 307.568827 
z
" style="fill:#9467bd;"/>
   </g>
   <g id="matplotlib.axis_1">
    <g id="xtick_1">
     <g id="line2d_1">
      <defs>
       <path d="M 0 0 
L 0 3.5 
" id="m20d0b669b3" style="stroke:#000000;stroke-width:0.8;"/>
      </defs>
      <g>
       <use style="stroke:#000000;stroke-width:0.8;" x="57.6" xlink:href="#m20d0b669b3" y="307.584"/>
      </g>
     </g>
     <g id="text_1">
      <!-- 0 -->
      <defs>
       <path d="M 31.78125 66.40625 
Q 24.171875 66.40625 20.328125 58.90625 
Q 16.5 51.421875 16.5 36.375 
Q 16.5 21.390625 20.328125 13.890625 
Q 24.171875 6.390625 31.78125 6.390625 
Q 39.453125 6.390625 43.28125 13.890625 
Q 47.125 21.390625 47.125 36.375 
Q 47.125 51.421875 43.28125 58.90625 
Q 39.453125 66.40625 31.78125 66.40625 
z
M 31.78125 74.21875 
Q 44.046875 74.21875 50.515625 64.515625 
Q 56.984375 54.828125 56.984375 36.375 
Q 56.984375 17.96875 50.515625 8.265625 
Q 44.046875 -1.421875 31.78125 -1.421875 
Q 19.53125 -1.421875 13.0625 8.265625 
Q 6.59375 17.96875 6.59375 36.375 
Q 6.59375 54.828125 13.0625 64.515625 
Q 19.53125 74.21875 31.78125 74.21875 
z
" id="DejaVuSans-48"/>
      </defs>
      <g transform="translate(54.41875 322.182437)scale(0.1 -0.1)">
       <use xlink:href="#DejaVuSans-48"/>
      </g>
     </g>
    </g>
    <g id="xtick_2">
     <g id="line2d_2">
      <g>
       <use style="stroke:#000000;stroke-width:0.8;" x="105.216" xlink:href="#m20d0b669b3" y="307.584"/>
      </g>
     </g>
     <g id="text_2">
      <!-- 2 -->
      <defs>
       <path d="M 19.1875 8.296875 
L 53.609375 8.296875 
L 53.609375 0 
L 7.328125 0 
L 7.328125 8.296875 
Q 12.9375 14.109375 22.625 23.890625 
Q 32.328125 33.6875 34.8125 36.53125 
Q 39.546875 41.84375 41.421875 45.53125 
Q 43.3125 49.21875 43.3125 52.78125 
Q 43.3125 58.59375 39.234375 62.25 
Q 35.15625 65.921875 28.609375 65.921875 
Q 23.96875 65.921875 18.8125 64.3125 
Q 13.671875 62.703125 7.8125 59.421875 
L 7.8125 69.390625 
Q 13.765625 71.78125 18.9375 73 
Q 24.125 74.21875 28.421875 74.21875 
Q 39.75 74.21875 46.484375 68.546875 
Q 53.21875 62.890625 53.21875 53.421875 
Q 53.21875 48.921875 51.53125 44.890625 
Q 49.859375 40.875 45.40625 35.40625 
Q 44.1875 33.984375 37.640625 27.21875 
Q 31.109375 20.453125 19.1875 8.296875 
z
" id="DejaVuSans-50"/>
      </defs>
      <g transform="translate(102.03475 322.182437)scale(0.1 -0.1)">
       <use xlink:href="#DejaVuSans-50"/>
      </g>
     </g>
    </g>
    <g id="xtick_3">
     <g id="line2d_3">
      <g>
       <use style="stroke:#000000;stroke-width:0.8;" x="152.832" xlink:href="#m20d0b669b3" y="307.584"/>
      </g>
     </g>
     <g id="text_3">
      <!-- 4 -->
      <defs>
       <path d="M 37.796875 64.3125 
L 12.890625 25.390625 
L 37.796875 25.390625 
z
M 35.203125 72.90625 
L 47.609375 72.90625 
L 47.609375 25.390625 
L 58.015625 25.390625 
L 58.015625 17.1875 
L 47.609375 17.1875 
L 47.609375 0 
L 37.796875 0 
L 37.796875 17.1875 
L 4.890625 17.1875 
L 4.890625 26.703125 
z
" id="DejaVuSans-52"/>
      </defs>
      <g transform="translate(149.65075 322.182437)scale(0.1 -0.1)">
       <use xlink:href="#DejaVuSans-52"/>
      </g>
     </g>
    </g>
    <g id="xtick_4">
     <g id="line2d_4">
      <g>
       <use style="stroke:#000000;stroke-width:0.8;" x="200.448" xlink:href="#m20d0b669b3" y="307.584"/>
      </g>
     </g>
     <g id="text_4">
      <!-- 6 -->
      <defs>
       <path d="M 33.015625 40.375 
Q 26.375 40.375 22.484375 35.828125 
Q 18.609375 31.296875 18.609375 23.390625 
Q 18.609375 15.53125 22.484375 10.953125 
Q 26.375 6.390625 33.015625 6.390625 
Q 39.65625 6.390625 43.53125 10.953125 
Q 47.40625 15.53125 47.40625 23.390625 
Q 47.40625 31.296875 43.53125 35.828125 
Q 39.65625 40.375 33.015625 40.375 
z
M 52.59375 71.296875 
L 52.59375 62.3125 
Q 48.875 64.0625 45.09375 64.984375 
Q 41.3125 65.921875 37.59375 65.921875 
Q 27.828125 65.921875 22.671875 59.328125 
Q 17.53125 52.734375 16.796875 39.40625 
Q 19.671875 43.65625 24.015625 45.921875 
Q 28.375 48.1875 33.59375 48.1875 
Q 44.578125 48.1875 50.953125 41.515625 
Q 57.328125 34.859375 57.328125 23.390625 
Q 57.328125 12.15625 50.6875 5.359375 
Q 44.046875 -1.421875 33.015625 -1.421875 
Q 20.359375 -1.421875 13.671875 8.265625 
Q 6.984375 17.96875 6.984375 36.375 
Q 6.984375 53.65625 15.1875 63.9375 
Q 23.390625 74.21875 37.203125 74.21875 
Q 40.921875 74.21875 44.703125 73.484375 
Q 48.484375 72.75 52.59375 71.296875 
z
" id="DejaVuSans-54"/>
      </defs>
      <g transform="translate(197.26675 322.182437)scale(0.1 -0.1)">
       <use xlink:href="#DejaVuSans-54"/>
      </g>
     </g>
    </g>
    <g id="xtick_5">
     <g id="line2d_5">
      <g>
       <use style="stroke:#000000;stroke-width:0.8;" x="248.064" xlink:href="#m20d0b669b3" y="307.584"/>
      </g>
     </g>
     <g id="text_5">
      <!-- 8 -->
      <defs>
       <path d="M 31.78125 34.625 
Q 24.75 34.625 20.71875 30.859375 
Q 16.703125 27.09375 16.703125 20.515625 
Q 16.703125 13.921875 20.71875 10.15625 
Q 24.75 6.390625 31.78125 6.390625 
Q 38.8125 6.390625 42.859375 10.171875 
Q 46.921875 13.96875 46.921875 20.515625 
Q 46.921875 27.09375 42.890625 30.859375 
Q 38.875 34.625 31.78125 34.625 
z
M 21.921875 38.8125 
Q 15.578125 40.375 12.03125 44.71875 
Q 8.5 49.078125 8.5 55.328125 
Q 8.5 64.0625 14.71875 69.140625 
Q 20.953125 74.21875 31.78125 74.21875 
Q 42.671875 74.21875 48.875 69.140625 
Q 55.078125 64.0625 55.078125 55.328125 
Q 55.078125 49.078125 51.53125 44.71875 
Q 48 40.375 41.703125 38.8125 
Q 48.828125 37.15625 52.796875 32.3125 
Q 56.78125 27.484375 56.78125 20.515625 
Q 56.78125 9.90625 50.3125 4.234375 
Q 43.84375 -1.421875 31.78125 -1.421875 
Q 19.734375 -1.421875 13.25 4.234375 
Q 6.78125 9.90625 6.78125 20.515625 
Q 6.78125 27.484375 10.78125 32.3125 
Q 14.796875 37.15625 21.921875 38.8125 
z
M 18.3125 54.390625 
Q 18.3125 48.734375 21.84375 45.5625 
Q 25.390625 42.390625 31.78125 42.390625 
Q 38.140625 42.390625 41.71875 45.5625 
Q 45.3125 48.734375 45.3125 54.390625 
Q 45.3125 60.0625 41.71875 63.234375 
Q 38.140625 66.40625 31.78125 66.40625 
Q 25.390625 66.40625 21.84375 63.234375 
Q 18.3125 60.0625 18.3125 54.390625 
z
" id="DejaVuSans-56"/>
      </defs>
      <g transform="translate(244.88275 322.182437)scale(0.1 -0.1)">
       <use xlink:href="#DejaVuSans-56"/>
      </g>
     </g>
    </g>
    <g id="xtick_6">
     <g id="line2d_6">
      <g>
       <use style="stroke:#000000;stroke-width:0.8;" x="295.68" xlink:href="#m20d0b669b3" y="307.584"/>
      </g>
     </g>
     <g id="text_6">
      <!-- 10 -->
      <defs>
       <path d="M 12.40625 8.296875 
L 28.515625 8.296875 
L 28.515625 63.921875 
L 10.984375 60.40625 
L 10.984375 69.390625 
L 28.421875 72.90625 
L 38.28125 72.90625 
L 38.28125 8.296875 
L 54.390625 8.296875 
L 54.390625 0 
L 12.40625 0 
z
" id="DejaVuSans-49"/>
      </defs>
      <g transform="translate(289.3175 322.182437)scale(0.1 -0.1)">
       <use xlink:href="#DejaVuSans-49"/>
       <use x="63.623047" xlink:href="#DejaVuSans-48"/>
      </g>
     </g>
    </g>
    <g id="xtick_7">
     <g id="line2d_7">
      <g>
       <use style="stroke:#000000;stroke-width:0.8;" x="343.296" xlink:href="#m20d0b669b3" y="307.584"/>
      </g>
     </g>
     <g id="text_7">
      <!-- 12 -->
      <g transform="translate(336.9335 322.182437)scale(0.1 -0.1)">
       <use xlink:href="#DejaVuSans-49"/>
       <use x="63.623047" xlink:href="#DejaVuSans-50"/>
      </g>
     </g>
    </g>
    <g id="xtick_8">
     <g id="line2d_8">
      <g>
       <use style="stroke:#000000;stroke-width:0.8;" x="390.912" xlink:href="#m20d0b669b3" y="307.584"/>
      </g>
     </g>
     <g id="text_8">
      <!-- 14 -->
      <g transform="translate(384.5495 322.182437)scale(0.1 -0.1)">
       <use xlink:href="#DejaVuSans-49"/>
       <use x="63.623047" xlink:href="#DejaVuSans-52"/>
      </g>
     </g>
    </g>
    <g id="text_9">
     <!-- annotMAG matches -->
     <defs>
      <path d="M 34.28125 27.484375 
Q 23.390625 27.484375 19.1875 25 
Q 14.984375 22.515625 14.984375 16.5 
Q 14.984375 11.71875 18.140625 8.90625 
Q 21.296875 6.109375 26.703125 6.109375 
Q 34.1875 6.109375 38.703125 11.40625 
Q 43.21875 16.703125 43.21875 25.484375 
L 43.21875 27.484375 
z
M 52.203125 31.203125 
L 52.203125 0 
L 43.21875 0 
L 43.21875 8.296875 
Q 40.140625 3.328125 35.546875 0.953125 
Q 30.953125 -1.421875 24.3125 -1.421875 
Q 15.921875 -1.421875 10.953125 3.296875 
Q 6 8.015625 6 15.921875 
Q 6 25.140625 12.171875 29.828125 
Q 18.359375 34.515625 30.609375 34.515625 
L 43.21875 34.515625 
L 43.21875 35.40625 
Q 43.21875 41.609375 39.140625 45 
Q 35.0625 48.390625 27.6875 48.390625 
Q 23 48.390625 18.546875 47.265625 
Q 14.109375 46.140625 10.015625 43.890625 
L 10.015625 52.203125 
Q 14.9375 54.109375 19.578125 55.046875 
Q 24.21875 56 28.609375 56 
Q 40.484375 56 46.34375 49.84375 
Q 52.203125 43.703125 52.203125 31.203125 
z
" id="DejaVuSans-97"/>
      <path d="M 54.890625 33.015625 
L 54.890625 0 
L 45.90625 0 
L 45.90625 32.71875 
Q 45.90625 40.484375 42.875 44.328125 
Q 39.84375 48.1875 33.796875 48.1875 
Q 26.515625 48.1875 22.3125 43.546875 
Q 18.109375 38.921875 18.109375 30.90625 
L 18.109375 0 
L 9.078125 0 
L 9.078125 54.6875 
L 18.109375 54.6875 
L 18.109375 46.1875 
Q 21.34375 51.125 25.703125 53.5625 
Q 30.078125 56 35.796875 56 
Q 45.21875 56 50.046875 50.171875 
Q 54.890625 44.34375 54.890625 33.015625 
z
" id="DejaVuSans-110"/>
      <path d="M 30.609375 48.390625 
Q 23.390625 48.390625 19.1875 42.75 
Q 14.984375 37.109375 14.984375 27.296875 
Q 14.984375 17.484375 19.15625 11.84375 
Q 23.34375 6.203125 30.609375 6.203125 
Q 37.796875 6.203125 41.984375 11.859375 
Q 46.1875 17.53125 46.1875 27.296875 
Q 46.1875 37.015625 41.984375 42.703125 
Q 37.796875 48.390625 30.609375 48.390625 
z
M 30.609375 56 
Q 42.328125 56 49.015625 48.375 
Q 55.71875 40.765625 55.71875 27.296875 
Q 55.71875 13.875 49.015625 6.21875 
Q 42.328125 -1.421875 30.609375 -1.421875 
Q 18.84375 -1.421875 12.171875 6.21875 
Q 5.515625 13.875 5.515625 27.296875 
Q 5.515625 40.765625 12.171875 48.375 
Q 18.84375 56 30.609375 56 
z
" id="DejaVuSans-111"/>
      <path d="M 18.3125 70.21875 
L 18.3125 54.6875 
L 36.8125 54.6875 
L 36.8125 47.703125 
L 18.3125 47.703125 
L 18.3125 18.015625 
Q 18.3125 11.328125 20.140625 9.421875 
Q 21.96875 7.515625 27.59375 7.515625 
L 36.8125 7.515625 
L 36.8125 0 
L 27.59375 0 
Q 17.1875 0 13.234375 3.875 
Q 9.28125 7.765625 9.28125 18.015625 
L 9.28125 47.703125 
L 2.6875 47.703125 
L 2.6875 54.6875 
L 9.28125 54.6875 
L 9.28125 70.21875 
z
" id="DejaVuSans-116"/>
      <path d="M 4.890625 29.15625 
L 4.890625 33.546875 
L 24.078125 52.734375 
L 29.9375 46.875 
L 18.5625 35.5 
L 65.234375 35.5 
L 53.859375 46.875 
L 59.71875 52.734375 
L 78.90625 33.546875 
L 78.90625 29.15625 
L 59.71875 9.96875 
L 53.859375 15.828125 
L 65.234375 27.203125 
L 18.5625 27.203125 
L 29.9375 15.828125 
L 24.078125 9.96875 
z
" id="DejaVuSans-8596"/>
      <path d="M 9.8125 72.90625 
L 24.515625 72.90625 
L 43.109375 23.296875 
L 61.8125 72.90625 
L 76.515625 72.90625 
L 76.515625 0 
L 66.890625 0 
L 66.890625 64.015625 
L 48.09375 14.015625 
L 38.1875 14.015625 
L 19.390625 64.015625 
L 19.390625 0 
L 9.8125 0 
z
" id="DejaVuSans-77"/>
      <path d="M 34.1875 63.1875 
L 20.796875 26.90625 
L 47.609375 26.90625 
z
M 28.609375 72.90625 
L 39.796875 72.90625 
L 67.578125 0 
L 57.328125 0 
L 50.6875 18.703125 
L 17.828125 18.703125 
L 11.1875 0 
L 0.78125 0 
z
" id="DejaVuSans-65"/>
      <path d="M 59.515625 10.40625 
L 59.515625 29.984375 
L 43.40625 29.984375 
L 43.40625 38.09375 
L 69.28125 38.09375 
L 69.28125 6.78125 
Q 63.578125 2.734375 56.6875 0.65625 
Q 49.8125 -1.421875 42 -1.421875 
Q 24.90625 -1.421875 15.25 8.5625 
Q 5.609375 18.5625 5.609375 36.375 
Q 5.609375 54.25 15.25 64.234375 
Q 24.90625 74.21875 42 74.21875 
Q 49.125 74.21875 55.546875 72.453125 
Q 61.96875 70.703125 67.390625 67.28125 
L 67.390625 56.78125 
Q 61.921875 61.421875 55.765625 63.765625 
Q 49.609375 66.109375 42.828125 66.109375 
Q 29.4375 66.109375 22.71875 58.640625 
Q 16.015625 51.171875 16.015625 36.375 
Q 16.015625 21.625 22.71875 14.15625 
Q 29.4375 6.6875 42.828125 6.6875 
Q 48.046875 6.6875 52.140625 7.59375 
Q 56.25 8.5 59.515625 10.40625 
z
" id="DejaVuSans-71"/>
      <path id="DejaVuSans-32"/>
      <path d="M 52 44.1875 
Q 55.375 50.25 60.0625 53.125 
Q 64.75 56 71.09375 56 
Q 79.640625 56 84.28125 50.015625 
Q 88.921875 44.046875 88.921875 33.015625 
L 88.921875 0 
L 79.890625 0 
L 79.890625 32.71875 
Q 79.890625 40.578125 77.09375 44.375 
Q 74.3125 48.1875 68.609375 48.1875 
Q 61.625 48.1875 57.5625 43.546875 
Q 53.515625 38.921875 53.515625 30.90625 
L 53.515625 0 
L 44.484375 0 
L 44.484375 32.71875 
Q 44.484375 40.625 41.703125 44.40625 
Q 38.921875 48.1875 33.109375 48.1875 
Q 26.21875 48.1875 22.15625 43.53125 
Q 18.109375 38.875 18.109375 30.90625 
L 18.109375 0 
L 9.078125 0 
L 9.078125 54.6875 
L 18.109375 54.6875 
L 18.109375 46.1875 
Q 21.1875 51.21875 25.484375 53.609375 
Q 29.78125 56 35.6875 56 
Q 41.65625 56 45.828125 52.96875 
Q 50 49.953125 52 44.1875 
z
" id="DejaVuSans-109"/>
      <path d="M 48.78125 52.59375 
L 48.78125 44.1875 
Q 44.96875 46.296875 41.140625 47.34375 
Q 37.3125 48.390625 33.40625 48.390625 
Q 24.65625 48.390625 19.8125 42.84375 
Q 14.984375 37.3125 14.984375 27.296875 
Q 14.984375 17.28125 19.8125 11.734375 
Q 24.65625 6.203125 33.40625 6.203125 
Q 37.3125 6.203125 41.140625 7.25 
Q 44.96875 8.296875 48.78125 10.40625 
L 48.78125 2.09375 
Q 45.015625 0.34375 40.984375 -0.53125 
Q 36.96875 -1.421875 32.421875 -1.421875 
Q 20.0625 -1.421875 12.78125 6.34375 
Q 5.515625 14.109375 5.515625 27.296875 
Q 5.515625 40.671875 12.859375 48.328125 
Q 20.21875 56 33.015625 56 
Q 37.15625 56 41.109375 55.140625 
Q 45.0625 54.296875 48.78125 52.59375 
z
" id="DejaVuSans-99"/>
      <path d="M 54.890625 33.015625 
L 54.890625 0 
L 45.90625 0 
L 45.90625 32.71875 
Q 45.90625 40.484375 42.875 44.328125 
Q 39.84375 48.1875 33.796875 48.1875 
Q 26.515625 48.1875 22.3125 43.546875 
Q 18.109375 38.921875 18.109375 30.90625 
L 18.109375 0 
L 9.078125 0 
L 9.078125 75.984375 
L 18.109375 75.984375 
L 18.109375 46.1875 
Q 21.34375 51.125 25.703125 53.5625 
Q 30.078125 56 35.796875 56 
Q 45.21875 56 50.046875 50.171875 
Q 54.890625 44.34375 54.890625 33.015625 
z
" id="DejaVuSans-104"/>
      <path d="M 56.203125 29.59375 
L 56.203125 25.203125 
L 14.890625 25.203125 
Q 15.484375 15.921875 20.484375 11.0625 
Q 25.484375 6.203125 34.421875 6.203125 
Q 39.59375 6.203125 44.453125 7.46875 
Q 49.3125 8.734375 54.109375 11.28125 
L 54.109375 2.78125 
Q 49.265625 0.734375 44.1875 -0.34375 
Q 39.109375 -1.421875 33.890625 -1.421875 
Q 20.796875 -1.421875 13.15625 6.1875 
Q 5.515625 13.8125 5.515625 26.8125 
Q 5.515625 40.234375 12.765625 48.109375 
Q 20.015625 56 32.328125 56 
Q 43.359375 56 49.78125 48.890625 
Q 56.203125 41.796875 56.203125 29.59375 
z
M 47.21875 32.234375 
Q 47.125 39.59375 43.09375 43.984375 
Q 39.0625 48.390625 32.421875 48.390625 
Q 24.90625 48.390625 20.390625 44.140625 
Q 15.875 39.890625 15.1875 32.171875 
z
" id="DejaVuSans-101"/>
      <path d="M 44.28125 53.078125 
L 44.28125 44.578125 
Q 40.484375 46.53125 36.375 47.5 
Q 32.28125 48.484375 27.875 48.484375 
Q 21.1875 48.484375 17.84375 46.4375 
Q 14.5 44.390625 14.5 40.28125 
Q 14.5 37.15625 16.890625 35.375 
Q 19.28125 33.59375 26.515625 31.984375 
L 29.59375 31.296875 
Q 39.15625 29.25 43.1875 25.515625 
Q 47.21875 21.78125 47.21875 15.09375 
Q 47.21875 7.46875 41.1875 3.015625 
Q 35.15625 -1.421875 24.609375 -1.421875 
Q 20.21875 -1.421875 15.453125 -0.5625 
Q 10.6875 0.296875 5.421875 2 
L 5.421875 11.28125 
Q 10.40625 8.6875 15.234375 7.390625 
Q 20.0625 6.109375 24.8125 6.109375 
Q 31.15625 6.109375 34.5625 8.28125 
Q 37.984375 10.453125 37.984375 14.40625 
Q 37.984375 18.0625 35.515625 20.015625 
Q 33.0625 21.96875 24.703125 23.78125 
L 21.578125 24.515625 
Q 13.234375 26.265625 9.515625 29.90625 
Q 5.8125 33.546875 5.8125 39.890625 
Q 5.8125 47.609375 11.28125 51.796875 
Q 16.75 56 26.8125 56 
Q 31.78125 56 36.171875 55.265625 
Q 40.578125 54.546875 44.28125 53.078125 
z
" id="DejaVuSans-115"/>
     </defs>
     <g transform="translate(182.858437 335.860562)scale(0.1 -0.1)">
      <use xlink:href="#DejaVuSans-97"/>
      <use x="61.279297" xlink:href="#DejaVuSans-110"/>
      <use x="124.658203" xlink:href="#DejaVuSans-110"/>
      <use x="188.037109" xlink:href="#DejaVuSans-111"/>
      <use x="249.21875" xlink:href="#DejaVuSans-116"/>
      <use x="288.427734" xlink:href="#DejaVuSans-8596"/>
      <use x="372.216797" xlink:href="#DejaVuSans-77"/>
      <use x="458.496094" xlink:href="#DejaVuSans-65"/>
      <use x="526.888672" xlink:href="#DejaVuSans-71"/>
      <use x="604.378906" xlink:href="#DejaVuSans-32"/>
      <use x="636.166016" xlink:href="#DejaVuSans-109"/>
      <use x="733.578125" xlink:href="#DejaVuSans-97"/>
      <use x="794.857422" xlink:href="#DejaVuSans-116"/>
      <use x="834.066406" xlink:href="#DejaVuSans-99"/>
      <use x="889.046875" xlink:href="#DejaVuSans-104"/>
      <use x="952.425781" xlink:href="#DejaVuSans-101"/>
      <use x="1013.949219" xlink:href="#DejaVuSans-115"/>
     </g>
    </g>
   </g>
   <g id="matplotlib.axis_2">
    <g id="ytick_1">
     <g id="line2d_9">
      <defs>
       <path d="M 0 0 
L -3.5 0 
" id="mf3530953fc" style="stroke:#000000;stroke-width:0.8;"/>
      </defs>
      <g>
       <use style="stroke:#000000;stroke-width:0.8;" x="57.6" xlink:href="#mf3530953fc" y="307.584"/>
      </g>
     </g>
     <g id="text_10">
      <!-- 0 -->
      <g transform="translate(44.2375 311.383219)scale(0.1 -0.1)">
       <use xlink:href="#DejaVuSans-48"/>
      </g>
     </g>
    </g>
    <g id="ytick_2">
     <g id="line2d_10">
      <g>
       <use style="stroke:#000000;stroke-width:0.8;" x="57.6" xlink:href="#mf3530953fc" y="269.65183"/>
      </g>
     </g>
     <g id="text_11">
      <!-- 5000 -->
      <defs>
       <path d="M 10.796875 72.90625 
L 49.515625 72.90625 
L 49.515625 64.59375 
L 19.828125 64.59375 
L 19.828125 46.734375 
Q 21.96875 47.46875 24.109375 47.828125 
Q 26.265625 48.1875 28.421875 48.1875 
Q 40.625 48.1875 47.75 41.5 
Q 54.890625 34.8125 54.890625 23.390625 
Q 54.890625 11.625 47.5625 5.09375 
Q 40.234375 -1.421875 26.90625 -1.421875 
Q 22.3125 -1.421875 17.546875 -0.640625 
Q 12.796875 0.140625 7.71875 1.703125 
L 7.71875 11.625 
Q 12.109375 9.234375 16.796875 8.0625 
Q 21.484375 6.890625 26.703125 6.890625 
Q 35.15625 6.890625 40.078125 11.328125 
Q 45.015625 15.765625 45.015625 23.390625 
Q 45.015625 31 40.078125 35.4375 
Q 35.15625 39.890625 26.703125 39.890625 
Q 22.75 39.890625 18.8125 39.015625 
Q 14.890625 38.140625 10.796875 36.28125 
z
" id="DejaVuSans-53"/>
      </defs>
      <g transform="translate(25.15 273.451049)scale(0.1 -0.1)">
       <use xlink:href="#DejaVuSans-53"/>
       <use x="63.623047" xlink:href="#DejaVuSans-48"/>
       <use x="127.246094" xlink:href="#DejaVuSans-48"/>
       <use x="190.869141" xlink:href="#DejaVuSans-48"/>
      </g>
     </g>
    </g>
    <g id="ytick_3">
     <g id="line2d_11">
      <g>
       <use style="stroke:#000000;stroke-width:0.8;" x="57.6" xlink:href="#mf3530953fc" y="231.71966"/>
      </g>
     </g>
     <g id="text_12">
      <!-- 10000 -->
      <g transform="translate(18.7875 235.518879)scale(0.1 -0.1)">
       <use xlink:href="#DejaVuSans-49"/>
       <use x="63.623047" xlink:href="#DejaVuSans-48"/>
       <use x="127.246094" xlink:href="#DejaVuSans-48"/>
       <use x="190.869141" xlink:href="#DejaVuSans-48"/>
       <use x="254.492188" xlink:href="#DejaVuSans-48"/>
      </g>
     </g>
    </g>
    <g id="ytick_4">
     <g id="line2d_12">
      <g>
       <use style="stroke:#000000;stroke-width:0.8;" x="57.6" xlink:href="#mf3530953fc" y="193.78749"/>
      </g>
     </g>
     <g id="text_13">
      <!-- 15000 -->
      <g transform="translate(18.7875 197.586709)scale(0.1 -0.1)">
       <use xlink:href="#DejaVuSans-49"/>
       <use x="63.623047" xlink:href="#DejaVuSans-53"/>
       <use x="127.246094" xlink:href="#DejaVuSans-48"/>
       <use x="190.869141" xlink:href="#DejaVuSans-48"/>
       <use x="254.492188" xlink:href="#DejaVuSans-48"/>
      </g>
     </g>
    </g>
    <g id="ytick_5">
     <g id="line2d_13">
      <g>
       <use style="stroke:#000000;stroke-width:0.8;" x="57.6" xlink:href="#mf3530953fc" y="155.85532"/>
      </g>
     </g>
     <g id="text_14">
      <!-- 20000 -->
      <g transform="translate(18.7875 159.654539)scale(0.1 -0.1)">
       <use xlink:href="#DejaVuSans-50"/>
       <use x="63.623047" xlink:href="#DejaVuSans-48"/>
       <use x="127.246094" xlink:href="#DejaVuSans-48"/>
       <use x="190.869141" xlink:href="#DejaVuSans-48"/>
       <use x="254.492188" xlink:href="#DejaVuSans-48"/>
      </g>
     </g>
    </g>
    <g id="ytick_6">
     <g id="line2d_14">
      <g>
       <use style="stroke:#000000;stroke-width:0.8;" x="57.6" xlink:href="#mf3530953fc" y="117.92315"/>
      </g>
     </g>
     <g id="text_15">
      <!-- 25000 -->
      <g transform="translate(18.7875 121.722369)scale(0.1 -0.1)">
       <use xlink:href="#DejaVuSans-50"/>
       <use x="63.623047" xlink:href="#DejaVuSans-53"/>
       <use x="127.246094" xlink:href="#DejaVuSans-48"/>
       <use x="190.869141" xlink:href="#DejaVuSans-48"/>
       <use x="254.492188" xlink:href="#DejaVuSans-48"/>
      </g>
     </g>
    </g>
    <g id="ytick_7">
     <g id="line2d_15">
      <g>
       <use style="stroke:#000000;stroke-width:0.8;" x="57.6" xlink:href="#mf3530953fc" y="79.990981"/>
      </g>
     </g>
     <g id="text_16">
      <!-- 30000 -->
      <defs>
       <path d="M 40.578125 39.3125 
Q 47.65625 37.796875 51.625 33 
Q 55.609375 28.21875 55.609375 21.1875 
Q 55.609375 10.40625 48.1875 4.484375 
Q 40.765625 -1.421875 27.09375 -1.421875 
Q 22.515625 -1.421875 17.65625 -0.515625 
Q 12.796875 0.390625 7.625 2.203125 
L 7.625 11.71875 
Q 11.71875 9.328125 16.59375 8.109375 
Q 21.484375 6.890625 26.8125 6.890625 
Q 36.078125 6.890625 40.9375 10.546875 
Q 45.796875 14.203125 45.796875 21.1875 
Q 45.796875 27.640625 41.28125 31.265625 
Q 36.765625 34.90625 28.71875 34.90625 
L 20.21875 34.90625 
L 20.21875 43.015625 
L 29.109375 43.015625 
Q 36.375 43.015625 40.234375 45.921875 
Q 44.09375 48.828125 44.09375 54.296875 
Q 44.09375 59.90625 40.109375 62.90625 
Q 36.140625 65.921875 28.71875 65.921875 
Q 24.65625 65.921875 20.015625 65.03125 
Q 15.375 64.15625 9.8125 62.3125 
L 9.8125 71.09375 
Q 15.4375 72.65625 20.34375 73.4375 
Q 25.25 74.21875 29.59375 74.21875 
Q 40.828125 74.21875 47.359375 69.109375 
Q 53.90625 64.015625 53.90625 55.328125 
Q 53.90625 49.265625 50.4375 45.09375 
Q 46.96875 40.921875 40.578125 39.3125 
z
" id="DejaVuSans-51"/>
      </defs>
      <g transform="translate(18.7875 83.790199)scale(0.1 -0.1)">
       <use xlink:href="#DejaVuSans-51"/>
       <use x="63.623047" xlink:href="#DejaVuSans-48"/>
       <use x="127.246094" xlink:href="#DejaVuSans-48"/>
       <use x="190.869141" xlink:href="#DejaVuSans-48"/>
       <use x="254.492188" xlink:href="#DejaVuSans-48"/>
      </g>
     </g>
    </g>
    <g id="ytick_8">
     <g id="line2d_16">
      <g>
       <use style="stroke:#000000;stroke-width:0.8;" x="57.6" xlink:href="#mf3530953fc" y="42.058811"/>
      </g>
     </g>
     <g id="text_17">
      <!-- 35000 -->
      <g transform="translate(18.7875 45.858029)scale(0.1 -0.1)">
       <use xlink:href="#DejaVuSans-51"/>
       <use x="63.623047" xlink:href="#DejaVuSans-53"/>
       <use x="127.246094" xlink:href="#DejaVuSans-48"/>
       <use x="190.869141" xlink:href="#DejaVuSans-48"/>
       <use x="254.492188" xlink:href="#DejaVuSans-48"/>
      </g>
     </g>
    </g>
    <g id="text_18">
     <!-- #annotations -->
     <defs>
      <path d="M 51.125 44 
L 36.921875 44 
L 32.8125 27.6875 
L 47.125 27.6875 
z
M 43.796875 71.78125 
L 38.71875 51.515625 
L 52.984375 51.515625 
L 58.109375 71.78125 
L 65.921875 71.78125 
L 60.890625 51.515625 
L 76.125 51.515625 
L 76.125 44 
L 58.984375 44 
L 54.984375 27.6875 
L 70.515625 27.6875 
L 70.515625 20.21875 
L 53.078125 20.21875 
L 48 0 
L 40.1875 0 
L 45.21875 20.21875 
L 30.90625 20.21875 
L 25.875 0 
L 18.015625 0 
L 23.09375 20.21875 
L 7.71875 20.21875 
L 7.71875 27.6875 
L 24.90625 27.6875 
L 29 44 
L 13.28125 44 
L 13.28125 51.515625 
L 30.90625 51.515625 
L 35.890625 71.78125 
z
" id="DejaVuSans-35"/>
      <path d="M 9.421875 54.6875 
L 18.40625 54.6875 
L 18.40625 0 
L 9.421875 0 
z
M 9.421875 75.984375 
L 18.40625 75.984375 
L 18.40625 64.59375 
L 9.421875 64.59375 
z
" id="DejaVuSans-105"/>
     </defs>
     <g transform="translate(12.707812 208.385031)rotate(-90)scale(0.1 -0.1)">
      <use xlink:href="#DejaVuSans-35"/>
      <use x="83.789062" xlink:href="#DejaVuSans-97"/>
      <use x="145.068359" xlink:href="#DejaVuSans-110"/>
      <use x="208.447266" xlink:href="#DejaVuSans-110"/>
      <use x="271.826172" xlink:href="#DejaVuSans-111"/>
      <use x="333.007812" xlink:href="#DejaVuSans-116"/>
      <use x="372.216797" xlink:href="#DejaVuSans-97"/>
      <use x="433.496094" xlink:href="#DejaVuSans-116"/>
      <use x="472.705078" xlink:href="#DejaVuSans-105"/>
      <use x="500.488281" xlink:href="#DejaVuSans-111"/>
      <use x="561.669922" xlink:href="#DejaVuSans-110"/>
      <use x="625.048828" xlink:href="#DejaVuSans-115"/>
     </g>
    </g>
   </g>
   <g id="patch_303">
    <path d="M 57.6 307.584 
L 57.6 41.472 
" style="fill:none;stroke:#000000;stroke-linecap:square;stroke-linejoin:miter;stroke-width:0.8;"/>
   </g>
   <g id="patch_304">
    <path d="M 414.72 307.584 
L 414.72 41.472 
" style="fill:none;stroke:#000000;stroke-linecap:square;stroke-linejoin:miter;stroke-width:0.8;"/>
   </g>
   <g id="patch_305">
    <path d="M 57.6 307.584 
L 414.72 307.584 
" style="fill:none;stroke:#000000;stroke-linecap:square;stroke-linejoin:miter;stroke-width:0.8;"/>
   </g>
   <g id="patch_306">
    <path d="M 57.6 41.472 
L 414.72 41.472 
" style="fill:none;stroke:#000000;stroke-linecap:square;stroke-linejoin:miter;stroke-width:0.8;"/>
   </g>
   <g id="legend_1">
    <g id="patch_307">
     <path d="M 369.3575 122.862625 
L 407.72 122.862625 
Q 409.72 122.862625 409.72 120.862625 
L 409.72 48.472 
Q 409.72 46.472 407.72 46.472 
L 369.3575 46.472 
Q 367.3575 46.472 367.3575 48.472 
L 367.3575 120.862625 
Q 367.3575 122.862625 369.3575 122.862625 
z
" style="fill:#ffffff;opacity:0.8;stroke:#cccccc;stroke-linejoin:miter;"/>
    </g>
    <g id="patch_308">
     <path d="M 371.3575 58.070438 
L 391.3575 58.070438 
L 391.3575 51.070438 
L 371.3575 51.070438 
z
" style="fill:#1f77b4;"/>
    </g>
    <g id="text_19">
     <!-- 0 -->
     <g transform="translate(399.3575 58.070438)scale(0.1 -0.1)">
      <use xlink:href="#DejaVuSans-48"/>
     </g>
    </g>
    <g id="patch_309">
     <path d="M 371.3575 72.748563 
L 391.3575 72.748563 
L 391.3575 65.748563 
L 371.3575 65.748563 
z
" style="fill:#ff7f0e;"/>
    </g>
    <g id="text_20">
     <!-- 1 -->
     <g transform="translate(399.3575 72.748563)scale(0.1 -0.1)">
      <use xlink:href="#DejaVuSans-49"/>
     </g>
    </g>
    <g id="patch_310">
     <path d="M 371.3575 87.426688 
L 391.3575 87.426688 
L 391.3575 80.426688 
L 371.3575 80.426688 
z
" style="fill:#2ca02c;"/>
    </g>
    <g id="text_21">
     <!-- 2 -->
     <g transform="translate(399.3575 87.426688)scale(0.1 -0.1)">
      <use xlink:href="#DejaVuSans-50"/>
     </g>
    </g>
    <g id="patch_311">
     <path d="M 371.3575 102.104813 
L 391.3575 102.104813 
L 391.3575 95.104813 
L 371.3575 95.104813 
z
" style="fill:#d62728;"/>
    </g>
    <g id="text_22">
     <!-- 3 -->
     <g transform="translate(399.3575 102.104813)scale(0.1 -0.1)">
      <use xlink:href="#DejaVuSans-51"/>
     </g>
    </g>
    <g id="patch_312">
     <path d="M 371.3575 116.782938 
L 391.3575 116.782938 
L 391.3575 109.782938 
L 371.3575 109.782938 
z
" style="fill:#9467bd;"/>
    </g>
    <g id="text_23">
     <!-- 4 -->
     <g transform="translate(399.3575 116.782938)scale(0.1 -0.1)">
      <use xlink:href="#DejaVuSans-52"/>
     </g>
    </g>
   </g>
  </g>
 </g>
 <defs>
  <clipPath id="pd04a6f0540">
   <rect height="266.112" width="357.12" x="57.6" y="41.472"/>
  </clipPath>
 </defs>
</svg>
