<svg class="main-svg" xmlns="http://www.w3.org/2000/svg" xmlns:xlink="http://www.w3.org/1999/xlink" width="1902" height="949" style="background: rgb(255, 255, 255) none repeat scroll 0% 0%;"><defs id="defs-bf7407"><g class="clips"></g><g class="gradients"></g></defs><g class="bglayer"></g><g class="draglayer"></g><g class="layer-below"><g class="imagelayer"></g><g class="shapelayer"></g></g><g class="cartesianlayer"></g><g class="polarlayer"></g><g class="ternarylayer"></g><g class="geolayer"></g><g class="pielayer"></g><g class="glimages"></g><g class="sankey" style="box-sizing: content-box; position: absolute; left: 0px; shape-rendering: geometricprecision; pointer-events: auto;" transform="translate(80,100)matrix(1 0 0 1 0 0)"><g class="sankey-links" style="fill: none;"><path class="sankey-link" d="M20,-4.263256414560601e-14C871,-4.263256414560601e-14 871,4.263256414560601e-14 1722,4.263256414560601e-14L1722,52.77031441575009C871,52.77031441575009 871,52.77031441575001 20,52.77031441575001Z" style="stroke: rgb(68, 68, 68); stroke-opacity: 1; stroke-width: 0; fill: rgb(31, 119, 180); fill-opacity: 0.533333;"></path><path class="sankey-link" d="M20,52.77031441575001C871,52.77031441575001 871,69.88102400797156 1722,69.88102400797156L1722,111.77280513746406C871,111.77280513746406 871,94.66209554524251 20,94.66209554524251Z" style="stroke: rgb(68, 68, 68); stroke-opacity: 1; stroke-width: 0; fill: rgb(31, 119, 180); fill-opacity: 0.533333;"></path><path class="sankey-link" d="M20,97.11943918282975C871,97.11943918282975 871,716.1088733661757 1722,716.1088733661757L1722,724.9137140633433C871,724.9137140633433 871,105.9242798799973 20,105.9242798799973Z" style="stroke: rgb(68, 68, 68); stroke-opacity: 1; stroke-width: 0; fill: rgb(31, 119, 180); fill-opacity: 0.533333;"></path><path class="sankey-link" d="M20,94.66209554524251C871,94.66209554524251 871,321.5581927981724 1722,321.5581927981724L1722,324.01553643575966C871,324.01553643575966 871,97.11943918282975 20,97.11943918282975Z" style="stroke: rgb(68, 68, 68); stroke-opacity: 1; stroke-width: 0; fill: rgb(31, 119, 180); fill-opacity: 0.533333;"></path><path class="sankey-link" d="M20,113.48307838921748C871,113.48307838921748 871,111.77280513746406 1722,111.77280513746406L1722,261.1240483898332C871,261.1240483898332 871,262.83432164158666 20,262.83432164158666Z" style="stroke: rgb(68, 68, 68); stroke-opacity: 1; stroke-width: 0; fill: rgb(255, 127, 14); fill-opacity: 0.533333;"></path><path class="sankey-link" d="M20,262.8343216415866C871,262.8343216415866 871,324.01553643575966 1722,324.01553643575966L1722,333.3438004031009C871,333.3438004031009 871,272.1625856089278 20,272.1625856089278Z" style="stroke: rgb(68, 68, 68); stroke-opacity: 1; stroke-width: 0; fill: rgb(255, 127, 14); fill-opacity: 0.533333;"></path><path class="sankey-link" d="M20,272.1625856089278C871,272.1625856089278 871,724.9137140633433 1722,724.9137140633433L1722,730.8666927552886C871,730.8666927552886 871,278.1155643008731 20,278.1155643008731Z" style="stroke: rgb(68, 68, 68); stroke-opacity: 1; stroke-width: 0; fill: rgb(255, 127, 14); fill-opacity: 0.533333;"></path><path class="sankey-link" d="M20,105.9242798799973C871,105.9242798799973 871,52.77031441575009 1722,52.77031441575009L1722,60.329112924970275C871,60.329112924970275 871,113.48307838921748 20,113.48307838921748Z" style="stroke: rgb(68, 68, 68); stroke-opacity: 1; stroke-width: 0; fill: rgb(255, 127, 14); fill-opacity: 0.533333;"></path><path class="sankey-link" d="M20,334.52908965267676C871,334.52908965267676 871,333.3438004031009 1722,333.3438004031009L1722,713.4332006627193C871,713.4332006627193 871,714.6184899122952 20,714.6184899122952Z" style="stroke: rgb(68, 68, 68); stroke-opacity: 1; stroke-width: 0; fill: rgb(44, 160, 44); fill-opacity: 0.4;"></path><path class="sankey-link" d="M20,714.6184899122952C871,714.6184899122952 871,730.8666927552885 1722,730.8666927552885L1722,760.1774132019C871,760.1774132019 871,743.9292103589067 20,743.9292103589067Z" style="stroke: rgb(68, 68, 68); stroke-opacity: 1; stroke-width: 0; fill: rgb(44, 160, 44); fill-opacity: 0.533333;"></path><path class="sankey-link" d="M20,285.1371241714413C871,285.1371241714413 871,261.1240483898332 1722,261.1240483898332L1722,310.5160138710687C871,310.5160138710687 871,334.5290896526768 20,334.5290896526768Z" style="stroke: rgb(68, 68, 68); stroke-opacity: 1; stroke-width: 0; fill: rgb(44, 160, 44); fill-opacity: 0.533333;"></path><path class="sankey-link" d="M20,278.11556430087313C871,278.11556430087313 871,60.329112924970275 1722,60.329112924970275L1722,67.35067279553844C871,67.35067279553844 871,285.1371241714413 20,285.1371241714413Z" style="stroke: rgb(68, 68, 68); stroke-opacity: 1; stroke-width: 0; fill: rgb(44, 160, 44); fill-opacity: 0.533333;"></path><path class="sankey-link" d="M20,743.9292103589067C871,743.9292103589067 871,67.35067279553844 1722,67.35067279553844L1722,69.88102400797156C871,69.88102400797156 871,746.4595615713399 20,746.4595615713399Z" style="stroke: rgb(68, 68, 68); stroke-opacity: 1; stroke-width: 0; fill: rgb(214, 39, 40); fill-opacity: 0.533333;"></path><path class="sankey-link" d="M20,746.4595615713399C871,746.4595615713399 871,310.5160138710687 1722,310.5160138710687L1722,321.5581927981724C871,321.5581927981724 871,757.5017404984436 20,757.5017404984436Z" style="stroke: rgb(68, 68, 68); stroke-opacity: 1; stroke-width: 0; fill: rgb(214, 39, 40); fill-opacity: 0.533333;"></path><path class="sankey-link" d="M20,760.1774132019C871,760.1774132019 871,760.1774132019 1722,760.1774132019L1722,769C871,769 871,769 20,769Z" style="stroke: rgb(68, 68, 68); stroke-opacity: 1; stroke-width: 0; fill: rgb(214, 39, 40); fill-opacity: 0.533333;"></path><path class="sankey-link" d="M20,757.5017404984435C871,757.5017404984435 871,713.4332006627193 1722,713.4332006627193L1722,716.1088733661758C871,716.1088733661758 871,760.1774132019 20,760.1774132019Z" style="stroke: rgb(68, 68, 68); stroke-opacity: 1; stroke-width: 0; fill: rgb(214, 39, 40); fill-opacity: 0.533333;"></path></g><g class="sankey-node-set" style="cursor: move;"><g class="sankey-node" transform=""><rect class="node-rect" width="20" height="105.92427987999736" style="stroke-width: 0.1; stroke: rgb(0, 0, 0); stroke-opacity: 1; fill: rgb(31, 119, 180); fill-opacity: 1;"></rect><rect class="node-capture" style="fill-opacity: 0;" x="-10" y="0" width="40" height="105.92427987999736"></rect><g class="node-entered" transform="translate(0,53.96213912963867)"><path class="node-label-guide" id="1657129193001 0 computer science__1" d="M24,0L1742,0" transform="matrix(1 0 0 1 0 0)"></path><text class="node-label" transform="scale(1 1)" style="cursor: default; fill: rgb(68, 68, 68); text-shadow: rgb(255, 255, 255) -1px 1px 1px, rgb(255, 255, 255) 1px 1px 1px, rgb(255, 255, 255) 1px -1px 1px, rgb(255, 255, 255) -1px -1px 1px; font-family: &quot;Open Sans&quot;, verdana, arial, sans-serif; font-size: 20px; fill-opacity: 1;"><textPath class="node-label-text-path" alignment-baseline="middle" xlink:href="#1657129193001 0 computer science__1" startOffset="0%" style="fill: rgb(0, 0, 0);" text-anchor="start">computer science</textPath></text></g></g><g class="sankey-node" transform="translate(0,105.92400360107422)"><rect class="node-rect" width="20" height="172.19128442087583" style="stroke-width: 0.1; stroke: rgb(0, 0, 0); stroke-opacity: 1; fill: rgb(255, 127, 14); fill-opacity: 1;"></rect><rect class="node-capture" style="fill-opacity: 0;" x="-10" y="0" width="40" height="172.19128442087583"></rect><g class="node-entered" transform="translate(0,87.09564208984375)"><path class="node-label-guide" id="1657129193001 0 mathematics__1" d="M24,0L1742,0" transform="matrix(1 0 0 1 0 0)"></path><text class="node-label" transform="scale(1 1)" style="cursor: default; fill: rgb(68, 68, 68); text-shadow: rgb(255, 255, 255) -1px 1px 1px, rgb(255, 255, 255) 1px 1px 1px, rgb(255, 255, 255) 1px -1px 1px, rgb(255, 255, 255) -1px -1px 1px; font-family: &quot;Open Sans&quot;, verdana, arial, sans-serif; font-size: 20px; fill-opacity: 1;"><textPath class="node-label-text-path" alignment-baseline="middle" xlink:href="#1657129193001 0 mathematics__1" startOffset="0%" style="fill: rgb(0, 0, 0);" text-anchor="start">mathematics</textPath></text></g></g><g class="sankey-node" transform="translate(0,278.1159973144531)"><rect class="node-rect" width="20" height="465.81364605803356" style="stroke-width: 0.1; stroke: rgb(0, 0, 0); stroke-opacity: 1; fill: rgb(44, 160, 44); fill-opacity: 1;"></rect><rect class="node-capture" style="fill-opacity: 0;" x="-10" y="0" width="40" height="465.81364605803356"></rect><g class="node-entered" transform="translate(0,233.90682983398438)"><path class="node-label-guide" id="1657129193001 0 physics__1" d="M24,0L1742,0" transform="matrix(1 0 0 1 0 0)"></path><text class="node-label" transform="scale(1 1)" style="cursor: default; fill: rgb(68, 68, 68); text-shadow: rgb(255, 255, 255) -1px 1px 1px, rgb(255, 255, 255) 1px 1px 1px, rgb(255, 255, 255) 1px -1px 1px, rgb(255, 255, 255) -1px -1px 1px; font-family: &quot;Open Sans&quot;, verdana, arial, sans-serif; font-size: 20px; fill-opacity: 1;"><textPath class="node-label-text-path" alignment-baseline="middle" xlink:href="#1657129193001 0 physics__1" startOffset="0%" style="fill: rgb(0, 0, 0);" text-anchor="start">physics</textPath></text></g></g><g class="sankey-node" transform="translate(0,743.9290161132812)"><rect class="node-rect" width="20" height="25.070789641093278" style="stroke-width: 0.1; stroke: rgb(0, 0, 0); stroke-opacity: 1; fill: rgb(214, 39, 40); fill-opacity: 1;"></rect><rect class="node-capture" style="fill-opacity: 0;" x="-10" y="0" width="40" height="25.070789641093278"></rect><g class="node-entered" transform="translate(0,13.535394668579102)"><path class="node-label-guide" id="1657129193001 0 other__1" d="M24,0L1742,0" transform="matrix(1 0 0 1 0 0)"></path><text class="node-label" transform="scale(1 1)" style="cursor: default; fill: rgb(68, 68, 68); text-shadow: rgb(255, 255, 255) -1px 1px 1px, rgb(255, 255, 255) 1px 1px 1px, rgb(255, 255, 255) 1px -1px 1px, rgb(255, 255, 255) -1px -1px 1px; font-family: &quot;Open Sans&quot;, verdana, arial, sans-serif; font-size: 20px; fill-opacity: 1;"><textPath class="node-label-text-path" alignment-baseline="middle" xlink:href="#1657129193001 0 other__1" startOffset="0%" style="fill: rgb(0, 0, 0);" text-anchor="start">other</textPath></text></g></g><g class="sankey-node" transform="translate(1722,0)"><rect class="node-rect" width="20" height="69.88102400797152" style="stroke-width: 0.1; stroke: rgb(0, 0, 0); stroke-opacity: 1; fill: rgb(31, 119, 180); fill-opacity: 1;"></rect><rect class="node-capture" style="fill-opacity: 0;" x="-10" y="0" width="40" height="69.88102400797152"></rect><g class="node-entered" transform="translate(0,35.940513610839844)"><path class="node-label-guide" id="1657129193001 0 computer science__2" d="M-1742,0L-4,0" transform="matrix(1 0 0 1 0 0)"></path><text class="node-label" transform="scale(1 1)" style="cursor: default; fill: rgb(68, 68, 68); text-shadow: rgb(255, 255, 255) -1px 1px 1px, rgb(255, 255, 255) 1px 1px 1px, rgb(255, 255, 255) 1px -1px 1px, rgb(255, 255, 255) -1px -1px 1px; font-family: &quot;Open Sans&quot;, verdana, arial, sans-serif; font-size: 20px; fill-opacity: 1;"><textPath class="node-label-text-path" alignment-baseline="middle" xlink:href="#1657129193001 0 computer science__2" startOffset="100%" style="fill: rgb(0, 0, 0);" text-anchor="end">computer science</textPath></text></g></g><g class="sankey-node" transform="translate(1722,69.88099670410156)"><rect class="node-rect" width="20" height="251.6771687902008" style="stroke-width: 0.1; stroke: rgb(0, 0, 0); stroke-opacity: 1; fill: rgb(255, 127, 14); fill-opacity: 1;"></rect><rect class="node-capture" style="fill-opacity: 0;" x="-10" y="0" width="40" height="251.6771687902008"></rect><g class="node-entered" transform="translate(0,126.83858489990234)"><path class="node-label-guide" id="1657129193001 0 mathematics__2" d="M-1742,0L-4,0" transform="matrix(1 0 0 1 0 0)"></path><text class="node-label" transform="scale(1 1)" style="cursor: default; fill: rgb(68, 68, 68); text-shadow: rgb(255, 255, 255) -1px 1px 1px, rgb(255, 255, 255) 1px 1px 1px, rgb(255, 255, 255) 1px -1px 1px, rgb(255, 255, 255) -1px -1px 1px; font-family: &quot;Open Sans&quot;, verdana, arial, sans-serif; font-size: 20px; fill-opacity: 1;"><textPath class="node-label-text-path" alignment-baseline="middle" xlink:href="#1657129193001 0 mathematics__2" startOffset="100%" style="fill: rgb(0, 0, 0);" text-anchor="end">mathematics</textPath></text></g></g><g class="sankey-node" transform="translate(1722,321.5580139160156)"><rect class="node-rect" width="20" height="394.5506805680033" style="stroke-width: 0.1; stroke: rgb(0, 0, 0); stroke-opacity: 1; fill: rgb(44, 160, 44); fill-opacity: 1;"></rect><rect class="node-capture" style="fill-opacity: 0;" x="-10" y="0" width="40" height="394.5506805680033"></rect><g class="node-entered" transform="translate(0,198.2753448486328)"><path class="node-label-guide" id="1657129193001 0 physics__2" d="M-1742,0L-4,0" transform="matrix(1 0 0 1 0 0)"></path><text class="node-label" transform="scale(1 1)" style="cursor: default; fill: rgb(68, 68, 68); text-shadow: rgb(255, 255, 255) -1px 1px 1px, rgb(255, 255, 255) 1px 1px 1px, rgb(255, 255, 255) 1px -1px 1px, rgb(255, 255, 255) -1px -1px 1px; font-family: &quot;Open Sans&quot;, verdana, arial, sans-serif; font-size: 20px; fill-opacity: 1;"><textPath class="node-label-text-path" alignment-baseline="middle" xlink:href="#1657129193001 0 physics__2" startOffset="100%" style="fill: rgb(0, 0, 0);" text-anchor="end">physics</textPath></text></g></g><g class="sankey-node" transform="translate(1722,716.1090087890625)"><rect class="node-rect" width="20" height="52.89112663382437" style="stroke-width: 0.1; stroke: rgb(0, 0, 0); stroke-opacity: 1; fill: rgb(214, 39, 40); fill-opacity: 1;"></rect><rect class="node-capture" style="fill-opacity: 0;" x="-10" y="0" width="40" height="52.89112663382437"></rect><g class="node-entered" transform="translate(0,27.44556427001953)"><path class="node-label-guide" id="1657129193001 0 other__2" d="M-1742,0L-4,0" transform="matrix(1 0 0 1 0 0)"></path><text class="node-label" transform="scale(1 1)" style="cursor: default; fill: rgb(68, 68, 68); text-shadow: rgb(255, 255, 255) -1px 1px 1px, rgb(255, 255, 255) 1px 1px 1px, rgb(255, 255, 255) 1px -1px 1px, rgb(255, 255, 255) -1px -1px 1px; font-family: &quot;Open Sans&quot;, verdana, arial, sans-serif; font-size: 20px; fill-opacity: 1;"><textPath class="node-label-text-path" alignment-baseline="middle" xlink:href="#1657129193001 0 other__2" startOffset="100%" style="fill: rgb(0, 0, 0);" text-anchor="end">other</textPath></text></g></g></g></g></svg><div class="gl-container"></div><svg class="main-svg" xmlns="http://www.w3.org/2000/svg" xmlns:xlink="http://www.w3.org/1999/xlink" width="1902" height="949"><defs id="topdefs-bf7407"><g class="clips"></g></defs><g class="layer-above"><g class="imagelayer"></g><g class="shapelayer"></g></g><g class="infolayer"><g class="g-gtitle"><text class="gtitle" style="font-family: &quot;Open Sans&quot;, verdana, arial, sans-serif; font-size: 28px; fill: rgb(68, 68, 68); opacity: 1; font-weight: normal; white-space: pre;" x="951" y="50" text-anchor="middle" dy="0em" data-unformatted="citation relations" data-math="N">citation relations</text></g></g><g class="menulayer"></g><g class="zoomlayer"></g><g class="hoverlayer"></g></svg><div id="modebar-bf7407" class="modebar modebar--hover"><div class="modebar-group"><a rel="tooltip" class="modebar-btn" data-title="Download plot as a png" data-toggle="false" data-gravity="n"><svg viewBox="0 0 1000 1000" class="icon" height="1em" width="1em"><path d="m500 450c-83 0-150-67-150-150 0-83 67-150 150-150 83 0 150 67 150 150 0 83-67 150-150 150z m400 150h-120c-16 0-34 13-39 29l-31 93c-6 15-23 28-40 28h-340c-16 0-34-13-39-28l-31-94c-6-15-23-28-40-28h-120c-55 0-100-45-100-100v-450c0-55 45-100 100-100h800c55 0 100 45 100 100v450c0 55-45 100-100 100z m-400-550c-138 0-250 112-250 250 0 138 112 250 250 250 138 0 250-112 250-250 0-138-112-250-250-250z m365 380c-19 0-35 16-35 35 0 19 16 35 35 35 19 0 35-16 35-35 0-19-16-35-35-35z" transform="matrix(1 0 0 -1 0 850)"></path></svg></a></div><div class="modebar-group"><a rel="tooltip" class="modebar-btn active" data-title="Toggle show closest data on hover" data-attr="hovermode" data-val="null" data-toggle="true" data-gravity="ne"><svg viewBox="0 0 1500 1000" class="icon" height="1em" width="1em"><path d="m375 725l0 0-375-375 375-374 0-1 1125 0 0 750-1125 0z" transform="matrix(1 0 0 -1 0 850)"></path></svg></a></div><div class="modebar-group"><a href="https://plot.ly/" target="_blank" data-title="Produced with Plotly" class="modebar-btn plotlyjsicon modebar-btn--logo"><svg xmlns="http://www.w3.org/2000/svg" viewBox="0 0 132 132" height="1em" width="1em"><defs><style>.cls-1 {fill: #119dff;} .cls-2 {fill: #25fefd;} .cls-3 {fill: #fff;}</style></defs><title>plotly-logomark</title><g id="symbol"><rect class="cls-1" width="132" height="132" rx="6" ry="6"></rect><circle class="cls-2" cx="78" cy="54" r="6"></circle><circle class="cls-2" cx="102" cy="30" r="6"></circle><circle class="cls-2" cx="78" cy="30" r="6"></circle><circle class="cls-2" cx="54" cy="30" r="6"></circle><circle class="cls-2" cx="30" cy="30" r="6"></circle><circle class="cls-2" cx="30" cy="54" r="6"></circle><path class="cls-3" d="M30,72a6,6,0,0,0-6,6v24a6,6,0,0,0,12,0V78A6,6,0,0,0,30,72Z"></path><path class="cls-3" d="M78,72a6,6,0,0,0-6,6v24a6,6,0,0,0,12,0V78A6,6,0,0,0,78,72Z"></path><path class="cls-3" d="M54,48a6,6,0,0,0-6,6v48a6,6,0,0,0,12,0V54A6,6,0,0,0,54,48Z"></path><path class="cls-3" d="M102,48a6,6,0,0,0-6,6v48a6,6,0,0,0,12,0V54A6,6,0,0,0,102,48Z"></path></g></svg>
