<svg class="main-svg" xmlns="http://www.w3.org/2000/svg" xmlns:xlink="http://www.w3.org/1999/xlink" width="1010" height="786" style="background: rgb(255, 255, 255) none repeat scroll 0% 0%;"><defs id="defs-654f57"><g class="clips"></g><g class="gradients"></g></defs><g class="bglayer"></g><g class="draglayer"></g><g class="layer-below"><g class="imagelayer"></g><g class="shapelayer"></g></g><g class="cartesianlayer"></g><g class="polarlayer"></g><g class="ternarylayer"></g><g class="geolayer"></g><g class="pielayer"></g><g class="glimages"></g><g class="sankey" style="box-sizing: content-box; position: absolute; left: 0px; shape-rendering: geometricprecision; pointer-events: auto;" transform="translate(80,100)matrix(1 0 0 1 0 0)"><g class="sankey-links" style="fill: none;"><path class="sankey-link" d="M20,2.842170943040401e-14C425,2.842170943040401e-14 425,1.4210854715202004e-14 830,1.4210854715202004e-14L830,53.25471511026495C425,53.25471511026495 425,53.25471511026496 20,53.25471511026496Z" style="stroke: rgb(68, 68, 68); stroke-opacity: 1; stroke-width: 0; fill: rgb(31, 119, 180); fill-opacity: 0.533333;"></path><path class="sankey-link" d="M20,53.25471511026496C425,53.25471511026496 425,71.27063321421248 830,71.27063321421248L830,103.47731534803867C425,103.47731534803867 425,85.46139724409116 20,85.46139724409116Z" style="stroke: rgb(68, 68, 68); stroke-opacity: 1; stroke-width: 0; fill: rgb(31, 119, 180); fill-opacity: 0.533333;"></path><path class="sankey-link" d="M20,87.43429068766352C425,87.43429068766352 425,560.8326590895302 830,560.8326590895302L830,569.3673926320229C425,569.3673926320229 425,95.96902423015618 20,95.96902423015618Z" style="stroke: rgb(68, 68, 68); stroke-opacity: 1; stroke-width: 0; fill: rgb(31, 119, 180); fill-opacity: 0.533333;"></path><path class="sankey-link" d="M20,85.46139724409116C425,85.46139724409116 425,263.53992813637444 830,263.53992813637444L830,265.51282157994683C425,265.51282157994683 425,87.43429068766352 20,87.43429068766352Z" style="stroke: rgb(68, 68, 68); stroke-opacity: 1; stroke-width: 0; fill: rgb(31, 119, 180); fill-opacity: 0.533333;"></path><path class="sankey-link" d="M20,102.54639922219611C425,102.54639922219611 425,103.47731534803867 830,103.47731534803867L830,215.42578132638832C425,215.42578132638832 425,214.49486520054575 20,214.49486520054575Z" style="stroke: rgb(68, 68, 68); stroke-opacity: 1; stroke-width: 0; fill: rgb(255, 127, 14); fill-opacity: 0.533333;"></path><path class="sankey-link" d="M20,214.49486520054575C425,214.49486520054575 425,265.51282157994683 830,265.51282157994683L830,272.25481326338183C425,272.25481326338183 425,221.23685688398075 20,221.23685688398075Z" style="stroke: rgb(68, 68, 68); stroke-opacity: 1; stroke-width: 0; fill: rgb(255, 127, 14); fill-opacity: 0.533333;"></path><path class="sankey-link" d="M20,221.23685688398078C425,221.23685688398078 425,569.3673926320229 830,569.3673926320229L830,574.2324729621382C425,574.2324729621382 425,226.10193721409615 20,226.10193721409615Z" style="stroke: rgb(68, 68, 68); stroke-opacity: 1; stroke-width: 0; fill: rgb(255, 127, 14); fill-opacity: 0.533333;"></path><path class="sankey-link" d="M20,95.96902423015617C425,95.96902423015617 425,53.25471511026495 830,53.25471511026495L830,59.83209010230489C425,59.83209010230489 425,102.54639922219611 20,102.54639922219611Z" style="stroke: rgb(68, 68, 68); stroke-opacity: 1; stroke-width: 0; fill: rgb(255, 127, 14); fill-opacity: 0.533333;"></path><path class="sankey-link" d="M20,268.81723388220524C425,268.81723388220524 425,272.25481326338183 830,272.25481326338183L830,558.77654571729C425,558.77654571729 425,555.3389663361133 20,555.3389663361133Z" style="stroke: rgb(68, 68, 68); stroke-opacity: 1; stroke-width: 0; fill: rgb(44, 160, 44); fill-opacity: 0.533333;"></path><path class="sankey-link" d="M20,555.3389663361133C425,555.3389663361133 425,574.2324729621382 830,574.2324729621382L830,598.255722840669C425,598.255722840669 425,579.3622162146441 20,579.3622162146441Z" style="stroke: rgb(68, 68, 68); stroke-opacity: 1; stroke-width: 0; fill: rgb(44, 160, 44); fill-opacity: 0.533333;"></path><path class="sankey-link" d="M20,232.07804727194508C425,232.07804727194508 425,215.4257813263883 830,215.4257813263883L830,252.16496793664845C425,252.16496793664845 425,268.81723388220524 20,268.81723388220524Z" style="stroke: rgb(68, 68, 68); stroke-opacity: 1; stroke-width: 0; fill: rgb(44, 160, 44); fill-opacity: 0.533333;"></path><path class="sankey-link" d="M20,226.10193721409615C425,226.10193721409615 425,59.83209010230489 830,59.83209010230489L830,65.8082001601538C425,65.8082001601538 425,232.07804727194508 20,232.07804727194508Z" style="stroke: rgb(68, 68, 68); stroke-opacity: 1; stroke-width: 0; fill: rgb(44, 160, 44); fill-opacity: 0.533333;"></path><path class="sankey-link" d="M20,584.8246492687028C425,584.8246492687028 425,252.16496793664845 830,252.16496793664845L830,263.5399281363744C425,263.5399281363744 425,596.1996094684288 20,596.1996094684288Z" style="stroke: rgb(68, 68, 68); stroke-opacity: 1; stroke-width: 0; fill: rgb(214, 39, 40); fill-opacity: 0.533333;"></path><path class="sankey-link" d="M20,579.3622162146441C425,579.3622162146441 425,65.8082001601538 830,65.8082001601538L830,71.27063321421248C425,71.27063321421248 425,584.8246492687028 20,584.8246492687028Z" style="stroke: rgb(68, 68, 68); stroke-opacity: 1; stroke-width: 0; fill: rgb(214, 39, 40); fill-opacity: 0.533333;"></path><path class="sankey-link" d="M20,596.1996094684288C425,596.1996094684288 425,558.77654571729 830,558.77654571729L830,560.8326590895302C425,560.8326590895302 425,598.255722840669 20,598.255722840669Z" style="stroke: rgb(68, 68, 68); stroke-opacity: 1; stroke-width: 0; fill: rgb(214, 39, 40); fill-opacity: 0.533333;"></path><path class="sankey-link" d="M20,598.255722840669C425,598.255722840669 425,598.2557228406691 830,598.2557228406691L830,606.0000000000001C425,606.0000000000001 425,606 20,606Z" style="stroke: rgb(68, 68, 68); stroke-opacity: 1; stroke-width: 0; fill: rgb(214, 39, 40); fill-opacity: 0.533333;"></path></g><g class="sankey-node-set" style="cursor: move;"><g class="sankey-node" transform="translate(0.000, 0.000)"><rect class="node-rect" width="20" height="95.96902423015614" style="stroke-width: 0.1; stroke: rgb(0, 0, 0); stroke-opacity: 1; fill: rgb(31, 119, 180); fill-opacity: 1;"></rect><rect class="node-capture" style="fill-opacity: 0;" x="-10" y="0" width="40" height="95.96902423015614"></rect><g class="node-entered" transform="translate(0,48.98451232910156)"><path class="node-label-guide" id="1987794834995 0 computer science__1" d="M24,0L850,0" transform="matrix(1 0 0 1 0 0)"></path><text class="node-label" transform="scale(1 1)" style="cursor: default; fill: rgb(68, 68, 68); text-shadow: rgb(255, 255, 255) -1px 1px 1px, rgb(255, 255, 255) 1px 1px 1px, rgb(255, 255, 255) 1px -1px 1px, rgb(255, 255, 255) -1px -1px 1px; font-family: &quot;Open Sans&quot;, verdana, arial, sans-serif; font-size: 20px; fill-opacity: 1;"><textPath class="node-label-text-path" alignment-baseline="middle" xlink:href="#1987794834995 0 computer science__1" startOffset="0%" style="fill: rgb(0, 0, 0);" text-anchor="start">computer science</textPath></text></g></g><g class="sankey-node" transform="translate(0,95.96900177001953)"><rect class="node-rect" width="20" height="130.13291298393997" style="stroke-width: 0.1; stroke: rgb(0, 0, 0); stroke-opacity: 1; fill: rgb(255, 127, 14); fill-opacity: 1;"></rect><rect class="node-capture" style="fill-opacity: 0;" x="-10" y="0" width="40" height="130.13291298393997"></rect><g class="node-entered" transform="translate(0,66.06645965576172)"><path class="node-label-guide" id="1987794834995 0 mathematics__1" d="M24,0L850,0" transform="matrix(1 0 0 1 0 0)"></path><text class="node-label" transform="scale(1 1)" style="cursor: default; fill: rgb(68, 68, 68); text-shadow: rgb(255, 255, 255) -1px 1px 1px, rgb(255, 255, 255) 1px 1px 1px, rgb(255, 255, 255) 1px -1px 1px, rgb(255, 255, 255) -1px -1px 1px; font-family: &quot;Open Sans&quot;, verdana, arial, sans-serif; font-size: 20px; fill-opacity: 1;"><textPath class="node-label-text-path" alignment-baseline="middle" xlink:href="#1987794834995 0 mathematics__1" startOffset="0%" style="fill: rgb(0, 0, 0);" text-anchor="start">mathematics</textPath></text></g></g><g class="sankey-node" transform="translate(0,226.1020050048828)"><rect class="node-rect" width="20" height="353.26027900054805" style="stroke-width: 0.1; stroke: rgb(0, 0, 0); stroke-opacity: 1; fill: rgb(44, 160, 44); fill-opacity: 1;"></rect><rect class="node-capture" style="fill-opacity: 0;" x="-10" y="0" width="40" height="353.26027900054805"></rect><g class="node-entered" transform="translate(0,177.63014221191406)"><path class="node-label-guide" id="1987794834995 0 physics__1" d="M24,0L850,0" transform="matrix(1 0 0 1 0 0)"></path><text class="node-label" transform="scale(1 1)" style="cursor: default; fill: rgb(68, 68, 68); text-shadow: rgb(255, 255, 255) -1px 1px 1px, rgb(255, 255, 255) 1px 1px 1px, rgb(255, 255, 255) 1px -1px 1px, rgb(255, 255, 255) -1px -1px 1px; font-family: &quot;Open Sans&quot;, verdana, arial, sans-serif; font-size: 20px; fill-opacity: 1;"><textPath class="node-label-text-path" alignment-baseline="middle" xlink:href="#1987794834995 0 physics__1" startOffset="0%" style="fill: rgb(0, 0, 0);" text-anchor="start">physics</textPath></text></g></g><g class="sankey-node" transform="translate(0,579.3619995117188)"><rect class="node-rect" width="20" height="26.637783785355804" style="stroke-width: 0.1; stroke: rgb(0, 0, 0); stroke-opacity: 1; fill: rgb(214, 39, 40); fill-opacity: 1;"></rect><rect class="node-capture" style="fill-opacity: 0;" x="-10" y="0" width="40" height="26.637783785355804"></rect><g class="node-entered" transform="translate(0,14.318891525268555)"><path class="node-label-guide" id="1987794834995 0 other__1" d="M24,0L850,0" transform="matrix(1 0 0 1 0 0)"></path><text class="node-label" transform="scale(1 1)" style="cursor: default; fill: rgb(68, 68, 68); text-shadow: rgb(255, 255, 255) -1px 1px 1px, rgb(255, 255, 255) 1px 1px 1px, rgb(255, 255, 255) 1px -1px 1px, rgb(255, 255, 255) -1px -1px 1px; font-family: &quot;Open Sans&quot;, verdana, arial, sans-serif; font-size: 20px; fill-opacity: 1;"><textPath class="node-label-text-path" alignment-baseline="middle" xlink:href="#1987794834995 0 other__1" startOffset="0%" style="fill: rgb(0, 0, 0);" text-anchor="start">other</textPath></text></g></g><g class="sankey-node" transform="translate(830,0)"><rect class="node-rect" width="20" height="71.27063321421247" style="stroke-width: 0.1; stroke: rgb(0, 0, 0); stroke-opacity: 1; fill: rgb(31, 119, 180); fill-opacity: 1;"></rect><rect class="node-capture" style="fill-opacity: 0;" x="-10" y="0" width="40" height="71.27063321421247"></rect><g class="node-entered" transform="translate(0,36.63531494140625)"><path class="node-label-guide" id="1987794834995 0 computer science__2" d="M-850,0L-4,0" transform="matrix(1 0 0 1 0 0)"></path><text class="node-label" transform="scale(1 1)" style="cursor: default; fill: rgb(68, 68, 68); text-shadow: rgb(255, 255, 255) -1px 1px 1px, rgb(255, 255, 255) 1px 1px 1px, rgb(255, 255, 255) 1px -1px 1px, rgb(255, 255, 255) -1px -1px 1px; font-family: &quot;Open Sans&quot;, verdana, arial, sans-serif; font-size: 20px; fill-opacity: 1;"><textPath class="node-label-text-path" alignment-baseline="middle" xlink:href="#1987794834995 0 computer science__2" startOffset="100%" style="fill: rgb(0, 0, 0);" text-anchor="end">computer science</textPath></text></g></g><g class="sankey-node" transform="translate(830,71.27100372314453)"><rect class="node-rect" width="20" height="192.26929492216195" style="stroke-width: 0.1; stroke: rgb(0, 0, 0); stroke-opacity: 1; fill: rgb(255, 127, 14); fill-opacity: 1;"></rect><rect class="node-capture" style="fill-opacity: 0;" x="-10" y="0" width="40" height="192.26929492216195"></rect><g class="node-entered" transform="translate(0,97.13465118408203)"><path class="node-label-guide" id="1987794834995 0 mathematics__2" d="M-850,0L-4,0" transform="matrix(1 0 0 1 0 0)"></path><text class="node-label" transform="scale(1 1)" style="cursor: default; fill: rgb(68, 68, 68); text-shadow: rgb(255, 255, 255) -1px 1px 1px, rgb(255, 255, 255) 1px 1px 1px, rgb(255, 255, 255) 1px -1px 1px, rgb(255, 255, 255) -1px -1px 1px; font-family: &quot;Open Sans&quot;, verdana, arial, sans-serif; font-size: 20px; fill-opacity: 1;"><textPath class="node-label-text-path" alignment-baseline="middle" xlink:href="#1987794834995 0 mathematics__2" startOffset="100%" style="fill: rgb(0, 0, 0);" text-anchor="end">mathematics</textPath></text></g></g><g class="sankey-node" transform="translate(830,263.5400085449219)"><rect class="node-rect" width="20" height="297.29273095315574" style="stroke-width: 0.1; stroke: rgb(0, 0, 0); stroke-opacity: 1; fill: rgb(44, 160, 44); fill-opacity: 1;"></rect><rect class="node-capture" style="fill-opacity: 0;" x="-10" y="0" width="40" height="297.29273095315574"></rect><g class="node-entered" transform="translate(0,149.6463623046875)"><path class="node-label-guide" id="1987794834995 0 physics__2" d="M-850,0L-4,0" transform="matrix(1 0 0 1 0 0)"></path><text class="node-label" transform="scale(1 1)" style="cursor: default; fill: rgb(68, 68, 68); text-shadow: rgb(255, 255, 255) -1px 1px 1px, rgb(255, 255, 255) 1px 1px 1px, rgb(255, 255, 255) 1px -1px 1px, rgb(255, 255, 255) -1px -1px 1px; font-family: &quot;Open Sans&quot;, verdana, arial, sans-serif; font-size: 20px; fill-opacity: 1;"><textPath class="node-label-text-path" alignment-baseline="middle" xlink:href="#1987794834995 0 physics__2" startOffset="100%" style="fill: rgb(0, 0, 0);" text-anchor="end">physics</textPath></text></g></g><g class="sankey-node" transform="translate(830,560.8330078125)"><rect class="node-rect" width="20" height="45.16734091046981" style="stroke-width: 0.1; stroke: rgb(0, 0, 0); stroke-opacity: 1; fill: rgb(214, 39, 40); fill-opacity: 1;"></rect><rect class="node-capture" style="fill-opacity: 0;" x="-10" y="0" width="40" height="45.16734091046981"></rect><g class="node-entered" transform="translate(0,23.583669662475586)"><path class="node-label-guide" id="1987794834995 0 other__2" d="M-850,0L-4,0" transform="matrix(1 0 0 1 0 0)"></path><text class="node-label" transform="scale(1 1)" style="cursor: default; fill: rgb(68, 68, 68); text-shadow: rgb(255, 255, 255) -1px 1px 1px, rgb(255, 255, 255) 1px 1px 1px, rgb(255, 255, 255) 1px -1px 1px, rgb(255, 255, 255) -1px -1px 1px; font-family: &quot;Open Sans&quot;, verdana, arial, sans-serif; font-size: 20px; fill-opacity: 1;"><textPath class="node-label-text-path" alignment-baseline="middle" xlink:href="#1987794834995 0 other__2" startOffset="100%" style="fill: rgb(0, 0, 0);" text-anchor="end">other</textPath></text></g></g></g></g></svg>
