<?xml version="1.0" encoding="utf-8" standalone="no"?>
<!DOCTYPE svg PUBLIC "-//W3C//DTD SVG 1.1//EN"
  "http://www.w3.org/Graphics/SVG/1.1/DTD/svg11.dtd">
<!-- Created with matplotlib (https://matplotlib.org/) -->
<svg height="345.6pt" version="1.1" viewBox="0 0 460.8 345.6" width="460.8pt" xmlns="http://www.w3.org/2000/svg" xmlns:xlink="http://www.w3.org/1999/xlink">
 <defs>
  <style type="text/css">
*{stroke-linecap:butt;stroke-linejoin:round;}
  </style>
 </defs>
 <g id="figure_1">
  <g id="patch_1">
   <path d="M 0 345.6 
L 460.8 345.6 
L 460.8 0 
L 0 0 
z
" style="fill:#ffffff;"/>
  </g>
  <g id="axes_1">
   <g id="patch_2">
    <path d="M 57.6 307.584 
L 414.72 307.584 
L 414.72 41.472 
L 57.6 41.472 
z
" style="fill:#ffffff;"/>
   </g>
   <g id="matplotlib.axis_1">
    <g id="xtick_1">
     <g id="line2d_1">
      <path clip-path="url(#pbe0731efb4)" d="M 73.832727 307.584 
L 73.832727 41.472 
" style="fill:none;stroke:#b0b0b0;stroke-linecap:square;stroke-width:0.8;"/>
     </g>
     <g id="line2d_2">
      <defs>
       <path d="M 0 0 
L 0 3.5 
" id="m68bb7ba751" style="stroke:#000000;stroke-width:0.8;"/>
      </defs>
      <g>
       <use style="stroke:#000000;stroke-width:0.8;" x="73.832727" xlink:href="#m68bb7ba751" y="307.584"/>
      </g>
     </g>
     <g id="text_1">
      <!-- −5 -->
      <defs>
       <path d="M 10.59375 35.5 
L 73.1875 35.5 
L 73.1875 27.203125 
L 10.59375 27.203125 
z
" id="DejaVuSans-8722"/>
       <path d="M 10.796875 72.90625 
L 49.515625 72.90625 
L 49.515625 64.59375 
L 19.828125 64.59375 
L 19.828125 46.734375 
Q 21.96875 47.46875 24.109375 47.828125 
Q 26.265625 48.1875 28.421875 48.1875 
Q 40.625 48.1875 47.75 41.5 
Q 54.890625 34.8125 54.890625 23.390625 
Q 54.890625 11.625 47.5625 5.09375 
Q 40.234375 -1.421875 26.90625 -1.421875 
Q 22.3125 -1.421875 17.546875 -0.640625 
Q 12.796875 0.140625 7.71875 1.703125 
L 7.71875 11.625 
Q 12.109375 9.234375 16.796875 8.0625 
Q 21.484375 6.890625 26.703125 6.890625 
Q 35.15625 6.890625 40.078125 11.328125 
Q 45.015625 15.765625 45.015625 23.390625 
Q 45.015625 31 40.078125 35.4375 
Q 35.15625 39.890625 26.703125 39.890625 
Q 22.75 39.890625 18.8125 39.015625 
Q 14.890625 38.140625 10.796875 36.28125 
z
" id="DejaVuSans-53"/>
      </defs>
      <g transform="translate(66.461634 322.182437)scale(0.1 -0.1)">
       <use xlink:href="#DejaVuSans-8722"/>
       <use x="83.789062" xlink:href="#DejaVuSans-53"/>
      </g>
     </g>
    </g>
    <g id="xtick_2">
     <g id="line2d_3">
      <path clip-path="url(#pbe0731efb4)" d="M 106.298182 307.584 
L 106.298182 41.472 
" style="fill:none;stroke:#b0b0b0;stroke-linecap:square;stroke-width:0.8;"/>
     </g>
     <g id="line2d_4">
      <g>
       <use style="stroke:#000000;stroke-width:0.8;" x="106.298182" xlink:href="#m68bb7ba751" y="307.584"/>
      </g>
     </g>
     <g id="text_2">
      <!-- −4 -->
      <defs>
       <path d="M 37.796875 64.3125 
L 12.890625 25.390625 
L 37.796875 25.390625 
z
M 35.203125 72.90625 
L 47.609375 72.90625 
L 47.609375 25.390625 
L 58.015625 25.390625 
L 58.015625 17.1875 
L 47.609375 17.1875 
L 47.609375 0 
L 37.796875 0 
L 37.796875 17.1875 
L 4.890625 17.1875 
L 4.890625 26.703125 
z
" id="DejaVuSans-52"/>
      </defs>
      <g transform="translate(98.927088 322.182437)scale(0.1 -0.1)">
       <use xlink:href="#DejaVuSans-8722"/>
       <use x="83.789062" xlink:href="#DejaVuSans-52"/>
      </g>
     </g>
    </g>
    <g id="xtick_3">
     <g id="line2d_5">
      <path clip-path="url(#pbe0731efb4)" d="M 138.763636 307.584 
L 138.763636 41.472 
" style="fill:none;stroke:#b0b0b0;stroke-linecap:square;stroke-width:0.8;"/>
     </g>
     <g id="line2d_6">
      <g>
       <use style="stroke:#000000;stroke-width:0.8;" x="138.763636" xlink:href="#m68bb7ba751" y="307.584"/>
      </g>
     </g>
     <g id="text_3">
      <!-- −3 -->
      <defs>
       <path d="M 40.578125 39.3125 
Q 47.65625 37.796875 51.625 33 
Q 55.609375 28.21875 55.609375 21.1875 
Q 55.609375 10.40625 48.1875 4.484375 
Q 40.765625 -1.421875 27.09375 -1.421875 
Q 22.515625 -1.421875 17.65625 -0.515625 
Q 12.796875 0.390625 7.625 2.203125 
L 7.625 11.71875 
Q 11.71875 9.328125 16.59375 8.109375 
Q 21.484375 6.890625 26.8125 6.890625 
Q 36.078125 6.890625 40.9375 10.546875 
Q 45.796875 14.203125 45.796875 21.1875 
Q 45.796875 27.640625 41.28125 31.265625 
Q 36.765625 34.90625 28.71875 34.90625 
L 20.21875 34.90625 
L 20.21875 43.015625 
L 29.109375 43.015625 
Q 36.375 43.015625 40.234375 45.921875 
Q 44.09375 48.828125 44.09375 54.296875 
Q 44.09375 59.90625 40.109375 62.90625 
Q 36.140625 65.921875 28.71875 65.921875 
Q 24.65625 65.921875 20.015625 65.03125 
Q 15.375 64.15625 9.8125 62.3125 
L 9.8125 71.09375 
Q 15.4375 72.65625 20.34375 73.4375 
Q 25.25 74.21875 29.59375 74.21875 
Q 40.828125 74.21875 47.359375 69.109375 
Q 53.90625 64.015625 53.90625 55.328125 
Q 53.90625 49.265625 50.4375 45.09375 
Q 46.96875 40.921875 40.578125 39.3125 
z
" id="DejaVuSans-51"/>
      </defs>
      <g transform="translate(131.392543 322.182437)scale(0.1 -0.1)">
       <use xlink:href="#DejaVuSans-8722"/>
       <use x="83.789062" xlink:href="#DejaVuSans-51"/>
      </g>
     </g>
    </g>
    <g id="xtick_4">
     <g id="line2d_7">
      <path clip-path="url(#pbe0731efb4)" d="M 171.229091 307.584 
L 171.229091 41.472 
" style="fill:none;stroke:#b0b0b0;stroke-linecap:square;stroke-width:0.8;"/>
     </g>
     <g id="line2d_8">
      <g>
       <use style="stroke:#000000;stroke-width:0.8;" x="171.229091" xlink:href="#m68bb7ba751" y="307.584"/>
      </g>
     </g>
     <g id="text_4">
      <!-- −2 -->
      <defs>
       <path d="M 19.1875 8.296875 
L 53.609375 8.296875 
L 53.609375 0 
L 7.328125 0 
L 7.328125 8.296875 
Q 12.9375 14.109375 22.625 23.890625 
Q 32.328125 33.6875 34.8125 36.53125 
Q 39.546875 41.84375 41.421875 45.53125 
Q 43.3125 49.21875 43.3125 52.78125 
Q 43.3125 58.59375 39.234375 62.25 
Q 35.15625 65.921875 28.609375 65.921875 
Q 23.96875 65.921875 18.8125 64.3125 
Q 13.671875 62.703125 7.8125 59.421875 
L 7.8125 69.390625 
Q 13.765625 71.78125 18.9375 73 
Q 24.125 74.21875 28.421875 74.21875 
Q 39.75 74.21875 46.484375 68.546875 
Q 53.21875 62.890625 53.21875 53.421875 
Q 53.21875 48.921875 51.53125 44.890625 
Q 49.859375 40.875 45.40625 35.40625 
Q 44.1875 33.984375 37.640625 27.21875 
Q 31.109375 20.453125 19.1875 8.296875 
z
" id="DejaVuSans-50"/>
      </defs>
      <g transform="translate(163.857997 322.182437)scale(0.1 -0.1)">
       <use xlink:href="#DejaVuSans-8722"/>
       <use x="83.789062" xlink:href="#DejaVuSans-50"/>
      </g>
     </g>
    </g>
    <g id="xtick_5">
     <g id="line2d_9">
      <path clip-path="url(#pbe0731efb4)" d="M 203.694545 307.584 
L 203.694545 41.472 
" style="fill:none;stroke:#b0b0b0;stroke-linecap:square;stroke-width:0.8;"/>
     </g>
     <g id="line2d_10">
      <g>
       <use style="stroke:#000000;stroke-width:0.8;" x="203.694545" xlink:href="#m68bb7ba751" y="307.584"/>
      </g>
     </g>
     <g id="text_5">
      <!-- −1 -->
      <defs>
       <path d="M 12.40625 8.296875 
L 28.515625 8.296875 
L 28.515625 63.921875 
L 10.984375 60.40625 
L 10.984375 69.390625 
L 28.421875 72.90625 
L 38.28125 72.90625 
L 38.28125 8.296875 
L 54.390625 8.296875 
L 54.390625 0 
L 12.40625 0 
z
" id="DejaVuSans-49"/>
      </defs>
      <g transform="translate(196.323452 322.182437)scale(0.1 -0.1)">
       <use xlink:href="#DejaVuSans-8722"/>
       <use x="83.789062" xlink:href="#DejaVuSans-49"/>
      </g>
     </g>
    </g>
    <g id="xtick_6">
     <g id="line2d_11">
      <path clip-path="url(#pbe0731efb4)" d="M 236.16 307.584 
L 236.16 41.472 
" style="fill:none;stroke:#b0b0b0;stroke-linecap:square;stroke-width:0.8;"/>
     </g>
     <g id="line2d_12">
      <g>
       <use style="stroke:#000000;stroke-width:0.8;" x="236.16" xlink:href="#m68bb7ba751" y="307.584"/>
      </g>
     </g>
     <g id="text_6">
      <!-- 0 -->
      <defs>
       <path d="M 31.78125 66.40625 
Q 24.171875 66.40625 20.328125 58.90625 
Q 16.5 51.421875 16.5 36.375 
Q 16.5 21.390625 20.328125 13.890625 
Q 24.171875 6.390625 31.78125 6.390625 
Q 39.453125 6.390625 43.28125 13.890625 
Q 47.125 21.390625 47.125 36.375 
Q 47.125 51.421875 43.28125 58.90625 
Q 39.453125 66.40625 31.78125 66.40625 
z
M 31.78125 74.21875 
Q 44.046875 74.21875 50.515625 64.515625 
Q 56.984375 54.828125 56.984375 36.375 
Q 56.984375 17.96875 50.515625 8.265625 
Q 44.046875 -1.421875 31.78125 -1.421875 
Q 19.53125 -1.421875 13.0625 8.265625 
Q 6.59375 17.96875 6.59375 36.375 
Q 6.59375 54.828125 13.0625 64.515625 
Q 19.53125 74.21875 31.78125 74.21875 
z
" id="DejaVuSans-48"/>
      </defs>
      <g transform="translate(232.97875 322.182437)scale(0.1 -0.1)">
       <use xlink:href="#DejaVuSans-48"/>
      </g>
     </g>
    </g>
    <g id="xtick_7">
     <g id="line2d_13">
      <path clip-path="url(#pbe0731efb4)" d="M 268.625455 307.584 
L 268.625455 41.472 
" style="fill:none;stroke:#b0b0b0;stroke-linecap:square;stroke-width:0.8;"/>
     </g>
     <g id="line2d_14">
      <g>
       <use style="stroke:#000000;stroke-width:0.8;" x="268.625455" xlink:href="#m68bb7ba751" y="307.584"/>
      </g>
     </g>
     <g id="text_7">
      <!-- 1 -->
      <g transform="translate(265.444205 322.182437)scale(0.1 -0.1)">
       <use xlink:href="#DejaVuSans-49"/>
      </g>
     </g>
    </g>
    <g id="xtick_8">
     <g id="line2d_15">
      <path clip-path="url(#pbe0731efb4)" d="M 301.090909 307.584 
L 301.090909 41.472 
" style="fill:none;stroke:#b0b0b0;stroke-linecap:square;stroke-width:0.8;"/>
     </g>
     <g id="line2d_16">
      <g>
       <use style="stroke:#000000;stroke-width:0.8;" x="301.090909" xlink:href="#m68bb7ba751" y="307.584"/>
      </g>
     </g>
     <g id="text_8">
      <!-- 2 -->
      <g transform="translate(297.909659 322.182437)scale(0.1 -0.1)">
       <use xlink:href="#DejaVuSans-50"/>
      </g>
     </g>
    </g>
    <g id="xtick_9">
     <g id="line2d_17">
      <path clip-path="url(#pbe0731efb4)" d="M 333.556364 307.584 
L 333.556364 41.472 
" style="fill:none;stroke:#b0b0b0;stroke-linecap:square;stroke-width:0.8;"/>
     </g>
     <g id="line2d_18">
      <g>
       <use style="stroke:#000000;stroke-width:0.8;" x="333.556364" xlink:href="#m68bb7ba751" y="307.584"/>
      </g>
     </g>
     <g id="text_9">
      <!-- 3 -->
      <g transform="translate(330.375114 322.182437)scale(0.1 -0.1)">
       <use xlink:href="#DejaVuSans-51"/>
      </g>
     </g>
    </g>
    <g id="xtick_10">
     <g id="line2d_19">
      <path clip-path="url(#pbe0731efb4)" d="M 366.021818 307.584 
L 366.021818 41.472 
" style="fill:none;stroke:#b0b0b0;stroke-linecap:square;stroke-width:0.8;"/>
     </g>
     <g id="line2d_20">
      <g>
       <use style="stroke:#000000;stroke-width:0.8;" x="366.021818" xlink:href="#m68bb7ba751" y="307.584"/>
      </g>
     </g>
     <g id="text_10">
      <!-- 4 -->
      <g transform="translate(362.840568 322.182437)scale(0.1 -0.1)">
       <use xlink:href="#DejaVuSans-52"/>
      </g>
     </g>
    </g>
    <g id="text_11">
     <!-- word position relative to citation -->
     <defs>
      <path d="M 4.203125 54.6875 
L 13.1875 54.6875 
L 24.421875 12.015625 
L 35.59375 54.6875 
L 46.1875 54.6875 
L 57.421875 12.015625 
L 68.609375 54.6875 
L 77.59375 54.6875 
L 63.28125 0 
L 52.6875 0 
L 40.921875 44.828125 
L 29.109375 0 
L 18.5 0 
z
" id="DejaVuSans-119"/>
      <path d="M 30.609375 48.390625 
Q 23.390625 48.390625 19.1875 42.75 
Q 14.984375 37.109375 14.984375 27.296875 
Q 14.984375 17.484375 19.15625 11.84375 
Q 23.34375 6.203125 30.609375 6.203125 
Q 37.796875 6.203125 41.984375 11.859375 
Q 46.1875 17.53125 46.1875 27.296875 
Q 46.1875 37.015625 41.984375 42.703125 
Q 37.796875 48.390625 30.609375 48.390625 
z
M 30.609375 56 
Q 42.328125 56 49.015625 48.375 
Q 55.71875 40.765625 55.71875 27.296875 
Q 55.71875 13.875 49.015625 6.21875 
Q 42.328125 -1.421875 30.609375 -1.421875 
Q 18.84375 -1.421875 12.171875 6.21875 
Q 5.515625 13.875 5.515625 27.296875 
Q 5.515625 40.765625 12.171875 48.375 
Q 18.84375 56 30.609375 56 
z
" id="DejaVuSans-111"/>
      <path d="M 41.109375 46.296875 
Q 39.59375 47.171875 37.8125 47.578125 
Q 36.03125 48 33.890625 48 
Q 26.265625 48 22.1875 43.046875 
Q 18.109375 38.09375 18.109375 28.8125 
L 18.109375 0 
L 9.078125 0 
L 9.078125 54.6875 
L 18.109375 54.6875 
L 18.109375 46.1875 
Q 20.953125 51.171875 25.484375 53.578125 
Q 30.03125 56 36.53125 56 
Q 37.453125 56 38.578125 55.875 
Q 39.703125 55.765625 41.0625 55.515625 
z
" id="DejaVuSans-114"/>
      <path d="M 45.40625 46.390625 
L 45.40625 75.984375 
L 54.390625 75.984375 
L 54.390625 0 
L 45.40625 0 
L 45.40625 8.203125 
Q 42.578125 3.328125 38.25 0.953125 
Q 33.9375 -1.421875 27.875 -1.421875 
Q 17.96875 -1.421875 11.734375 6.484375 
Q 5.515625 14.40625 5.515625 27.296875 
Q 5.515625 40.1875 11.734375 48.09375 
Q 17.96875 56 27.875 56 
Q 33.9375 56 38.25 53.625 
Q 42.578125 51.265625 45.40625 46.390625 
z
M 14.796875 27.296875 
Q 14.796875 17.390625 18.875 11.75 
Q 22.953125 6.109375 30.078125 6.109375 
Q 37.203125 6.109375 41.296875 11.75 
Q 45.40625 17.390625 45.40625 27.296875 
Q 45.40625 37.203125 41.296875 42.84375 
Q 37.203125 48.484375 30.078125 48.484375 
Q 22.953125 48.484375 18.875 42.84375 
Q 14.796875 37.203125 14.796875 27.296875 
z
" id="DejaVuSans-100"/>
      <path id="DejaVuSans-32"/>
      <path d="M 18.109375 8.203125 
L 18.109375 -20.796875 
L 9.078125 -20.796875 
L 9.078125 54.6875 
L 18.109375 54.6875 
L 18.109375 46.390625 
Q 20.953125 51.265625 25.265625 53.625 
Q 29.59375 56 35.59375 56 
Q 45.5625 56 51.78125 48.09375 
Q 58.015625 40.1875 58.015625 27.296875 
Q 58.015625 14.40625 51.78125 6.484375 
Q 45.5625 -1.421875 35.59375 -1.421875 
Q 29.59375 -1.421875 25.265625 0.953125 
Q 20.953125 3.328125 18.109375 8.203125 
z
M 48.6875 27.296875 
Q 48.6875 37.203125 44.609375 42.84375 
Q 40.53125 48.484375 33.40625 48.484375 
Q 26.265625 48.484375 22.1875 42.84375 
Q 18.109375 37.203125 18.109375 27.296875 
Q 18.109375 17.390625 22.1875 11.75 
Q 26.265625 6.109375 33.40625 6.109375 
Q 40.53125 6.109375 44.609375 11.75 
Q 48.6875 17.390625 48.6875 27.296875 
z
" id="DejaVuSans-112"/>
      <path d="M 44.28125 53.078125 
L 44.28125 44.578125 
Q 40.484375 46.53125 36.375 47.5 
Q 32.28125 48.484375 27.875 48.484375 
Q 21.1875 48.484375 17.84375 46.4375 
Q 14.5 44.390625 14.5 40.28125 
Q 14.5 37.15625 16.890625 35.375 
Q 19.28125 33.59375 26.515625 31.984375 
L 29.59375 31.296875 
Q 39.15625 29.25 43.1875 25.515625 
Q 47.21875 21.78125 47.21875 15.09375 
Q 47.21875 7.46875 41.1875 3.015625 
Q 35.15625 -1.421875 24.609375 -1.421875 
Q 20.21875 -1.421875 15.453125 -0.5625 
Q 10.6875 0.296875 5.421875 2 
L 5.421875 11.28125 
Q 10.40625 8.6875 15.234375 7.390625 
Q 20.0625 6.109375 24.8125 6.109375 
Q 31.15625 6.109375 34.5625 8.28125 
Q 37.984375 10.453125 37.984375 14.40625 
Q 37.984375 18.0625 35.515625 20.015625 
Q 33.0625 21.96875 24.703125 23.78125 
L 21.578125 24.515625 
Q 13.234375 26.265625 9.515625 29.90625 
Q 5.8125 33.546875 5.8125 39.890625 
Q 5.8125 47.609375 11.28125 51.796875 
Q 16.75 56 26.8125 56 
Q 31.78125 56 36.171875 55.265625 
Q 40.578125 54.546875 44.28125 53.078125 
z
" id="DejaVuSans-115"/>
      <path d="M 9.421875 54.6875 
L 18.40625 54.6875 
L 18.40625 0 
L 9.421875 0 
z
M 9.421875 75.984375 
L 18.40625 75.984375 
L 18.40625 64.59375 
L 9.421875 64.59375 
z
" id="DejaVuSans-105"/>
      <path d="M 18.3125 70.21875 
L 18.3125 54.6875 
L 36.8125 54.6875 
L 36.8125 47.703125 
L 18.3125 47.703125 
L 18.3125 18.015625 
Q 18.3125 11.328125 20.140625 9.421875 
Q 21.96875 7.515625 27.59375 7.515625 
L 36.8125 7.515625 
L 36.8125 0 
L 27.59375 0 
Q 17.1875 0 13.234375 3.875 
Q 9.28125 7.765625 9.28125 18.015625 
L 9.28125 47.703125 
L 2.6875 47.703125 
L 2.6875 54.6875 
L 9.28125 54.6875 
L 9.28125 70.21875 
z
" id="DejaVuSans-116"/>
      <path d="M 54.890625 33.015625 
L 54.890625 0 
L 45.90625 0 
L 45.90625 32.71875 
Q 45.90625 40.484375 42.875 44.328125 
Q 39.84375 48.1875 33.796875 48.1875 
Q 26.515625 48.1875 22.3125 43.546875 
Q 18.109375 38.921875 18.109375 30.90625 
L 18.109375 0 
L 9.078125 0 
L 9.078125 54.6875 
L 18.109375 54.6875 
L 18.109375 46.1875 
Q 21.34375 51.125 25.703125 53.5625 
Q 30.078125 56 35.796875 56 
Q 45.21875 56 50.046875 50.171875 
Q 54.890625 44.34375 54.890625 33.015625 
z
" id="DejaVuSans-110"/>
      <path d="M 56.203125 29.59375 
L 56.203125 25.203125 
L 14.890625 25.203125 
Q 15.484375 15.921875 20.484375 11.0625 
Q 25.484375 6.203125 34.421875 6.203125 
Q 39.59375 6.203125 44.453125 7.46875 
Q 49.3125 8.734375 54.109375 11.28125 
L 54.109375 2.78125 
Q 49.265625 0.734375 44.1875 -0.34375 
Q 39.109375 -1.421875 33.890625 -1.421875 
Q 20.796875 -1.421875 13.15625 6.1875 
Q 5.515625 13.8125 5.515625 26.8125 
Q 5.515625 40.234375 12.765625 48.109375 
Q 20.015625 56 32.328125 56 
Q 43.359375 56 49.78125 48.890625 
Q 56.203125 41.796875 56.203125 29.59375 
z
M 47.21875 32.234375 
Q 47.125 39.59375 43.09375 43.984375 
Q 39.0625 48.390625 32.421875 48.390625 
Q 24.90625 48.390625 20.390625 44.140625 
Q 15.875 39.890625 15.1875 32.171875 
z
" id="DejaVuSans-101"/>
      <path d="M 9.421875 75.984375 
L 18.40625 75.984375 
L 18.40625 0 
L 9.421875 0 
z
" id="DejaVuSans-108"/>
      <path d="M 34.28125 27.484375 
Q 23.390625 27.484375 19.1875 25 
Q 14.984375 22.515625 14.984375 16.5 
Q 14.984375 11.71875 18.140625 8.90625 
Q 21.296875 6.109375 26.703125 6.109375 
Q 34.1875 6.109375 38.703125 11.40625 
Q 43.21875 16.703125 43.21875 25.484375 
L 43.21875 27.484375 
z
M 52.203125 31.203125 
L 52.203125 0 
L 43.21875 0 
L 43.21875 8.296875 
Q 40.140625 3.328125 35.546875 0.953125 
Q 30.953125 -1.421875 24.3125 -1.421875 
Q 15.921875 -1.421875 10.953125 3.296875 
Q 6 8.015625 6 15.921875 
Q 6 25.140625 12.171875 29.828125 
Q 18.359375 34.515625 30.609375 34.515625 
L 43.21875 34.515625 
L 43.21875 35.40625 
Q 43.21875 41.609375 39.140625 45 
Q 35.0625 48.390625 27.6875 48.390625 
Q 23 48.390625 18.546875 47.265625 
Q 14.109375 46.140625 10.015625 43.890625 
L 10.015625 52.203125 
Q 14.9375 54.109375 19.578125 55.046875 
Q 24.21875 56 28.609375 56 
Q 40.484375 56 46.34375 49.84375 
Q 52.203125 43.703125 52.203125 31.203125 
z
" id="DejaVuSans-97"/>
      <path d="M 2.984375 54.6875 
L 12.5 54.6875 
L 29.59375 8.796875 
L 46.6875 54.6875 
L 56.203125 54.6875 
L 35.6875 0 
L 23.484375 0 
z
" id="DejaVuSans-118"/>
      <path d="M 48.78125 52.59375 
L 48.78125 44.1875 
Q 44.96875 46.296875 41.140625 47.34375 
Q 37.3125 48.390625 33.40625 48.390625 
Q 24.65625 48.390625 19.8125 42.84375 
Q 14.984375 37.3125 14.984375 27.296875 
Q 14.984375 17.28125 19.8125 11.734375 
Q 24.65625 6.203125 33.40625 6.203125 
Q 37.3125 6.203125 41.140625 7.25 
Q 44.96875 8.296875 48.78125 10.40625 
L 48.78125 2.09375 
Q 45.015625 0.34375 40.984375 -0.53125 
Q 36.96875 -1.421875 32.421875 -1.421875 
Q 20.0625 -1.421875 12.78125 6.34375 
Q 5.515625 14.109375 5.515625 27.296875 
Q 5.515625 40.671875 12.859375 48.328125 
Q 20.21875 56 33.015625 56 
Q 37.15625 56 41.109375 55.140625 
Q 45.0625 54.296875 48.78125 52.59375 
z
" id="DejaVuSans-99"/>
     </defs>
     <g transform="translate(154.893594 335.860562)scale(0.1 -0.1)">
      <use xlink:href="#DejaVuSans-119"/>
      <use x="81.787109" xlink:href="#DejaVuSans-111"/>
      <use x="142.96875" xlink:href="#DejaVuSans-114"/>
      <use x="184.066406" xlink:href="#DejaVuSans-100"/>
      <use x="247.542969" xlink:href="#DejaVuSans-32"/>
      <use x="279.330078" xlink:href="#DejaVuSans-112"/>
      <use x="342.806641" xlink:href="#DejaVuSans-111"/>
      <use x="403.988281" xlink:href="#DejaVuSans-115"/>
      <use x="456.087891" xlink:href="#DejaVuSans-105"/>
      <use x="483.871094" xlink:href="#DejaVuSans-116"/>
      <use x="523.080078" xlink:href="#DejaVuSans-105"/>
      <use x="550.863281" xlink:href="#DejaVuSans-111"/>
      <use x="612.044922" xlink:href="#DejaVuSans-110"/>
      <use x="675.423828" xlink:href="#DejaVuSans-32"/>
      <use x="707.210938" xlink:href="#DejaVuSans-114"/>
      <use x="748.292969" xlink:href="#DejaVuSans-101"/>
      <use x="809.816406" xlink:href="#DejaVuSans-108"/>
      <use x="837.599609" xlink:href="#DejaVuSans-97"/>
      <use x="898.878906" xlink:href="#DejaVuSans-116"/>
      <use x="938.087891" xlink:href="#DejaVuSans-105"/>
      <use x="965.871094" xlink:href="#DejaVuSans-118"/>
      <use x="1025.050781" xlink:href="#DejaVuSans-101"/>
      <use x="1086.574219" xlink:href="#DejaVuSans-32"/>
      <use x="1118.361328" xlink:href="#DejaVuSans-116"/>
      <use x="1157.570312" xlink:href="#DejaVuSans-111"/>
      <use x="1218.751953" xlink:href="#DejaVuSans-32"/>
      <use x="1250.539062" xlink:href="#DejaVuSans-99"/>
      <use x="1305.519531" xlink:href="#DejaVuSans-105"/>
      <use x="1333.302734" xlink:href="#DejaVuSans-116"/>
      <use x="1372.511719" xlink:href="#DejaVuSans-97"/>
      <use x="1433.791016" xlink:href="#DejaVuSans-116"/>
      <use x="1473" xlink:href="#DejaVuSans-105"/>
      <use x="1500.783203" xlink:href="#DejaVuSans-111"/>
      <use x="1561.964844" xlink:href="#DejaVuSans-110"/>
     </g>
    </g>
   </g>
   <g id="matplotlib.axis_2">
    <g id="ytick_1">
     <g id="line2d_21">
      <defs>
       <path d="M 0 0 
L -3.5 0 
" id="mc82fa91565" style="stroke:#000000;stroke-width:0.8;"/>
      </defs>
      <g>
       <use style="stroke:#000000;stroke-width:0.8;" x="57.6" xlink:href="#mc82fa91565" y="295.488"/>
      </g>
     </g>
     <g id="text_12">
      <!-- 0 -->
      <g transform="translate(44.2375 299.287219)scale(0.1 -0.1)">
       <use xlink:href="#DejaVuSans-48"/>
      </g>
     </g>
    </g>
    <g id="ytick_2">
     <g id="line2d_22">
      <g>
       <use style="stroke:#000000;stroke-width:0.8;" x="57.6" xlink:href="#mc82fa91565" y="263.769522"/>
      </g>
     </g>
     <g id="text_13">
      <!-- 20000 -->
      <g transform="translate(18.7875 267.568741)scale(0.1 -0.1)">
       <use xlink:href="#DejaVuSans-50"/>
       <use x="63.623047" xlink:href="#DejaVuSans-48"/>
       <use x="127.246094" xlink:href="#DejaVuSans-48"/>
       <use x="190.869141" xlink:href="#DejaVuSans-48"/>
       <use x="254.492188" xlink:href="#DejaVuSans-48"/>
      </g>
     </g>
    </g>
    <g id="ytick_3">
     <g id="line2d_23">
      <g>
       <use style="stroke:#000000;stroke-width:0.8;" x="57.6" xlink:href="#mc82fa91565" y="232.051045"/>
      </g>
     </g>
     <g id="text_14">
      <!-- 40000 -->
      <g transform="translate(18.7875 235.850264)scale(0.1 -0.1)">
       <use xlink:href="#DejaVuSans-52"/>
       <use x="63.623047" xlink:href="#DejaVuSans-48"/>
       <use x="127.246094" xlink:href="#DejaVuSans-48"/>
       <use x="190.869141" xlink:href="#DejaVuSans-48"/>
       <use x="254.492188" xlink:href="#DejaVuSans-48"/>
      </g>
     </g>
    </g>
    <g id="ytick_4">
     <g id="line2d_24">
      <g>
       <use style="stroke:#000000;stroke-width:0.8;" x="57.6" xlink:href="#mc82fa91565" y="200.332567"/>
      </g>
     </g>
     <g id="text_15">
      <!-- 60000 -->
      <defs>
       <path d="M 33.015625 40.375 
Q 26.375 40.375 22.484375 35.828125 
Q 18.609375 31.296875 18.609375 23.390625 
Q 18.609375 15.53125 22.484375 10.953125 
Q 26.375 6.390625 33.015625 6.390625 
Q 39.65625 6.390625 43.53125 10.953125 
Q 47.40625 15.53125 47.40625 23.390625 
Q 47.40625 31.296875 43.53125 35.828125 
Q 39.65625 40.375 33.015625 40.375 
z
M 52.59375 71.296875 
L 52.59375 62.3125 
Q 48.875 64.0625 45.09375 64.984375 
Q 41.3125 65.921875 37.59375 65.921875 
Q 27.828125 65.921875 22.671875 59.328125 
Q 17.53125 52.734375 16.796875 39.40625 
Q 19.671875 43.65625 24.015625 45.921875 
Q 28.375 48.1875 33.59375 48.1875 
Q 44.578125 48.1875 50.953125 41.515625 
Q 57.328125 34.859375 57.328125 23.390625 
Q 57.328125 12.15625 50.6875 5.359375 
Q 44.046875 -1.421875 33.015625 -1.421875 
Q 20.359375 -1.421875 13.671875 8.265625 
Q 6.984375 17.96875 6.984375 36.375 
Q 6.984375 53.65625 15.1875 63.9375 
Q 23.390625 74.21875 37.203125 74.21875 
Q 40.921875 74.21875 44.703125 73.484375 
Q 48.484375 72.75 52.59375 71.296875 
z
" id="DejaVuSans-54"/>
      </defs>
      <g transform="translate(18.7875 204.131786)scale(0.1 -0.1)">
       <use xlink:href="#DejaVuSans-54"/>
       <use x="63.623047" xlink:href="#DejaVuSans-48"/>
       <use x="127.246094" xlink:href="#DejaVuSans-48"/>
       <use x="190.869141" xlink:href="#DejaVuSans-48"/>
       <use x="254.492188" xlink:href="#DejaVuSans-48"/>
      </g>
     </g>
    </g>
    <g id="ytick_5">
     <g id="line2d_25">
      <g>
       <use style="stroke:#000000;stroke-width:0.8;" x="57.6" xlink:href="#mc82fa91565" y="168.61409"/>
      </g>
     </g>
     <g id="text_16">
      <!-- 80000 -->
      <defs>
       <path d="M 31.78125 34.625 
Q 24.75 34.625 20.71875 30.859375 
Q 16.703125 27.09375 16.703125 20.515625 
Q 16.703125 13.921875 20.71875 10.15625 
Q 24.75 6.390625 31.78125 6.390625 
Q 38.8125 6.390625 42.859375 10.171875 
Q 46.921875 13.96875 46.921875 20.515625 
Q 46.921875 27.09375 42.890625 30.859375 
Q 38.875 34.625 31.78125 34.625 
z
M 21.921875 38.8125 
Q 15.578125 40.375 12.03125 44.71875 
Q 8.5 49.078125 8.5 55.328125 
Q 8.5 64.0625 14.71875 69.140625 
Q 20.953125 74.21875 31.78125 74.21875 
Q 42.671875 74.21875 48.875 69.140625 
Q 55.078125 64.0625 55.078125 55.328125 
Q 55.078125 49.078125 51.53125 44.71875 
Q 48 40.375 41.703125 38.8125 
Q 48.828125 37.15625 52.796875 32.3125 
Q 56.78125 27.484375 56.78125 20.515625 
Q 56.78125 9.90625 50.3125 4.234375 
Q 43.84375 -1.421875 31.78125 -1.421875 
Q 19.734375 -1.421875 13.25 4.234375 
Q 6.78125 9.90625 6.78125 20.515625 
Q 6.78125 27.484375 10.78125 32.3125 
Q 14.796875 37.15625 21.921875 38.8125 
z
M 18.3125 54.390625 
Q 18.3125 48.734375 21.84375 45.5625 
Q 25.390625 42.390625 31.78125 42.390625 
Q 38.140625 42.390625 41.71875 45.5625 
Q 45.3125 48.734375 45.3125 54.390625 
Q 45.3125 60.0625 41.71875 63.234375 
Q 38.140625 66.40625 31.78125 66.40625 
Q 25.390625 66.40625 21.84375 63.234375 
Q 18.3125 60.0625 18.3125 54.390625 
z
" id="DejaVuSans-56"/>
      </defs>
      <g transform="translate(18.7875 172.413309)scale(0.1 -0.1)">
       <use xlink:href="#DejaVuSans-56"/>
       <use x="63.623047" xlink:href="#DejaVuSans-48"/>
       <use x="127.246094" xlink:href="#DejaVuSans-48"/>
       <use x="190.869141" xlink:href="#DejaVuSans-48"/>
       <use x="254.492188" xlink:href="#DejaVuSans-48"/>
      </g>
     </g>
    </g>
    <g id="ytick_6">
     <g id="line2d_26">
      <g>
       <use style="stroke:#000000;stroke-width:0.8;" x="57.6" xlink:href="#mc82fa91565" y="136.895612"/>
      </g>
     </g>
     <g id="text_17">
      <!-- 100000 -->
      <g transform="translate(12.425 140.694831)scale(0.1 -0.1)">
       <use xlink:href="#DejaVuSans-49"/>
       <use x="63.623047" xlink:href="#DejaVuSans-48"/>
       <use x="127.246094" xlink:href="#DejaVuSans-48"/>
       <use x="190.869141" xlink:href="#DejaVuSans-48"/>
       <use x="254.492188" xlink:href="#DejaVuSans-48"/>
       <use x="318.115234" xlink:href="#DejaVuSans-48"/>
      </g>
     </g>
    </g>
    <g id="ytick_7">
     <g id="line2d_27">
      <g>
       <use style="stroke:#000000;stroke-width:0.8;" x="57.6" xlink:href="#mc82fa91565" y="105.177135"/>
      </g>
     </g>
     <g id="text_18">
      <!-- 120000 -->
      <g transform="translate(12.425 108.976354)scale(0.1 -0.1)">
       <use xlink:href="#DejaVuSans-49"/>
       <use x="63.623047" xlink:href="#DejaVuSans-50"/>
       <use x="127.246094" xlink:href="#DejaVuSans-48"/>
       <use x="190.869141" xlink:href="#DejaVuSans-48"/>
       <use x="254.492188" xlink:href="#DejaVuSans-48"/>
       <use x="318.115234" xlink:href="#DejaVuSans-48"/>
      </g>
     </g>
    </g>
    <g id="ytick_8">
     <g id="line2d_28">
      <g>
       <use style="stroke:#000000;stroke-width:0.8;" x="57.6" xlink:href="#mc82fa91565" y="73.458657"/>
      </g>
     </g>
     <g id="text_19">
      <!-- 140000 -->
      <g transform="translate(12.425 77.257876)scale(0.1 -0.1)">
       <use xlink:href="#DejaVuSans-49"/>
       <use x="63.623047" xlink:href="#DejaVuSans-52"/>
       <use x="127.246094" xlink:href="#DejaVuSans-48"/>
       <use x="190.869141" xlink:href="#DejaVuSans-48"/>
       <use x="254.492188" xlink:href="#DejaVuSans-48"/>
       <use x="318.115234" xlink:href="#DejaVuSans-48"/>
      </g>
     </g>
    </g>
    <g id="ytick_9">
     <g id="line2d_29">
      <g>
       <use style="stroke:#000000;stroke-width:0.8;" x="57.6" xlink:href="#mc82fa91565" y="41.74018"/>
      </g>
     </g>
     <g id="text_20">
      <!-- 160000 -->
      <g transform="translate(12.425 45.539398)scale(0.1 -0.1)">
       <use xlink:href="#DejaVuSans-49"/>
       <use x="63.623047" xlink:href="#DejaVuSans-54"/>
       <use x="127.246094" xlink:href="#DejaVuSans-48"/>
       <use x="190.869141" xlink:href="#DejaVuSans-48"/>
       <use x="254.492188" xlink:href="#DejaVuSans-48"/>
       <use x="318.115234" xlink:href="#DejaVuSans-48"/>
      </g>
     </g>
    </g>
    <g id="text_21">
     <!-- number of words -->
     <defs>
      <path d="M 8.5 21.578125 
L 8.5 54.6875 
L 17.484375 54.6875 
L 17.484375 21.921875 
Q 17.484375 14.15625 20.5 10.265625 
Q 23.53125 6.390625 29.59375 6.390625 
Q 36.859375 6.390625 41.078125 11.03125 
Q 45.3125 15.671875 45.3125 23.6875 
L 45.3125 54.6875 
L 54.296875 54.6875 
L 54.296875 0 
L 45.3125 0 
L 45.3125 8.40625 
Q 42.046875 3.421875 37.71875 1 
Q 33.40625 -1.421875 27.6875 -1.421875 
Q 18.265625 -1.421875 13.375 4.4375 
Q 8.5 10.296875 8.5 21.578125 
z
M 31.109375 56 
z
" id="DejaVuSans-117"/>
      <path d="M 52 44.1875 
Q 55.375 50.25 60.0625 53.125 
Q 64.75 56 71.09375 56 
Q 79.640625 56 84.28125 50.015625 
Q 88.921875 44.046875 88.921875 33.015625 
L 88.921875 0 
L 79.890625 0 
L 79.890625 32.71875 
Q 79.890625 40.578125 77.09375 44.375 
Q 74.3125 48.1875 68.609375 48.1875 
Q 61.625 48.1875 57.5625 43.546875 
Q 53.515625 38.921875 53.515625 30.90625 
L 53.515625 0 
L 44.484375 0 
L 44.484375 32.71875 
Q 44.484375 40.625 41.703125 44.40625 
Q 38.921875 48.1875 33.109375 48.1875 
Q 26.21875 48.1875 22.15625 43.53125 
Q 18.109375 38.875 18.109375 30.90625 
L 18.109375 0 
L 9.078125 0 
L 9.078125 54.6875 
L 18.109375 54.6875 
L 18.109375 46.1875 
Q 21.1875 51.21875 25.484375 53.609375 
Q 29.78125 56 35.6875 56 
Q 41.65625 56 45.828125 52.96875 
Q 50 49.953125 52 44.1875 
z
" id="DejaVuSans-109"/>
      <path d="M 48.6875 27.296875 
Q 48.6875 37.203125 44.609375 42.84375 
Q 40.53125 48.484375 33.40625 48.484375 
Q 26.265625 48.484375 22.1875 42.84375 
Q 18.109375 37.203125 18.109375 27.296875 
Q 18.109375 17.390625 22.1875 11.75 
Q 26.265625 6.109375 33.40625 6.109375 
Q 40.53125 6.109375 44.609375 11.75 
Q 48.6875 17.390625 48.6875 27.296875 
z
M 18.109375 46.390625 
Q 20.953125 51.265625 25.265625 53.625 
Q 29.59375 56 35.59375 56 
Q 45.5625 56 51.78125 48.09375 
Q 58.015625 40.1875 58.015625 27.296875 
Q 58.015625 14.40625 51.78125 6.484375 
Q 45.5625 -1.421875 35.59375 -1.421875 
Q 29.59375 -1.421875 25.265625 0.953125 
Q 20.953125 3.328125 18.109375 8.203125 
L 18.109375 0 
L 9.078125 0 
L 9.078125 75.984375 
L 18.109375 75.984375 
z
" id="DejaVuSans-98"/>
      <path d="M 37.109375 75.984375 
L 37.109375 68.5 
L 28.515625 68.5 
Q 23.6875 68.5 21.796875 66.546875 
Q 19.921875 64.59375 19.921875 59.515625 
L 19.921875 54.6875 
L 34.71875 54.6875 
L 34.71875 47.703125 
L 19.921875 47.703125 
L 19.921875 0 
L 10.890625 0 
L 10.890625 47.703125 
L 2.296875 47.703125 
L 2.296875 54.6875 
L 10.890625 54.6875 
L 10.890625 58.5 
Q 10.890625 67.625 15.140625 71.796875 
Q 19.390625 75.984375 28.609375 75.984375 
z
" id="DejaVuSans-102"/>
     </defs>
     <g transform="translate(6.345312 217.02175)rotate(-90)scale(0.1 -0.1)">
      <use xlink:href="#DejaVuSans-110"/>
      <use x="63.378906" xlink:href="#DejaVuSans-117"/>
      <use x="126.757812" xlink:href="#DejaVuSans-109"/>
      <use x="224.169922" xlink:href="#DejaVuSans-98"/>
      <use x="287.646484" xlink:href="#DejaVuSans-101"/>
      <use x="349.169922" xlink:href="#DejaVuSans-114"/>
      <use x="390.283203" xlink:href="#DejaVuSans-32"/>
      <use x="422.070312" xlink:href="#DejaVuSans-111"/>
      <use x="483.251953" xlink:href="#DejaVuSans-102"/>
      <use x="518.457031" xlink:href="#DejaVuSans-32"/>
      <use x="550.244141" xlink:href="#DejaVuSans-119"/>
      <use x="632.03125" xlink:href="#DejaVuSans-111"/>
      <use x="693.212891" xlink:href="#DejaVuSans-114"/>
      <use x="734.310547" xlink:href="#DejaVuSans-100"/>
      <use x="797.787109" xlink:href="#DejaVuSans-115"/>
     </g>
    </g>
   </g>
   <g id="line2d_30">
    <path clip-path="url(#pbe0731efb4)" d="M 73.832727 204.771568 
L 106.298182 209.894102 
L 138.763636 213.590891 
L 171.229091 194.940426 
L 203.694545 250.397012 
L 236.16 295.488 
L 268.625455 221.872585 
L 301.090909 211.968491 
L 333.556364 233.330886 
L 366.021818 240.296263 
L 398.487273 245.699506 
" style="fill:none;stroke:#1f77b4;stroke-linecap:square;stroke-opacity:0.3;stroke-width:0.5;"/>
   </g>
   <g id="line2d_31">
    <defs>
     <path d="M -0 4.242641 
L 4.242641 0 
L 0 -4.242641 
L -4.242641 -0 
z
" id="m6851cbe07b" style="stroke:#1f77b4;stroke-linejoin:miter;"/>
    </defs>
    <g clip-path="url(#pbe0731efb4)">
     <use style="fill:#1f77b4;stroke:#1f77b4;stroke-linejoin:miter;" x="73.832727" xlink:href="#m6851cbe07b" y="204.771568"/>
     <use style="fill:#1f77b4;stroke:#1f77b4;stroke-linejoin:miter;" x="106.298182" xlink:href="#m6851cbe07b" y="209.894102"/>
     <use style="fill:#1f77b4;stroke:#1f77b4;stroke-linejoin:miter;" x="138.763636" xlink:href="#m6851cbe07b" y="213.590891"/>
     <use style="fill:#1f77b4;stroke:#1f77b4;stroke-linejoin:miter;" x="171.229091" xlink:href="#m6851cbe07b" y="194.940426"/>
     <use style="fill:#1f77b4;stroke:#1f77b4;stroke-linejoin:miter;" x="203.694545" xlink:href="#m6851cbe07b" y="250.397012"/>
     <use style="fill:#1f77b4;stroke:#1f77b4;stroke-linejoin:miter;" x="236.16" xlink:href="#m6851cbe07b" y="295.488"/>
     <use style="fill:#1f77b4;stroke:#1f77b4;stroke-linejoin:miter;" x="268.625455" xlink:href="#m6851cbe07b" y="221.872585"/>
     <use style="fill:#1f77b4;stroke:#1f77b4;stroke-linejoin:miter;" x="301.090909" xlink:href="#m6851cbe07b" y="211.968491"/>
     <use style="fill:#1f77b4;stroke:#1f77b4;stroke-linejoin:miter;" x="333.556364" xlink:href="#m6851cbe07b" y="233.330886"/>
     <use style="fill:#1f77b4;stroke:#1f77b4;stroke-linejoin:miter;" x="366.021818" xlink:href="#m6851cbe07b" y="240.296263"/>
     <use style="fill:#1f77b4;stroke:#1f77b4;stroke-linejoin:miter;" x="398.487273" xlink:href="#m6851cbe07b" y="245.699506"/>
    </g>
   </g>
   <g id="line2d_32">
    <path clip-path="url(#pbe0731efb4)" d="M 73.832727 153.557329 
L 106.298182 168.11611 
L 138.763636 186.110002 
L 171.229091 146.274766 
L 203.694545 53.568 
L 236.16 295.488 
L 268.625455 267.228422 
L 301.090909 242.105802 
L 333.556364 205.799247 
L 366.021818 196.599303 
L 398.487273 204.441696 
" style="fill:none;stroke:#ff7f0e;stroke-linecap:square;stroke-opacity:0.3;stroke-width:0.5;"/>
   </g>
   <g id="line2d_33">
    <defs>
     <path d="M -0 4.242641 
L 4.242641 0 
L 0 -4.242641 
L -4.242641 -0 
z
" id="m66d661caee" style="stroke:#ff7f0e;stroke-linejoin:miter;"/>
    </defs>
    <g clip-path="url(#pbe0731efb4)">
     <use style="fill:#ff7f0e;stroke:#ff7f0e;stroke-linejoin:miter;" x="73.832727" xlink:href="#m66d661caee" y="153.557329"/>
     <use style="fill:#ff7f0e;stroke:#ff7f0e;stroke-linejoin:miter;" x="106.298182" xlink:href="#m66d661caee" y="168.11611"/>
     <use style="fill:#ff7f0e;stroke:#ff7f0e;stroke-linejoin:miter;" x="138.763636" xlink:href="#m66d661caee" y="186.110002"/>
     <use style="fill:#ff7f0e;stroke:#ff7f0e;stroke-linejoin:miter;" x="171.229091" xlink:href="#m66d661caee" y="146.274766"/>
     <use style="fill:#ff7f0e;stroke:#ff7f0e;stroke-linejoin:miter;" x="203.694545" xlink:href="#m66d661caee" y="53.568"/>
     <use style="fill:#ff7f0e;stroke:#ff7f0e;stroke-linejoin:miter;" x="236.16" xlink:href="#m66d661caee" y="295.488"/>
     <use style="fill:#ff7f0e;stroke:#ff7f0e;stroke-linejoin:miter;" x="268.625455" xlink:href="#m66d661caee" y="267.228422"/>
     <use style="fill:#ff7f0e;stroke:#ff7f0e;stroke-linejoin:miter;" x="301.090909" xlink:href="#m66d661caee" y="242.105802"/>
     <use style="fill:#ff7f0e;stroke:#ff7f0e;stroke-linejoin:miter;" x="333.556364" xlink:href="#m66d661caee" y="205.799247"/>
     <use style="fill:#ff7f0e;stroke:#ff7f0e;stroke-linejoin:miter;" x="366.021818" xlink:href="#m66d661caee" y="196.599303"/>
     <use style="fill:#ff7f0e;stroke:#ff7f0e;stroke-linejoin:miter;" x="398.487273" xlink:href="#m66d661caee" y="204.441696"/>
    </g>
   </g>
   <g id="line2d_34">
    <path clip-path="url(#pbe0731efb4)" d="M 73.832727 232.688586 
L 106.298182 226.27511 
L 138.763636 190.755173 
L 171.229091 187.001291 
L 203.694545 163.022122 
L 236.16 295.488 
L 268.625455 237.197368 
L 301.090909 242.914623 
L 333.556364 239.82683 
L 366.021818 248.884041 
L 398.487273 248.706417 
" style="fill:none;stroke:#2ca02c;stroke-linecap:square;stroke-opacity:0.3;stroke-width:0.5;"/>
   </g>
   <g id="line2d_35">
    <defs>
     <path d="M -0 4.242641 
L 4.242641 0 
L 0 -4.242641 
L -4.242641 -0 
z
" id="m86ef4ed788" style="stroke:#2ca02c;stroke-linejoin:miter;"/>
    </defs>
    <g clip-path="url(#pbe0731efb4)">
     <use style="fill:#2ca02c;stroke:#2ca02c;stroke-linejoin:miter;" x="73.832727" xlink:href="#m86ef4ed788" y="232.688586"/>
     <use style="fill:#2ca02c;stroke:#2ca02c;stroke-linejoin:miter;" x="106.298182" xlink:href="#m86ef4ed788" y="226.27511"/>
     <use style="fill:#2ca02c;stroke:#2ca02c;stroke-linejoin:miter;" x="138.763636" xlink:href="#m86ef4ed788" y="190.755173"/>
     <use style="fill:#2ca02c;stroke:#2ca02c;stroke-linejoin:miter;" x="171.229091" xlink:href="#m86ef4ed788" y="187.001291"/>
     <use style="fill:#2ca02c;stroke:#2ca02c;stroke-linejoin:miter;" x="203.694545" xlink:href="#m86ef4ed788" y="163.022122"/>
     <use style="fill:#2ca02c;stroke:#2ca02c;stroke-linejoin:miter;" x="236.16" xlink:href="#m86ef4ed788" y="295.488"/>
     <use style="fill:#2ca02c;stroke:#2ca02c;stroke-linejoin:miter;" x="268.625455" xlink:href="#m86ef4ed788" y="237.197368"/>
     <use style="fill:#2ca02c;stroke:#2ca02c;stroke-linejoin:miter;" x="301.090909" xlink:href="#m86ef4ed788" y="242.914623"/>
     <use style="fill:#2ca02c;stroke:#2ca02c;stroke-linejoin:miter;" x="333.556364" xlink:href="#m86ef4ed788" y="239.82683"/>
     <use style="fill:#2ca02c;stroke:#2ca02c;stroke-linejoin:miter;" x="366.021818" xlink:href="#m86ef4ed788" y="248.884041"/>
     <use style="fill:#2ca02c;stroke:#2ca02c;stroke-linejoin:miter;" x="398.487273" xlink:href="#m86ef4ed788" y="248.706417"/>
    </g>
   </g>
   <g id="line2d_36">
    <path clip-path="url(#pbe0731efb4)" d="M 73.832727 210.136749 
L 106.298182 183.177629 
L 138.763636 204.520992 
L 171.229091 237.937994 
L 203.694545 155.587311 
L 236.16 295.488 
L 268.625455 223.009693 
L 301.090909 256.545639 
L 333.556364 252.859952 
L 366.021818 239.734846 
L 398.487273 240.851337 
" style="fill:none;stroke:#d62728;stroke-linecap:square;stroke-opacity:0.3;stroke-width:0.5;"/>
   </g>
   <g id="line2d_37">
    <defs>
     <path d="M -0 4.242641 
L 4.242641 0 
L 0 -4.242641 
L -4.242641 -0 
z
" id="m8ce0f1d190" style="stroke:#d62728;stroke-linejoin:miter;"/>
    </defs>
    <g clip-path="url(#pbe0731efb4)">
     <use style="fill:#d62728;stroke:#d62728;stroke-linejoin:miter;" x="73.832727" xlink:href="#m8ce0f1d190" y="210.136749"/>
     <use style="fill:#d62728;stroke:#d62728;stroke-linejoin:miter;" x="106.298182" xlink:href="#m8ce0f1d190" y="183.177629"/>
     <use style="fill:#d62728;stroke:#d62728;stroke-linejoin:miter;" x="138.763636" xlink:href="#m8ce0f1d190" y="204.520992"/>
     <use style="fill:#d62728;stroke:#d62728;stroke-linejoin:miter;" x="171.229091" xlink:href="#m8ce0f1d190" y="237.937994"/>
     <use style="fill:#d62728;stroke:#d62728;stroke-linejoin:miter;" x="203.694545" xlink:href="#m8ce0f1d190" y="155.587311"/>
     <use style="fill:#d62728;stroke:#d62728;stroke-linejoin:miter;" x="236.16" xlink:href="#m8ce0f1d190" y="295.488"/>
     <use style="fill:#d62728;stroke:#d62728;stroke-linejoin:miter;" x="268.625455" xlink:href="#m8ce0f1d190" y="223.009693"/>
     <use style="fill:#d62728;stroke:#d62728;stroke-linejoin:miter;" x="301.090909" xlink:href="#m8ce0f1d190" y="256.545639"/>
     <use style="fill:#d62728;stroke:#d62728;stroke-linejoin:miter;" x="333.556364" xlink:href="#m8ce0f1d190" y="252.859952"/>
     <use style="fill:#d62728;stroke:#d62728;stroke-linejoin:miter;" x="366.021818" xlink:href="#m8ce0f1d190" y="239.734846"/>
     <use style="fill:#d62728;stroke:#d62728;stroke-linejoin:miter;" x="398.487273" xlink:href="#m8ce0f1d190" y="240.851337"/>
    </g>
   </g>
   <g id="line2d_38">
    <path clip-path="url(#pbe0731efb4)" d="M 73.832727 230.68715 
L 106.298182 235.979378 
L 138.763636 216.236212 
L 171.229091 196.919659 
L 203.694545 257.939666 
L 236.16 295.488 
L 268.625455 286.413344 
L 301.090909 259.281358 
L 333.556364 242.949514 
L 366.021818 250.549261 
L 398.487273 253.434057 
" style="fill:none;stroke:#9467bd;stroke-linecap:square;stroke-opacity:0.3;stroke-width:0.5;"/>
   </g>
   <g id="line2d_39">
    <defs>
     <path d="M -0 4.242641 
L 4.242641 0 
L 0 -4.242641 
L -4.242641 -0 
z
" id="mc2fa8800ce" style="stroke:#9467bd;stroke-linejoin:miter;"/>
    </defs>
    <g clip-path="url(#pbe0731efb4)">
     <use style="fill:#9467bd;stroke:#9467bd;stroke-linejoin:miter;" x="73.832727" xlink:href="#mc2fa8800ce" y="230.68715"/>
     <use style="fill:#9467bd;stroke:#9467bd;stroke-linejoin:miter;" x="106.298182" xlink:href="#mc2fa8800ce" y="235.979378"/>
     <use style="fill:#9467bd;stroke:#9467bd;stroke-linejoin:miter;" x="138.763636" xlink:href="#mc2fa8800ce" y="216.236212"/>
     <use style="fill:#9467bd;stroke:#9467bd;stroke-linejoin:miter;" x="171.229091" xlink:href="#mc2fa8800ce" y="196.919659"/>
     <use style="fill:#9467bd;stroke:#9467bd;stroke-linejoin:miter;" x="203.694545" xlink:href="#mc2fa8800ce" y="257.939666"/>
     <use style="fill:#9467bd;stroke:#9467bd;stroke-linejoin:miter;" x="236.16" xlink:href="#mc2fa8800ce" y="295.488"/>
     <use style="fill:#9467bd;stroke:#9467bd;stroke-linejoin:miter;" x="268.625455" xlink:href="#mc2fa8800ce" y="286.413344"/>
     <use style="fill:#9467bd;stroke:#9467bd;stroke-linejoin:miter;" x="301.090909" xlink:href="#mc2fa8800ce" y="259.281358"/>
     <use style="fill:#9467bd;stroke:#9467bd;stroke-linejoin:miter;" x="333.556364" xlink:href="#mc2fa8800ce" y="242.949514"/>
     <use style="fill:#9467bd;stroke:#9467bd;stroke-linejoin:miter;" x="366.021818" xlink:href="#mc2fa8800ce" y="250.549261"/>
     <use style="fill:#9467bd;stroke:#9467bd;stroke-linejoin:miter;" x="398.487273" xlink:href="#mc2fa8800ce" y="253.434057"/>
    </g>
   </g>
   <g id="line2d_40">
    <path clip-path="url(#pbe0731efb4)" d="M 73.832727 290.944328 
L 106.298182 292.008483 
L 138.763636 293.844983 
L 171.229091 290.300443 
L 203.694545 294.465079 
L 236.16 295.488 
L 268.625455 270.511285 
L 301.090909 282.220161 
L 333.556364 291.818172 
L 366.021818 291.326536 
L 398.487273 291.225037 
" style="fill:none;stroke:#8c564b;stroke-linecap:square;stroke-opacity:0.3;stroke-width:0.5;"/>
   </g>
   <g id="line2d_41">
    <defs>
     <path d="M -0 4.242641 
L 4.242641 0 
L 0 -4.242641 
L -4.242641 -0 
z
" id="m3c205d2548" style="stroke:#8c564b;stroke-linejoin:miter;"/>
    </defs>
    <g clip-path="url(#pbe0731efb4)">
     <use style="fill:#8c564b;stroke:#8c564b;stroke-linejoin:miter;" x="73.832727" xlink:href="#m3c205d2548" y="290.944328"/>
     <use style="fill:#8c564b;stroke:#8c564b;stroke-linejoin:miter;" x="106.298182" xlink:href="#m3c205d2548" y="292.008483"/>
     <use style="fill:#8c564b;stroke:#8c564b;stroke-linejoin:miter;" x="138.763636" xlink:href="#m3c205d2548" y="293.844983"/>
     <use style="fill:#8c564b;stroke:#8c564b;stroke-linejoin:miter;" x="171.229091" xlink:href="#m3c205d2548" y="290.300443"/>
     <use style="fill:#8c564b;stroke:#8c564b;stroke-linejoin:miter;" x="203.694545" xlink:href="#m3c205d2548" y="294.465079"/>
     <use style="fill:#8c564b;stroke:#8c564b;stroke-linejoin:miter;" x="236.16" xlink:href="#m3c205d2548" y="295.488"/>
     <use style="fill:#8c564b;stroke:#8c564b;stroke-linejoin:miter;" x="268.625455" xlink:href="#m3c205d2548" y="270.511285"/>
     <use style="fill:#8c564b;stroke:#8c564b;stroke-linejoin:miter;" x="301.090909" xlink:href="#m3c205d2548" y="282.220161"/>
     <use style="fill:#8c564b;stroke:#8c564b;stroke-linejoin:miter;" x="333.556364" xlink:href="#m3c205d2548" y="291.818172"/>
     <use style="fill:#8c564b;stroke:#8c564b;stroke-linejoin:miter;" x="366.021818" xlink:href="#m3c205d2548" y="291.326536"/>
     <use style="fill:#8c564b;stroke:#8c564b;stroke-linejoin:miter;" x="398.487273" xlink:href="#m3c205d2548" y="291.225037"/>
    </g>
   </g>
   <g id="line2d_42">
    <path clip-path="url(#pbe0731efb4)" d="M 73.832727 276.847051 
L 106.298182 278.693066 
L 138.763636 278.147508 
L 171.229091 282.542103 
L 203.694545 283.898068 
L 236.16 295.488 
L 268.625455 276.912074 
L 301.090909 264.976411 
L 333.556364 280.209209 
L 366.021818 282.979818 
L 398.487273 283.814014 
" style="fill:none;stroke:#e377c2;stroke-linecap:square;stroke-opacity:0.3;stroke-width:0.5;"/>
   </g>
   <g id="line2d_43">
    <defs>
     <path d="M -0 4.242641 
L 4.242641 0 
L 0 -4.242641 
L -4.242641 -0 
z
" id="mab6dcb6085" style="stroke:#e377c2;stroke-linejoin:miter;"/>
    </defs>
    <g clip-path="url(#pbe0731efb4)">
     <use style="fill:#e377c2;stroke:#e377c2;stroke-linejoin:miter;" x="73.832727" xlink:href="#mab6dcb6085" y="276.847051"/>
     <use style="fill:#e377c2;stroke:#e377c2;stroke-linejoin:miter;" x="106.298182" xlink:href="#mab6dcb6085" y="278.693066"/>
     <use style="fill:#e377c2;stroke:#e377c2;stroke-linejoin:miter;" x="138.763636" xlink:href="#mab6dcb6085" y="278.147508"/>
     <use style="fill:#e377c2;stroke:#e377c2;stroke-linejoin:miter;" x="171.229091" xlink:href="#mab6dcb6085" y="282.542103"/>
     <use style="fill:#e377c2;stroke:#e377c2;stroke-linejoin:miter;" x="203.694545" xlink:href="#mab6dcb6085" y="283.898068"/>
     <use style="fill:#e377c2;stroke:#e377c2;stroke-linejoin:miter;" x="236.16" xlink:href="#mab6dcb6085" y="295.488"/>
     <use style="fill:#e377c2;stroke:#e377c2;stroke-linejoin:miter;" x="268.625455" xlink:href="#mab6dcb6085" y="276.912074"/>
     <use style="fill:#e377c2;stroke:#e377c2;stroke-linejoin:miter;" x="301.090909" xlink:href="#mab6dcb6085" y="264.976411"/>
     <use style="fill:#e377c2;stroke:#e377c2;stroke-linejoin:miter;" x="333.556364" xlink:href="#mab6dcb6085" y="280.209209"/>
     <use style="fill:#e377c2;stroke:#e377c2;stroke-linejoin:miter;" x="366.021818" xlink:href="#mab6dcb6085" y="282.979818"/>
     <use style="fill:#e377c2;stroke:#e377c2;stroke-linejoin:miter;" x="398.487273" xlink:href="#mab6dcb6085" y="283.814014"/>
    </g>
   </g>
   <g id="line2d_44">
    <path clip-path="url(#pbe0731efb4)" d="M 73.832727 286.391141 
L 106.298182 287.555209 
L 138.763636 287.561552 
L 171.229091 291.906984 
L 203.694545 294.425431 
L 236.16 295.488 
L 268.625455 274.612484 
L 301.090909 283.43815 
L 333.556364 289.258491 
L 366.021818 291.099749 
L 398.487273 291.372528 
" style="fill:none;stroke:#7f7f7f;stroke-linecap:square;stroke-opacity:0.3;stroke-width:0.5;"/>
   </g>
   <g id="line2d_45">
    <defs>
     <path d="M -0 4.242641 
L 4.242641 0 
L 0 -4.242641 
L -4.242641 -0 
z
" id="mbfa663402f" style="stroke:#7f7f7f;stroke-linejoin:miter;"/>
    </defs>
    <g clip-path="url(#pbe0731efb4)">
     <use style="fill:#7f7f7f;stroke:#7f7f7f;stroke-linejoin:miter;" x="73.832727" xlink:href="#mbfa663402f" y="286.391141"/>
     <use style="fill:#7f7f7f;stroke:#7f7f7f;stroke-linejoin:miter;" x="106.298182" xlink:href="#mbfa663402f" y="287.555209"/>
     <use style="fill:#7f7f7f;stroke:#7f7f7f;stroke-linejoin:miter;" x="138.763636" xlink:href="#mbfa663402f" y="287.561552"/>
     <use style="fill:#7f7f7f;stroke:#7f7f7f;stroke-linejoin:miter;" x="171.229091" xlink:href="#mbfa663402f" y="291.906984"/>
     <use style="fill:#7f7f7f;stroke:#7f7f7f;stroke-linejoin:miter;" x="203.694545" xlink:href="#mbfa663402f" y="294.425431"/>
     <use style="fill:#7f7f7f;stroke:#7f7f7f;stroke-linejoin:miter;" x="236.16" xlink:href="#mbfa663402f" y="295.488"/>
     <use style="fill:#7f7f7f;stroke:#7f7f7f;stroke-linejoin:miter;" x="268.625455" xlink:href="#mbfa663402f" y="274.612484"/>
     <use style="fill:#7f7f7f;stroke:#7f7f7f;stroke-linejoin:miter;" x="301.090909" xlink:href="#mbfa663402f" y="283.43815"/>
     <use style="fill:#7f7f7f;stroke:#7f7f7f;stroke-linejoin:miter;" x="333.556364" xlink:href="#mbfa663402f" y="289.258491"/>
     <use style="fill:#7f7f7f;stroke:#7f7f7f;stroke-linejoin:miter;" x="366.021818" xlink:href="#mbfa663402f" y="291.099749"/>
     <use style="fill:#7f7f7f;stroke:#7f7f7f;stroke-linejoin:miter;" x="398.487273" xlink:href="#mbfa663402f" y="291.372528"/>
    </g>
   </g>
   <g id="patch_3">
    <path d="M 57.6 307.584 
L 57.6 41.472 
" style="fill:none;stroke:#000000;stroke-linecap:square;stroke-linejoin:miter;stroke-width:0.8;"/>
   </g>
   <g id="patch_4">
    <path d="M 414.72 307.584 
L 414.72 41.472 
" style="fill:none;stroke:#000000;stroke-linecap:square;stroke-linejoin:miter;stroke-width:0.8;"/>
   </g>
   <g id="patch_5">
    <path d="M 57.6 307.584 
L 414.72 307.584 
" style="fill:none;stroke:#000000;stroke-linecap:square;stroke-linejoin:miter;stroke-width:0.8;"/>
   </g>
   <g id="patch_6">
    <path d="M 57.6 41.472 
L 414.72 41.472 
" style="fill:none;stroke:#000000;stroke-linecap:square;stroke-linejoin:miter;stroke-width:0.8;"/>
   </g>
   <g id="legend_1">
    <g id="patch_7">
     <path d="M 276.390312 166.897 
L 407.72 166.897 
Q 409.72 166.897 409.72 164.897 
L 409.72 48.472 
Q 409.72 46.472 407.72 46.472 
L 276.390312 46.472 
Q 274.390312 46.472 274.390312 48.472 
L 274.390312 164.897 
Q 274.390312 166.897 276.390312 166.897 
z
" style="fill:#ffffff;opacity:0.8;stroke:#cccccc;stroke-linejoin:miter;"/>
    </g>
    <g id="line2d_46"/>
    <g id="line2d_47">
     <g>
      <use style="fill:#1f77b4;stroke:#1f77b4;stroke-linejoin:miter;" x="288.390312" xlink:href="#m6851cbe07b" y="54.570438"/>
     </g>
    </g>
    <g id="text_22">
     <!-- verb -->
     <g transform="translate(306.390312 58.070438)scale(0.1 -0.1)">
      <use xlink:href="#DejaVuSans-118"/>
      <use x="59.179688" xlink:href="#DejaVuSans-101"/>
      <use x="120.703125" xlink:href="#DejaVuSans-114"/>
      <use x="161.816406" xlink:href="#DejaVuSans-98"/>
     </g>
    </g>
    <g id="line2d_48"/>
    <g id="line2d_49">
     <g>
      <use style="fill:#ff7f0e;stroke:#ff7f0e;stroke-linejoin:miter;" x="288.390312" xlink:href="#m66d661caee" y="69.248563"/>
     </g>
    </g>
    <g id="text_23">
     <!-- noun -->
     <g transform="translate(306.390312 72.748563)scale(0.1 -0.1)">
      <use xlink:href="#DejaVuSans-110"/>
      <use x="63.378906" xlink:href="#DejaVuSans-111"/>
      <use x="124.560547" xlink:href="#DejaVuSans-117"/>
      <use x="187.939453" xlink:href="#DejaVuSans-110"/>
     </g>
    </g>
    <g id="line2d_50"/>
    <g id="line2d_51">
     <g>
      <use style="fill:#2ca02c;stroke:#2ca02c;stroke-linejoin:miter;" x="288.390312" xlink:href="#m86ef4ed788" y="83.926688"/>
     </g>
    </g>
    <g id="text_24">
     <!-- proper noun -->
     <g transform="translate(306.390312 87.426688)scale(0.1 -0.1)">
      <use xlink:href="#DejaVuSans-112"/>
      <use x="63.476562" xlink:href="#DejaVuSans-114"/>
      <use x="104.558594" xlink:href="#DejaVuSans-111"/>
      <use x="165.740234" xlink:href="#DejaVuSans-112"/>
      <use x="229.216797" xlink:href="#DejaVuSans-101"/>
      <use x="290.740234" xlink:href="#DejaVuSans-114"/>
      <use x="331.853516" xlink:href="#DejaVuSans-32"/>
      <use x="363.640625" xlink:href="#DejaVuSans-110"/>
      <use x="427.019531" xlink:href="#DejaVuSans-111"/>
      <use x="488.201172" xlink:href="#DejaVuSans-117"/>
      <use x="551.580078" xlink:href="#DejaVuSans-110"/>
     </g>
    </g>
    <g id="line2d_52"/>
    <g id="line2d_53">
     <g>
      <use style="fill:#d62728;stroke:#d62728;stroke-linejoin:miter;" x="288.390312" xlink:href="#m8ce0f1d190" y="98.604813"/>
     </g>
    </g>
    <g id="text_25">
     <!-- preposition -->
     <g transform="translate(306.390312 102.104813)scale(0.1 -0.1)">
      <use xlink:href="#DejaVuSans-112"/>
      <use x="63.476562" xlink:href="#DejaVuSans-114"/>
      <use x="104.558594" xlink:href="#DejaVuSans-101"/>
      <use x="166.082031" xlink:href="#DejaVuSans-112"/>
      <use x="229.558594" xlink:href="#DejaVuSans-111"/>
      <use x="290.740234" xlink:href="#DejaVuSans-115"/>
      <use x="342.839844" xlink:href="#DejaVuSans-105"/>
      <use x="370.623047" xlink:href="#DejaVuSans-116"/>
      <use x="409.832031" xlink:href="#DejaVuSans-105"/>
      <use x="437.615234" xlink:href="#DejaVuSans-111"/>
      <use x="498.796875" xlink:href="#DejaVuSans-110"/>
     </g>
    </g>
    <g id="line2d_54"/>
    <g id="line2d_55">
     <g>
      <use style="fill:#9467bd;stroke:#9467bd;stroke-linejoin:miter;" x="288.390312" xlink:href="#mc2fa8800ce" y="113.282938"/>
     </g>
    </g>
    <g id="text_26">
     <!-- adjective -->
     <defs>
      <path d="M 9.421875 54.6875 
L 18.40625 54.6875 
L 18.40625 -0.984375 
Q 18.40625 -11.421875 14.421875 -16.109375 
Q 10.453125 -20.796875 1.609375 -20.796875 
L -1.8125 -20.796875 
L -1.8125 -13.1875 
L 0.59375 -13.1875 
Q 5.71875 -13.1875 7.5625 -10.8125 
Q 9.421875 -8.453125 9.421875 -0.984375 
z
M 9.421875 75.984375 
L 18.40625 75.984375 
L 18.40625 64.59375 
L 9.421875 64.59375 
z
" id="DejaVuSans-106"/>
     </defs>
     <g transform="translate(306.390312 116.782938)scale(0.1 -0.1)">
      <use xlink:href="#DejaVuSans-97"/>
      <use x="61.279297" xlink:href="#DejaVuSans-100"/>
      <use x="124.755859" xlink:href="#DejaVuSans-106"/>
      <use x="152.539062" xlink:href="#DejaVuSans-101"/>
      <use x="214.0625" xlink:href="#DejaVuSans-99"/>
      <use x="269.042969" xlink:href="#DejaVuSans-116"/>
      <use x="308.251953" xlink:href="#DejaVuSans-105"/>
      <use x="336.035156" xlink:href="#DejaVuSans-118"/>
      <use x="395.214844" xlink:href="#DejaVuSans-101"/>
     </g>
    </g>
    <g id="line2d_56"/>
    <g id="line2d_57">
     <g>
      <use style="fill:#8c564b;stroke:#8c564b;stroke-linejoin:miter;" x="288.390312" xlink:href="#m3c205d2548" y="127.961063"/>
     </g>
    </g>
    <g id="text_27">
     <!-- wh-det./-adv./-pron. -->
     <defs>
      <path d="M 54.890625 33.015625 
L 54.890625 0 
L 45.90625 0 
L 45.90625 32.71875 
Q 45.90625 40.484375 42.875 44.328125 
Q 39.84375 48.1875 33.796875 48.1875 
Q 26.515625 48.1875 22.3125 43.546875 
Q 18.109375 38.921875 18.109375 30.90625 
L 18.109375 0 
L 9.078125 0 
L 9.078125 75.984375 
L 18.109375 75.984375 
L 18.109375 46.1875 
Q 21.34375 51.125 25.703125 53.5625 
Q 30.078125 56 35.796875 56 
Q 45.21875 56 50.046875 50.171875 
Q 54.890625 44.34375 54.890625 33.015625 
z
" id="DejaVuSans-104"/>
      <path d="M 4.890625 31.390625 
L 31.203125 31.390625 
L 31.203125 23.390625 
L 4.890625 23.390625 
z
" id="DejaVuSans-45"/>
      <path d="M 10.6875 12.40625 
L 21 12.40625 
L 21 0 
L 10.6875 0 
z
" id="DejaVuSans-46"/>
      <path d="M 25.390625 72.90625 
L 33.6875 72.90625 
L 8.296875 -9.28125 
L 0 -9.28125 
z
" id="DejaVuSans-47"/>
     </defs>
     <g transform="translate(306.390312 131.461063)scale(0.1 -0.1)">
      <use xlink:href="#DejaVuSans-119"/>
      <use x="81.787109" xlink:href="#DejaVuSans-104"/>
      <use x="145.166016" xlink:href="#DejaVuSans-45"/>
      <use x="181.25" xlink:href="#DejaVuSans-100"/>
      <use x="244.726562" xlink:href="#DejaVuSans-101"/>
      <use x="306.25" xlink:href="#DejaVuSans-116"/>
      <use x="345.458984" xlink:href="#DejaVuSans-46"/>
      <use x="377.246094" xlink:href="#DejaVuSans-47"/>
      <use x="410.9375" xlink:href="#DejaVuSans-45"/>
      <use x="447.021484" xlink:href="#DejaVuSans-97"/>
      <use x="508.300781" xlink:href="#DejaVuSans-100"/>
      <use x="571.777344" xlink:href="#DejaVuSans-118"/>
      <use x="630.847656" xlink:href="#DejaVuSans-46"/>
      <use x="662.634766" xlink:href="#DejaVuSans-47"/>
      <use x="696.326172" xlink:href="#DejaVuSans-45"/>
      <use x="732.410156" xlink:href="#DejaVuSans-112"/>
      <use x="795.886719" xlink:href="#DejaVuSans-114"/>
      <use x="836.96875" xlink:href="#DejaVuSans-111"/>
      <use x="898.150391" xlink:href="#DejaVuSans-110"/>
      <use x="961.529297" xlink:href="#DejaVuSans-46"/>
     </g>
    </g>
    <g id="line2d_58"/>
    <g id="line2d_59">
     <g>
      <use style="fill:#e377c2;stroke:#e377c2;stroke-linejoin:miter;" x="288.390312" xlink:href="#mab6dcb6085" y="142.639188"/>
     </g>
    </g>
    <g id="text_28">
     <!-- adverb -->
     <g transform="translate(306.390312 146.139188)scale(0.1 -0.1)">
      <use xlink:href="#DejaVuSans-97"/>
      <use x="61.279297" xlink:href="#DejaVuSans-100"/>
      <use x="124.755859" xlink:href="#DejaVuSans-118"/>
      <use x="183.935547" xlink:href="#DejaVuSans-101"/>
      <use x="245.458984" xlink:href="#DejaVuSans-114"/>
      <use x="286.572266" xlink:href="#DejaVuSans-98"/>
     </g>
    </g>
    <g id="line2d_60"/>
    <g id="line2d_61">
     <g>
      <use style="fill:#7f7f7f;stroke:#7f7f7f;stroke-linejoin:miter;" x="288.390312" xlink:href="#mbfa663402f" y="157.317313"/>
     </g>
    </g>
    <g id="text_29">
     <!-- pers./pos. pronoun -->
     <g transform="translate(306.390312 160.817313)scale(0.1 -0.1)">
      <use xlink:href="#DejaVuSans-112"/>
      <use x="63.476562" xlink:href="#DejaVuSans-101"/>
      <use x="125" xlink:href="#DejaVuSans-114"/>
      <use x="166.113281" xlink:href="#DejaVuSans-115"/>
      <use x="218.212891" xlink:href="#DejaVuSans-46"/>
      <use x="250" xlink:href="#DejaVuSans-47"/>
      <use x="283.691406" xlink:href="#DejaVuSans-112"/>
      <use x="347.167969" xlink:href="#DejaVuSans-111"/>
      <use x="408.349609" xlink:href="#DejaVuSans-115"/>
      <use x="460.449219" xlink:href="#DejaVuSans-46"/>
      <use x="492.236328" xlink:href="#DejaVuSans-32"/>
      <use x="524.023438" xlink:href="#DejaVuSans-112"/>
      <use x="587.5" xlink:href="#DejaVuSans-114"/>
      <use x="628.582031" xlink:href="#DejaVuSans-111"/>
      <use x="689.763672" xlink:href="#DejaVuSans-110"/>
      <use x="753.142578" xlink:href="#DejaVuSans-111"/>
      <use x="814.324219" xlink:href="#DejaVuSans-117"/>
      <use x="877.703125" xlink:href="#DejaVuSans-110"/>
     </g>
    </g>
   </g>
  </g>
 </g>
 <defs>
  <clipPath id="pbe0731efb4">
   <rect height="266.112" width="357.12" x="57.6" y="41.472"/>
  </clipPath>
 </defs>
</svg>
